%TF.GenerationSoftware,KiCad,Pcbnew,8.0.8*%
%TF.CreationDate,2025-02-06T15:12:19+01:00*%
%TF.ProjectId,mini-laser-driver,6d696e69-2d6c-4617-9365-722d64726976,rev?*%
%TF.SameCoordinates,Original*%
%TF.FileFunction,Drillmap*%
%TF.FilePolarity,Positive*%
%FSLAX45Y45*%
G04 Gerber Fmt 4.5, Leading zero omitted, Abs format (unit mm)*
G04 Created by KiCad (PCBNEW 8.0.8) date 2025-02-06 15:12:19*
%MOMM*%
%LPD*%
G01*
G04 APERTURE LIST*
%ADD10C,0.050000*%
%ADD11C,0.200000*%
G04 APERTURE END LIST*
D10*
X60700000Y-2700000D02*
X64900000Y-2700000D01*
X64900000Y-5400000D01*
X60700000Y-5400000D01*
X60700000Y-2700000D01*
D11*
X60958277Y-5713984D02*
X60958277Y-5513984D01*
X60958277Y-5513984D02*
X61005896Y-5513984D01*
X61005896Y-5513984D02*
X61034467Y-5523508D01*
X61034467Y-5523508D02*
X61053515Y-5542555D01*
X61053515Y-5542555D02*
X61063039Y-5561603D01*
X61063039Y-5561603D02*
X61072562Y-5599698D01*
X61072562Y-5599698D02*
X61072562Y-5628269D01*
X61072562Y-5628269D02*
X61063039Y-5666365D01*
X61063039Y-5666365D02*
X61053515Y-5685412D01*
X61053515Y-5685412D02*
X61034467Y-5704460D01*
X61034467Y-5704460D02*
X61005896Y-5713984D01*
X61005896Y-5713984D02*
X60958277Y-5713984D01*
X61158277Y-5713984D02*
X61158277Y-5580650D01*
X61158277Y-5618746D02*
X61167801Y-5599698D01*
X61167801Y-5599698D02*
X61177324Y-5590174D01*
X61177324Y-5590174D02*
X61196372Y-5580650D01*
X61196372Y-5580650D02*
X61215420Y-5580650D01*
X61282086Y-5713984D02*
X61282086Y-5580650D01*
X61282086Y-5513984D02*
X61272562Y-5523508D01*
X61272562Y-5523508D02*
X61282086Y-5533031D01*
X61282086Y-5533031D02*
X61291610Y-5523508D01*
X61291610Y-5523508D02*
X61282086Y-5513984D01*
X61282086Y-5513984D02*
X61282086Y-5533031D01*
X61405896Y-5713984D02*
X61386848Y-5704460D01*
X61386848Y-5704460D02*
X61377324Y-5685412D01*
X61377324Y-5685412D02*
X61377324Y-5513984D01*
X61510658Y-5713984D02*
X61491610Y-5704460D01*
X61491610Y-5704460D02*
X61482086Y-5685412D01*
X61482086Y-5685412D02*
X61482086Y-5513984D01*
X61739229Y-5713984D02*
X61739229Y-5513984D01*
X61739229Y-5513984D02*
X61805896Y-5656841D01*
X61805896Y-5656841D02*
X61872562Y-5513984D01*
X61872562Y-5513984D02*
X61872562Y-5713984D01*
X62053515Y-5713984D02*
X62053515Y-5609222D01*
X62053515Y-5609222D02*
X62043991Y-5590174D01*
X62043991Y-5590174D02*
X62024943Y-5580650D01*
X62024943Y-5580650D02*
X61986848Y-5580650D01*
X61986848Y-5580650D02*
X61967801Y-5590174D01*
X62053515Y-5704460D02*
X62034467Y-5713984D01*
X62034467Y-5713984D02*
X61986848Y-5713984D01*
X61986848Y-5713984D02*
X61967801Y-5704460D01*
X61967801Y-5704460D02*
X61958277Y-5685412D01*
X61958277Y-5685412D02*
X61958277Y-5666365D01*
X61958277Y-5666365D02*
X61967801Y-5647317D01*
X61967801Y-5647317D02*
X61986848Y-5637793D01*
X61986848Y-5637793D02*
X62034467Y-5637793D01*
X62034467Y-5637793D02*
X62053515Y-5628269D01*
X62148753Y-5580650D02*
X62148753Y-5780650D01*
X62148753Y-5590174D02*
X62167801Y-5580650D01*
X62167801Y-5580650D02*
X62205896Y-5580650D01*
X62205896Y-5580650D02*
X62224943Y-5590174D01*
X62224943Y-5590174D02*
X62234467Y-5599698D01*
X62234467Y-5599698D02*
X62243991Y-5618746D01*
X62243991Y-5618746D02*
X62243991Y-5675888D01*
X62243991Y-5675888D02*
X62234467Y-5694936D01*
X62234467Y-5694936D02*
X62224943Y-5704460D01*
X62224943Y-5704460D02*
X62205896Y-5713984D01*
X62205896Y-5713984D02*
X62167801Y-5713984D01*
X62167801Y-5713984D02*
X62148753Y-5704460D01*
X62329705Y-5694936D02*
X62339229Y-5704460D01*
X62339229Y-5704460D02*
X62329705Y-5713984D01*
X62329705Y-5713984D02*
X62320182Y-5704460D01*
X62320182Y-5704460D02*
X62329705Y-5694936D01*
X62329705Y-5694936D02*
X62329705Y-5713984D01*
X62329705Y-5590174D02*
X62339229Y-5599698D01*
X62339229Y-5599698D02*
X62329705Y-5609222D01*
X62329705Y-5609222D02*
X62320182Y-5599698D01*
X62320182Y-5599698D02*
X62329705Y-5590174D01*
X62329705Y-5590174D02*
X62329705Y-5609222D01*
M02*
