%TF.GenerationSoftware,KiCad,Pcbnew,8.0.8*%
%TF.CreationDate,2025-02-06T15:12:14+01:00*%
%TF.ProjectId,mini-laser-driver,6d696e69-2d6c-4617-9365-722d64726976,rev?*%
%TF.SameCoordinates,Original*%
%TF.FileFunction,Copper,L2,Bot*%
%TF.FilePolarity,Positive*%
%FSLAX46Y46*%
G04 Gerber Fmt 4.6, Leading zero omitted, Abs format (unit mm)*
G04 Created by KiCad (PCBNEW 8.0.8) date 2025-02-06 15:12:14*
%MOMM*%
%LPD*%
G01*
G04 APERTURE LIST*
%TA.AperFunction,ComponentPad*%
%ADD10R,1.700000X1.700000*%
%TD*%
%TA.AperFunction,ComponentPad*%
%ADD11O,1.700000X1.700000*%
%TD*%
%TA.AperFunction,ComponentPad*%
%ADD12R,1.200000X1.200000*%
%TD*%
%TA.AperFunction,ComponentPad*%
%ADD13C,1.200000*%
%TD*%
%TA.AperFunction,ComponentPad*%
%ADD14O,1.600000X1.200000*%
%TD*%
%TA.AperFunction,ComponentPad*%
%ADD15C,1.440000*%
%TD*%
%TA.AperFunction,ViaPad*%
%ADD16C,0.600000*%
%TD*%
%TA.AperFunction,Conductor*%
%ADD17C,0.500000*%
%TD*%
G04 APERTURE END LIST*
D10*
%TO.P,J1,1,Pin_1*%
%TO.N,VCC*%
X611000000Y-36675000D03*
D11*
%TO.P,J1,2,Pin_2*%
%TO.N,Enable*%
X611000000Y-39215000D03*
%TO.P,J1,3,Pin_3*%
%TO.N,GND*%
X611000000Y-41755000D03*
%TO.P,J1,4,Pin_4*%
%TO.N,Net-(J1-Pin_4)*%
X611000000Y-44295000D03*
%TO.P,J1,5,Pin_5*%
%TO.N,Net-(J1-Pin_5)*%
X611000000Y-46835000D03*
%TD*%
D12*
%TO.P,C2,1*%
%TO.N,VCC*%
X616250000Y-36500000D03*
D13*
%TO.P,C2,2*%
%TO.N,GND*%
X616250000Y-38500000D03*
%TD*%
D14*
%TO.P,LD1,1*%
%TO.N,Net-(LD2-K)*%
X634144724Y-34184724D03*
D13*
%TO.P,LD1,2*%
%TO.N,Net-(LD2-A)*%
X635414724Y-35454724D03*
%TO.P,LD1,3*%
%TO.N,Net-(JP1-A)*%
X636684724Y-34184724D03*
%TD*%
D10*
%TO.P,JP1,1,A*%
%TO.N,Net-(JP1-A)*%
X641000000Y-32225000D03*
D11*
%TO.P,JP1,2,B*%
%TO.N,Net-(JP1-B)*%
X641000000Y-34765000D03*
%TD*%
D10*
%TO.P,JP2,1,A*%
%TO.N,Net-(JP2-A)*%
X642600000Y-46525000D03*
D11*
%TO.P,JP2,2,B*%
%TO.N,GND*%
X642600000Y-49065000D03*
%TD*%
D15*
%TO.P,RV1,1,1*%
%TO.N,VCC*%
X622500000Y-48580000D03*
%TO.P,RV1,2,2*%
%TO.N,Net-(U1A-+)*%
X622500000Y-46040000D03*
%TO.P,RV1,3,3*%
%TO.N,GND*%
X622500000Y-43500000D03*
%TD*%
D14*
%TO.P,LD2,1,A*%
%TO.N,Net-(LD2-A)*%
X626914724Y-34184724D03*
D13*
%TO.P,LD2,2*%
%TO.N,N/C*%
X628184724Y-35454724D03*
%TO.P,LD2,3,K*%
%TO.N,Net-(LD2-K)*%
X629454724Y-34184724D03*
%TD*%
D16*
%TO.N,VCC*%
X619000000Y-39000000D03*
X624800000Y-35000000D03*
X619000000Y-41000000D03*
X620200000Y-35000000D03*
%TO.N,GND*%
X631500000Y-32750000D03*
X608000000Y-37000000D03*
X639100000Y-50400000D03*
X614000000Y-33000000D03*
X648000000Y-41000000D03*
X621000000Y-53000000D03*
X648000000Y-35000000D03*
X635000000Y-38000000D03*
X630000000Y-53000000D03*
X636250000Y-32750000D03*
X623000000Y-28000000D03*
X648000000Y-38000000D03*
X608000000Y-49000000D03*
X615000000Y-53000000D03*
X625905000Y-48405000D03*
X608000000Y-43000000D03*
X616000000Y-42000000D03*
X618000000Y-44000000D03*
X638000000Y-28000000D03*
X642000000Y-53000000D03*
X612000000Y-50000000D03*
X639750000Y-36250000D03*
X617000000Y-33000000D03*
X627000000Y-53000000D03*
X641000000Y-28000000D03*
X648000000Y-44000000D03*
X637000000Y-45600000D03*
X609000000Y-53000000D03*
X634000000Y-32750000D03*
X608000000Y-46000000D03*
X637750000Y-31500000D03*
X612000000Y-53000000D03*
X644700000Y-40637500D03*
X618000000Y-42000000D03*
X618000000Y-48500000D03*
X608000000Y-40000000D03*
X608000000Y-28000000D03*
X646000000Y-49000000D03*
X608000000Y-34000000D03*
X620000000Y-28000000D03*
X638000000Y-38000000D03*
X648000000Y-32000000D03*
X644000000Y-28000000D03*
X631000000Y-31500000D03*
X608000000Y-52000000D03*
X646000000Y-46000000D03*
X632000000Y-38000000D03*
X611000000Y-28000000D03*
X618000000Y-46000000D03*
X616000000Y-31000000D03*
X633000000Y-53000000D03*
X645000000Y-53000000D03*
X644000000Y-36000000D03*
X632000000Y-28000000D03*
X644000000Y-33000000D03*
X628750000Y-31500000D03*
X614000000Y-28000000D03*
X617000000Y-28000000D03*
X629000000Y-28000000D03*
X648000000Y-47000000D03*
X648000000Y-50000000D03*
X611000000Y-33000000D03*
X624000000Y-53000000D03*
X637000000Y-36250000D03*
X613000000Y-31000000D03*
X626000000Y-38000000D03*
X613750000Y-42000000D03*
X610000000Y-31000000D03*
X608000000Y-31000000D03*
X648000000Y-53000000D03*
X629000000Y-38000000D03*
X635500000Y-31500000D03*
X639000000Y-53000000D03*
X636000000Y-53000000D03*
X636900000Y-50400000D03*
X644000000Y-39000000D03*
X626000000Y-28000000D03*
X635000000Y-28000000D03*
X615000000Y-50000000D03*
X618000000Y-53000000D03*
X629500000Y-32750000D03*
X648000000Y-29000000D03*
X640796326Y-42475001D03*
X647000000Y-28000000D03*
X633250000Y-31500000D03*
%TO.N,Net-(LD2-K)*%
X635400000Y-41912500D03*
%TD*%
D17*
%TO.N,VCC*%
X619000000Y-41000000D02*
X619000000Y-39000000D01*
X620200000Y-35000000D02*
X624800000Y-35000000D01*
%TO.N,Net-(LD2-K)*%
X635400000Y-38400000D02*
X634144724Y-37144724D01*
X635400000Y-41912500D02*
X635400000Y-38400000D01*
X634144724Y-37144724D02*
X634144724Y-34184724D01*
%TD*%
%TA.AperFunction,Conductor*%
%TO.N,GND*%
G36*
X648442539Y-27520185D02*
G01*
X648488294Y-27572989D01*
X648499500Y-27624500D01*
X648499500Y-53375500D01*
X648479815Y-53442539D01*
X648427011Y-53488294D01*
X648375500Y-53499500D01*
X607624500Y-53499500D01*
X607557461Y-53479815D01*
X607511706Y-53427011D01*
X607500500Y-53375500D01*
X607500500Y-39214999D01*
X609644341Y-39214999D01*
X609644341Y-39215000D01*
X609664936Y-39450403D01*
X609664938Y-39450413D01*
X609726094Y-39678655D01*
X609726096Y-39678659D01*
X609726097Y-39678663D01*
X609825965Y-39892830D01*
X609825967Y-39892834D01*
X609961501Y-40086395D01*
X609961506Y-40086402D01*
X610128597Y-40253493D01*
X610128603Y-40253498D01*
X610314594Y-40383730D01*
X610358219Y-40438307D01*
X610365413Y-40507805D01*
X610333890Y-40570160D01*
X610314595Y-40586880D01*
X610128922Y-40716890D01*
X610128920Y-40716891D01*
X609961891Y-40883920D01*
X609961886Y-40883926D01*
X609826400Y-41077420D01*
X609826399Y-41077422D01*
X609726570Y-41291507D01*
X609726567Y-41291513D01*
X609669364Y-41504999D01*
X609669364Y-41505000D01*
X610566988Y-41505000D01*
X610534075Y-41562007D01*
X610500000Y-41689174D01*
X610500000Y-41820826D01*
X610534075Y-41947993D01*
X610566988Y-42005000D01*
X609669364Y-42005000D01*
X609726567Y-42218486D01*
X609726570Y-42218492D01*
X609826399Y-42432578D01*
X609961894Y-42626082D01*
X610128917Y-42793105D01*
X610314595Y-42923119D01*
X610358219Y-42977696D01*
X610365412Y-43047195D01*
X610333890Y-43109549D01*
X610314595Y-43126269D01*
X610128594Y-43256508D01*
X609961505Y-43423597D01*
X609825965Y-43617169D01*
X609825964Y-43617171D01*
X609726098Y-43831335D01*
X609726094Y-43831344D01*
X609664938Y-44059586D01*
X609664936Y-44059596D01*
X609644341Y-44294999D01*
X609644341Y-44295000D01*
X609664936Y-44530403D01*
X609664938Y-44530413D01*
X609726094Y-44758655D01*
X609726096Y-44758659D01*
X609726097Y-44758663D01*
X609779138Y-44872409D01*
X609825965Y-44972830D01*
X609825967Y-44972834D01*
X609961501Y-45166395D01*
X609961506Y-45166402D01*
X610128597Y-45333493D01*
X610128603Y-45333498D01*
X610314158Y-45463425D01*
X610357783Y-45518002D01*
X610364977Y-45587500D01*
X610333454Y-45649855D01*
X610314158Y-45666575D01*
X610128597Y-45796505D01*
X609961505Y-45963597D01*
X609825965Y-46157169D01*
X609825964Y-46157171D01*
X609726098Y-46371335D01*
X609726094Y-46371344D01*
X609664938Y-46599586D01*
X609664936Y-46599596D01*
X609644341Y-46834999D01*
X609644341Y-46835000D01*
X609664936Y-47070403D01*
X609664938Y-47070413D01*
X609726094Y-47298655D01*
X609726096Y-47298659D01*
X609726097Y-47298663D01*
X609811814Y-47482483D01*
X609825965Y-47512830D01*
X609825967Y-47512834D01*
X609899135Y-47617328D01*
X609961505Y-47706401D01*
X610128599Y-47873495D01*
X610180552Y-47909873D01*
X610322165Y-48009032D01*
X610322167Y-48009033D01*
X610322170Y-48009035D01*
X610536337Y-48108903D01*
X610764592Y-48170063D01*
X610952918Y-48186539D01*
X610999999Y-48190659D01*
X611000000Y-48190659D01*
X611000001Y-48190659D01*
X611039234Y-48187226D01*
X611235408Y-48170063D01*
X611463663Y-48108903D01*
X611677830Y-48009035D01*
X611871401Y-47873495D01*
X612038495Y-47706401D01*
X612174035Y-47512830D01*
X612273903Y-47298663D01*
X612335063Y-47070408D01*
X612355659Y-46835000D01*
X612355004Y-46827519D01*
X612335063Y-46599596D01*
X612335063Y-46599592D01*
X612273903Y-46371337D01*
X612174035Y-46157171D01*
X612091992Y-46040000D01*
X612091991Y-46039998D01*
X621274838Y-46039998D01*
X621274838Y-46040001D01*
X621293450Y-46252741D01*
X621293452Y-46252752D01*
X621348721Y-46459022D01*
X621348723Y-46459026D01*
X621348724Y-46459030D01*
X621391171Y-46550058D01*
X621438977Y-46652578D01*
X621561472Y-46827521D01*
X621712478Y-46978527D01*
X621712481Y-46978529D01*
X621887419Y-47101021D01*
X621887421Y-47101022D01*
X621887420Y-47101022D01*
X621951936Y-47131106D01*
X622080970Y-47191276D01*
X622080983Y-47191279D01*
X622086064Y-47193130D01*
X622085292Y-47195250D01*
X622136710Y-47226594D01*
X622167237Y-47289442D01*
X622158939Y-47358817D01*
X622114452Y-47412693D01*
X622085685Y-47425830D01*
X622086064Y-47426870D01*
X622080972Y-47428723D01*
X622080970Y-47428724D01*
X622080968Y-47428725D01*
X621887421Y-47518977D01*
X621712478Y-47641472D01*
X621561472Y-47792478D01*
X621438977Y-47967421D01*
X621348725Y-48160968D01*
X621348721Y-48160977D01*
X621293452Y-48367247D01*
X621293450Y-48367258D01*
X621274838Y-48579998D01*
X621274838Y-48580001D01*
X621293450Y-48792741D01*
X621293452Y-48792752D01*
X621348721Y-48999022D01*
X621348723Y-48999026D01*
X621348724Y-48999030D01*
X621391171Y-49090058D01*
X621438977Y-49192578D01*
X621561472Y-49367521D01*
X621712478Y-49518527D01*
X621712481Y-49518529D01*
X621887419Y-49641021D01*
X621887421Y-49641022D01*
X621887420Y-49641022D01*
X621951936Y-49671106D01*
X622080970Y-49731276D01*
X622287253Y-49786549D01*
X622439215Y-49799844D01*
X622499998Y-49805162D01*
X622500000Y-49805162D01*
X622500002Y-49805162D01*
X622553186Y-49800508D01*
X622712747Y-49786549D01*
X622919030Y-49731276D01*
X623112581Y-49641021D01*
X623287519Y-49518529D01*
X623438529Y-49367519D01*
X623561021Y-49192581D01*
X623651276Y-48999030D01*
X623706549Y-48792747D01*
X623725162Y-48580000D01*
X623706549Y-48367253D01*
X623664581Y-48210627D01*
X623651278Y-48160977D01*
X623651277Y-48160976D01*
X623651276Y-48160970D01*
X623561021Y-47967419D01*
X623438529Y-47792481D01*
X623438527Y-47792478D01*
X623287521Y-47641472D01*
X623112578Y-47518977D01*
X623112579Y-47518977D01*
X622983547Y-47458809D01*
X622919030Y-47428724D01*
X622919023Y-47428722D01*
X622913936Y-47426870D01*
X622914709Y-47424746D01*
X622863305Y-47393424D01*
X622832766Y-47330581D01*
X622841050Y-47261204D01*
X622885528Y-47207320D01*
X622914315Y-47194172D01*
X622913936Y-47193130D01*
X622919013Y-47191280D01*
X622919030Y-47191276D01*
X623112581Y-47101021D01*
X623287519Y-46978529D01*
X623438529Y-46827519D01*
X623561021Y-46652581D01*
X623651276Y-46459030D01*
X623706549Y-46252747D01*
X623725162Y-46040000D01*
X623706549Y-45827253D01*
X623652928Y-45627135D01*
X641249500Y-45627135D01*
X641249500Y-47422870D01*
X641249501Y-47422876D01*
X641255908Y-47482483D01*
X641306202Y-47617328D01*
X641306206Y-47617335D01*
X641392452Y-47732544D01*
X641392455Y-47732547D01*
X641507664Y-47818793D01*
X641507671Y-47818797D01*
X641507674Y-47818798D01*
X641639598Y-47868002D01*
X641695531Y-47909873D01*
X641719949Y-47975337D01*
X641705098Y-48043610D01*
X641683947Y-48071865D01*
X641561886Y-48193926D01*
X641426400Y-48387420D01*
X641426399Y-48387422D01*
X641326570Y-48601507D01*
X641326567Y-48601513D01*
X641269364Y-48814999D01*
X641269364Y-48815000D01*
X642166988Y-48815000D01*
X642134075Y-48872007D01*
X642100000Y-48999174D01*
X642100000Y-49130826D01*
X642134075Y-49257993D01*
X642166988Y-49315000D01*
X641269364Y-49315000D01*
X641326567Y-49528486D01*
X641326570Y-49528492D01*
X641426399Y-49742578D01*
X641561894Y-49936082D01*
X641728917Y-50103105D01*
X641922421Y-50238600D01*
X642136507Y-50338429D01*
X642136516Y-50338433D01*
X642350000Y-50395634D01*
X642350000Y-49498012D01*
X642407007Y-49530925D01*
X642534174Y-49565000D01*
X642665826Y-49565000D01*
X642792993Y-49530925D01*
X642850000Y-49498012D01*
X642850000Y-50395633D01*
X643063483Y-50338433D01*
X643063492Y-50338429D01*
X643277578Y-50238600D01*
X643471082Y-50103105D01*
X643638105Y-49936082D01*
X643773600Y-49742578D01*
X643873429Y-49528492D01*
X643873432Y-49528486D01*
X643930636Y-49315000D01*
X643033012Y-49315000D01*
X643065925Y-49257993D01*
X643100000Y-49130826D01*
X643100000Y-48999174D01*
X643065925Y-48872007D01*
X643033012Y-48815000D01*
X643930636Y-48815000D01*
X643930635Y-48814999D01*
X643873432Y-48601513D01*
X643873429Y-48601507D01*
X643773600Y-48387422D01*
X643773599Y-48387420D01*
X643638113Y-48193926D01*
X643638108Y-48193920D01*
X643516053Y-48071865D01*
X643482568Y-48010542D01*
X643487552Y-47940850D01*
X643529424Y-47884917D01*
X643560400Y-47868002D01*
X643692331Y-47818796D01*
X643807546Y-47732546D01*
X643893796Y-47617331D01*
X643944091Y-47482483D01*
X643950500Y-47422873D01*
X643950499Y-45627128D01*
X643944091Y-45567517D01*
X643943152Y-45565000D01*
X643893797Y-45432671D01*
X643893793Y-45432664D01*
X643807547Y-45317455D01*
X643807544Y-45317452D01*
X643692335Y-45231206D01*
X643692328Y-45231202D01*
X643557482Y-45180908D01*
X643557483Y-45180908D01*
X643497883Y-45174501D01*
X643497881Y-45174500D01*
X643497873Y-45174500D01*
X643497864Y-45174500D01*
X641702129Y-45174500D01*
X641702123Y-45174501D01*
X641642516Y-45180908D01*
X641507671Y-45231202D01*
X641507664Y-45231206D01*
X641392455Y-45317452D01*
X641392452Y-45317455D01*
X641306206Y-45432664D01*
X641306202Y-45432671D01*
X641255908Y-45567517D01*
X641250162Y-45620968D01*
X641249501Y-45627123D01*
X641249500Y-45627135D01*
X623652928Y-45627135D01*
X623651276Y-45620970D01*
X623561021Y-45427419D01*
X623438529Y-45252481D01*
X623438527Y-45252478D01*
X623287521Y-45101472D01*
X623112578Y-44978977D01*
X623112579Y-44978977D01*
X622983547Y-44918809D01*
X622919030Y-44888724D01*
X622919023Y-44888722D01*
X622913936Y-44886870D01*
X622914606Y-44885028D01*
X622862293Y-44853114D01*
X622831789Y-44790255D01*
X622840111Y-44720883D01*
X622884617Y-44667022D01*
X622914097Y-44653574D01*
X622913764Y-44652658D01*
X622918864Y-44650801D01*
X623112325Y-44560589D01*
X623168030Y-44521583D01*
X622546447Y-43900000D01*
X622552661Y-43900000D01*
X622654394Y-43872741D01*
X622745606Y-43820080D01*
X622820080Y-43745606D01*
X622872741Y-43654394D01*
X622900000Y-43552661D01*
X622900000Y-43546446D01*
X623521583Y-44168029D01*
X623560589Y-44112325D01*
X623650801Y-43918864D01*
X623650805Y-43918853D01*
X623706054Y-43712662D01*
X623706055Y-43712654D01*
X623724660Y-43500002D01*
X623724660Y-43499997D01*
X623706055Y-43287345D01*
X623706054Y-43287337D01*
X623650805Y-43081146D01*
X623650802Y-43081140D01*
X623560586Y-42887669D01*
X623560582Y-42887663D01*
X623521584Y-42831968D01*
X622900000Y-43453552D01*
X622900000Y-43447339D01*
X622872741Y-43345606D01*
X622820080Y-43254394D01*
X622745606Y-43179920D01*
X622654394Y-43127259D01*
X622552661Y-43100000D01*
X622546447Y-43100000D01*
X623168030Y-42478415D01*
X623112329Y-42439413D01*
X622918859Y-42349197D01*
X622918853Y-42349194D01*
X622712662Y-42293945D01*
X622712654Y-42293944D01*
X622500002Y-42275340D01*
X622499998Y-42275340D01*
X622287345Y-42293944D01*
X622287337Y-42293945D01*
X622081146Y-42349194D01*
X622081140Y-42349197D01*
X621887671Y-42439412D01*
X621887669Y-42439413D01*
X621831969Y-42478415D01*
X621831968Y-42478415D01*
X622453554Y-43100000D01*
X622447339Y-43100000D01*
X622345606Y-43127259D01*
X622254394Y-43179920D01*
X622179920Y-43254394D01*
X622127259Y-43345606D01*
X622100000Y-43447339D01*
X622100000Y-43453553D01*
X621478415Y-42831968D01*
X621478415Y-42831969D01*
X621439413Y-42887669D01*
X621439412Y-42887671D01*
X621349197Y-43081140D01*
X621349194Y-43081146D01*
X621293945Y-43287337D01*
X621293944Y-43287345D01*
X621275340Y-43499997D01*
X621275340Y-43500002D01*
X621293944Y-43712654D01*
X621293945Y-43712662D01*
X621349194Y-43918853D01*
X621349197Y-43918859D01*
X621439413Y-44112329D01*
X621478415Y-44168030D01*
X622100000Y-43546445D01*
X622100000Y-43552661D01*
X622127259Y-43654394D01*
X622179920Y-43745606D01*
X622254394Y-43820080D01*
X622345606Y-43872741D01*
X622447339Y-43900000D01*
X622453554Y-43900000D01*
X621831968Y-44521584D01*
X621887663Y-44560582D01*
X621887669Y-44560586D01*
X622081140Y-44650802D01*
X622086236Y-44652658D01*
X622085542Y-44654563D01*
X622137647Y-44686302D01*
X622168196Y-44749139D01*
X622159922Y-44818518D01*
X622115454Y-44872409D01*
X622085744Y-44885991D01*
X622086064Y-44886870D01*
X622080972Y-44888723D01*
X622080970Y-44888724D01*
X622080968Y-44888725D01*
X621887421Y-44978977D01*
X621712478Y-45101472D01*
X621561472Y-45252478D01*
X621438977Y-45427421D01*
X621348725Y-45620968D01*
X621348721Y-45620977D01*
X621293452Y-45827247D01*
X621293450Y-45827258D01*
X621274838Y-46039998D01*
X612091991Y-46039998D01*
X612038494Y-45963597D01*
X611871402Y-45796506D01*
X611871396Y-45796501D01*
X611685842Y-45666575D01*
X611642217Y-45611998D01*
X611635023Y-45542500D01*
X611666546Y-45480145D01*
X611685842Y-45463425D01*
X611737264Y-45427419D01*
X611871401Y-45333495D01*
X612038495Y-45166401D01*
X612174035Y-44972830D01*
X612273903Y-44758663D01*
X612335063Y-44530408D01*
X612355659Y-44295000D01*
X612335063Y-44059592D01*
X612273903Y-43831337D01*
X612174035Y-43617171D01*
X612091992Y-43500000D01*
X612038494Y-43423597D01*
X611871402Y-43256506D01*
X611871401Y-43256505D01*
X611685405Y-43126269D01*
X611641781Y-43071692D01*
X611634588Y-43002193D01*
X611666110Y-42939839D01*
X611685405Y-42923119D01*
X611871082Y-42793105D01*
X612038105Y-42626082D01*
X612173600Y-42432578D01*
X612273429Y-42218492D01*
X612273432Y-42218486D01*
X612330636Y-42005000D01*
X611433012Y-42005000D01*
X611465925Y-41947993D01*
X611500000Y-41820826D01*
X611500000Y-41689174D01*
X611465925Y-41562007D01*
X611433012Y-41505000D01*
X612330636Y-41505000D01*
X612330635Y-41504999D01*
X612273432Y-41291513D01*
X612273429Y-41291507D01*
X612173600Y-41077422D01*
X612173599Y-41077420D01*
X612038113Y-40883926D01*
X612038108Y-40883920D01*
X611871078Y-40716890D01*
X611685405Y-40586879D01*
X611641780Y-40532302D01*
X611634588Y-40462804D01*
X611666110Y-40400449D01*
X611685406Y-40383730D01*
X611871401Y-40253495D01*
X612038495Y-40086401D01*
X612174035Y-39892830D01*
X612273903Y-39678663D01*
X612335063Y-39450408D01*
X612336478Y-39434240D01*
X615669311Y-39434240D01*
X615757585Y-39488897D01*
X615947678Y-39562539D01*
X616148072Y-39600000D01*
X616351928Y-39600000D01*
X616552322Y-39562539D01*
X616742412Y-39488899D01*
X616742416Y-39488897D01*
X616830686Y-39434241D01*
X616830686Y-39434240D01*
X616250001Y-38853553D01*
X616250000Y-38853553D01*
X615669311Y-39434240D01*
X612336478Y-39434240D01*
X612355659Y-39215000D01*
X612335063Y-38979592D01*
X612281464Y-38779556D01*
X612273905Y-38751344D01*
X612273904Y-38751343D01*
X612273903Y-38751337D01*
X612174035Y-38537171D01*
X612148007Y-38499999D01*
X615145287Y-38499999D01*
X615145287Y-38500000D01*
X615164096Y-38702989D01*
X615164097Y-38702992D01*
X615219883Y-38899063D01*
X615219886Y-38899069D01*
X615310751Y-39081551D01*
X615312533Y-39083911D01*
X615896446Y-38500000D01*
X615856950Y-38460504D01*
X615950000Y-38460504D01*
X615950000Y-38539496D01*
X615970444Y-38615796D01*
X616009940Y-38684205D01*
X616065795Y-38740060D01*
X616134204Y-38779556D01*
X616210504Y-38800000D01*
X616289496Y-38800000D01*
X616365796Y-38779556D01*
X616434205Y-38740060D01*
X616490060Y-38684205D01*
X616529556Y-38615796D01*
X616550000Y-38539496D01*
X616550000Y-38500000D01*
X616603553Y-38500000D01*
X617187465Y-39083912D01*
X617189247Y-39081553D01*
X617189248Y-39081551D01*
X617229857Y-38999996D01*
X618194435Y-38999996D01*
X618194435Y-39000003D01*
X618214630Y-39179249D01*
X618214631Y-39179254D01*
X618242542Y-39259017D01*
X618249500Y-39299972D01*
X618249500Y-40700028D01*
X618242542Y-40740982D01*
X618214631Y-40820747D01*
X618194435Y-40999996D01*
X618194435Y-41000003D01*
X618214630Y-41179249D01*
X618214631Y-41179254D01*
X618274211Y-41349523D01*
X618336084Y-41447993D01*
X618370184Y-41502262D01*
X618497738Y-41629816D01*
X618650478Y-41725789D01*
X618671792Y-41733247D01*
X618820745Y-41785368D01*
X618820750Y-41785369D01*
X618999996Y-41805565D01*
X619000000Y-41805565D01*
X619000004Y-41805565D01*
X619179249Y-41785369D01*
X619179252Y-41785368D01*
X619179255Y-41785368D01*
X619349522Y-41725789D01*
X619502262Y-41629816D01*
X619629816Y-41502262D01*
X619725789Y-41349522D01*
X619785368Y-41179255D01*
X619805565Y-41000000D01*
X619785368Y-40820745D01*
X619757458Y-40740982D01*
X619750500Y-40700028D01*
X619750500Y-39299972D01*
X619757458Y-39259017D01*
X619772860Y-39215000D01*
X619785368Y-39179255D01*
X619785369Y-39179249D01*
X619805565Y-39000003D01*
X619805565Y-38999996D01*
X619785369Y-38820750D01*
X619785368Y-38820745D01*
X619764892Y-38762229D01*
X619725789Y-38650478D01*
X619629816Y-38497738D01*
X619502262Y-38370184D01*
X619459954Y-38343600D01*
X619349523Y-38274211D01*
X619179254Y-38214631D01*
X619179249Y-38214630D01*
X619000004Y-38194435D01*
X618999996Y-38194435D01*
X618820750Y-38214630D01*
X618820745Y-38214631D01*
X618650476Y-38274211D01*
X618497737Y-38370184D01*
X618370184Y-38497737D01*
X618274211Y-38650476D01*
X618214631Y-38820745D01*
X618214630Y-38820750D01*
X618194435Y-38999996D01*
X617229857Y-38999996D01*
X617280113Y-38899069D01*
X617280116Y-38899063D01*
X617335902Y-38702992D01*
X617335903Y-38702989D01*
X617354713Y-38500000D01*
X617354713Y-38499999D01*
X617335903Y-38297010D01*
X617335902Y-38297007D01*
X617280116Y-38100936D01*
X617280113Y-38100930D01*
X617189249Y-37918449D01*
X617189247Y-37918447D01*
X617187465Y-37916087D01*
X616603553Y-38500000D01*
X616550000Y-38500000D01*
X616550000Y-38460504D01*
X616529556Y-38384204D01*
X616490060Y-38315795D01*
X616434205Y-38259940D01*
X616365796Y-38220444D01*
X616289496Y-38200000D01*
X616210504Y-38200000D01*
X616134204Y-38220444D01*
X616065795Y-38259940D01*
X616009940Y-38315795D01*
X615970444Y-38384204D01*
X615950000Y-38460504D01*
X615856950Y-38460504D01*
X615312533Y-37916087D01*
X615310755Y-37918442D01*
X615310754Y-37918443D01*
X615219886Y-38100930D01*
X615219883Y-38100936D01*
X615164097Y-38297007D01*
X615164096Y-38297010D01*
X615145287Y-38499999D01*
X612148007Y-38499999D01*
X612146423Y-38497737D01*
X612038496Y-38343600D01*
X611991903Y-38297007D01*
X611916567Y-38221671D01*
X611883084Y-38160351D01*
X611888068Y-38090659D01*
X611929939Y-38034725D01*
X611960915Y-38017810D01*
X612092331Y-37968796D01*
X612207546Y-37882546D01*
X612293796Y-37767331D01*
X612344091Y-37632483D01*
X612350500Y-37572873D01*
X612350499Y-35852135D01*
X615149500Y-35852135D01*
X615149500Y-37147870D01*
X615149501Y-37147876D01*
X615155908Y-37207483D01*
X615206202Y-37342328D01*
X615206206Y-37342335D01*
X615292452Y-37457544D01*
X615292455Y-37457547D01*
X615407664Y-37543793D01*
X615407671Y-37543797D01*
X615542516Y-37594091D01*
X615568419Y-37596875D01*
X615602127Y-37600500D01*
X615652692Y-37600499D01*
X615719729Y-37620182D01*
X615740372Y-37636818D01*
X616250000Y-38146446D01*
X616759628Y-37636818D01*
X616820951Y-37603333D01*
X616847308Y-37600499D01*
X616897872Y-37600499D01*
X616957483Y-37594091D01*
X617092331Y-37543796D01*
X617207546Y-37457546D01*
X617293796Y-37342331D01*
X617344091Y-37207483D01*
X617350500Y-37147873D01*
X617350499Y-35852128D01*
X617344091Y-35792517D01*
X617338351Y-35777128D01*
X617293797Y-35657671D01*
X617293793Y-35657664D01*
X617207547Y-35542455D01*
X617207544Y-35542452D01*
X617092335Y-35456206D01*
X617092328Y-35456202D01*
X616957482Y-35405908D01*
X616957483Y-35405908D01*
X616897883Y-35399501D01*
X616897881Y-35399500D01*
X616897873Y-35399500D01*
X616897864Y-35399500D01*
X615602129Y-35399500D01*
X615602123Y-35399501D01*
X615542516Y-35405908D01*
X615407671Y-35456202D01*
X615407664Y-35456206D01*
X615292455Y-35542452D01*
X615292452Y-35542455D01*
X615206206Y-35657664D01*
X615206202Y-35657671D01*
X615155908Y-35792517D01*
X615149501Y-35852116D01*
X615149501Y-35852123D01*
X615149500Y-35852135D01*
X612350499Y-35852135D01*
X612350499Y-35777128D01*
X612344091Y-35717517D01*
X612321820Y-35657806D01*
X612293797Y-35582671D01*
X612293793Y-35582664D01*
X612207547Y-35467455D01*
X612207544Y-35467452D01*
X612092335Y-35381206D01*
X612092328Y-35381202D01*
X611957482Y-35330908D01*
X611957483Y-35330908D01*
X611897883Y-35324501D01*
X611897881Y-35324500D01*
X611897873Y-35324500D01*
X611897864Y-35324500D01*
X610102129Y-35324500D01*
X610102123Y-35324501D01*
X610042516Y-35330908D01*
X609907671Y-35381202D01*
X609907664Y-35381206D01*
X609792455Y-35467452D01*
X609792452Y-35467455D01*
X609706206Y-35582664D01*
X609706202Y-35582671D01*
X609655908Y-35717517D01*
X609649501Y-35777116D01*
X609649501Y-35777123D01*
X609649500Y-35777135D01*
X609649500Y-37572870D01*
X609649501Y-37572876D01*
X609655908Y-37632483D01*
X609706202Y-37767328D01*
X609706206Y-37767335D01*
X609792452Y-37882544D01*
X609792455Y-37882547D01*
X609907664Y-37968793D01*
X609907671Y-37968797D01*
X610039081Y-38017810D01*
X610095015Y-38059681D01*
X610119432Y-38125145D01*
X610104580Y-38193418D01*
X610083430Y-38221673D01*
X609961503Y-38343600D01*
X609825965Y-38537169D01*
X609825964Y-38537171D01*
X609726098Y-38751335D01*
X609726094Y-38751344D01*
X609664938Y-38979586D01*
X609664936Y-38979596D01*
X609644341Y-39214999D01*
X607500500Y-39214999D01*
X607500500Y-34999996D01*
X619394435Y-34999996D01*
X619394435Y-35000003D01*
X619414630Y-35179249D01*
X619414631Y-35179254D01*
X619474211Y-35349523D01*
X619541244Y-35456204D01*
X619570184Y-35502262D01*
X619697738Y-35629816D01*
X619788080Y-35686582D01*
X619837311Y-35717516D01*
X619850478Y-35725789D01*
X620020745Y-35785368D01*
X620020750Y-35785369D01*
X620199996Y-35805565D01*
X620200000Y-35805565D01*
X620200004Y-35805565D01*
X620379249Y-35785369D01*
X620379252Y-35785368D01*
X620379255Y-35785368D01*
X620459017Y-35757457D01*
X620499972Y-35750500D01*
X624500028Y-35750500D01*
X624540983Y-35757458D01*
X624620745Y-35785368D01*
X624620750Y-35785369D01*
X624799996Y-35805565D01*
X624800000Y-35805565D01*
X624800004Y-35805565D01*
X624979249Y-35785369D01*
X624979252Y-35785368D01*
X624979255Y-35785368D01*
X625149522Y-35725789D01*
X625302262Y-35629816D01*
X625429816Y-35502262D01*
X625525789Y-35349522D01*
X625585368Y-35179255D01*
X625585952Y-35174072D01*
X625605565Y-35000003D01*
X625605565Y-34999997D01*
X625595540Y-34911025D01*
X625607594Y-34842203D01*
X625654943Y-34790823D01*
X625722554Y-34773199D01*
X625788959Y-34794925D01*
X625819076Y-34824253D01*
X625875310Y-34901652D01*
X625997796Y-35024138D01*
X626137936Y-35125956D01*
X626292279Y-35204597D01*
X626457023Y-35258126D01*
X626628113Y-35285224D01*
X626959194Y-35285224D01*
X627026233Y-35304909D01*
X627071988Y-35357713D01*
X627082665Y-35420665D01*
X627079509Y-35454724D01*
X627098326Y-35657806D01*
X627154141Y-35853971D01*
X627154146Y-35853984D01*
X627245051Y-36036545D01*
X627367961Y-36199305D01*
X627518682Y-36336704D01*
X627518684Y-36336706D01*
X627617865Y-36398116D01*
X627692087Y-36444072D01*
X627882268Y-36517748D01*
X628082748Y-36555224D01*
X628082750Y-36555224D01*
X628286698Y-36555224D01*
X628286700Y-36555224D01*
X628487180Y-36517748D01*
X628677361Y-36444072D01*
X628850765Y-36336705D01*
X629001488Y-36199303D01*
X629124397Y-36036545D01*
X629215306Y-35853974D01*
X629271121Y-35657807D01*
X629289939Y-35454724D01*
X629286783Y-35420665D01*
X629300198Y-35352096D01*
X629348555Y-35301664D01*
X629410254Y-35285224D01*
X629556698Y-35285224D01*
X629556700Y-35285224D01*
X629757180Y-35247748D01*
X629947361Y-35174072D01*
X630120765Y-35066705D01*
X630271488Y-34929303D01*
X630394397Y-34766545D01*
X630485306Y-34583974D01*
X630541121Y-34387807D01*
X630559939Y-34184724D01*
X630551913Y-34098113D01*
X632844224Y-34098113D01*
X632844224Y-34271334D01*
X632861834Y-34382524D01*
X632871322Y-34442425D01*
X632924851Y-34607169D01*
X633003492Y-34761512D01*
X633105310Y-34901652D01*
X633227796Y-35024138D01*
X633227799Y-35024140D01*
X633343109Y-35107918D01*
X633385775Y-35163248D01*
X633394224Y-35208236D01*
X633394224Y-37218642D01*
X633394224Y-37218644D01*
X633394223Y-37218644D01*
X633423064Y-37363631D01*
X633423067Y-37363641D01*
X633479638Y-37500216D01*
X633508756Y-37543794D01*
X633508757Y-37543797D01*
X633561770Y-37623138D01*
X633561776Y-37623145D01*
X634613181Y-38674548D01*
X634646666Y-38735871D01*
X634649500Y-38762229D01*
X634649500Y-41612528D01*
X634642542Y-41653482D01*
X634614631Y-41733247D01*
X634594435Y-41912496D01*
X634594435Y-41912503D01*
X634614630Y-42091749D01*
X634614631Y-42091754D01*
X634674211Y-42262023D01*
X634770184Y-42414762D01*
X634897738Y-42542316D01*
X634988080Y-42599082D01*
X635031050Y-42626082D01*
X635050478Y-42638289D01*
X635220745Y-42697868D01*
X635220750Y-42697869D01*
X635399996Y-42718065D01*
X635400000Y-42718065D01*
X635400004Y-42718065D01*
X635579249Y-42697869D01*
X635579252Y-42697868D01*
X635579255Y-42697868D01*
X635749522Y-42638289D01*
X635902262Y-42542316D01*
X636029816Y-42414762D01*
X636125789Y-42262022D01*
X636185368Y-42091755D01*
X636205565Y-41912500D01*
X636185368Y-41733245D01*
X636157458Y-41653482D01*
X636150500Y-41612528D01*
X636150500Y-38326079D01*
X636121659Y-38181092D01*
X636121658Y-38181091D01*
X636121658Y-38181087D01*
X636098486Y-38125145D01*
X636065087Y-38044511D01*
X636065080Y-38044498D01*
X635982952Y-37921585D01*
X635943911Y-37882544D01*
X635878416Y-37817049D01*
X635424998Y-37363631D01*
X634931543Y-36870175D01*
X634898058Y-36808852D01*
X634895224Y-36782494D01*
X634895224Y-36614682D01*
X634914909Y-36547643D01*
X634967713Y-36501888D01*
X635036871Y-36491944D01*
X635064016Y-36499055D01*
X635089649Y-36508985D01*
X635112262Y-36517746D01*
X635112263Y-36517746D01*
X635112268Y-36517748D01*
X635312748Y-36555224D01*
X635312750Y-36555224D01*
X635516698Y-36555224D01*
X635516700Y-36555224D01*
X635717180Y-36517748D01*
X635907361Y-36444072D01*
X636080765Y-36336705D01*
X636231488Y-36199303D01*
X636354397Y-36036545D01*
X636445306Y-35853974D01*
X636501121Y-35657807D01*
X636519939Y-35454724D01*
X636516783Y-35420665D01*
X636530198Y-35352096D01*
X636578555Y-35301664D01*
X636640254Y-35285224D01*
X636786698Y-35285224D01*
X636786700Y-35285224D01*
X636987180Y-35247748D01*
X637177361Y-35174072D01*
X637350765Y-35066705D01*
X637501488Y-34929303D01*
X637624397Y-34766545D01*
X637625167Y-34764999D01*
X639644341Y-34764999D01*
X639644341Y-34765000D01*
X639664936Y-35000403D01*
X639664938Y-35000413D01*
X639726094Y-35228655D01*
X639726096Y-35228659D01*
X639726097Y-35228663D01*
X639782455Y-35349522D01*
X639825965Y-35442830D01*
X639825967Y-35442834D01*
X639895723Y-35542455D01*
X639961505Y-35636401D01*
X640128599Y-35803495D01*
X640200705Y-35853984D01*
X640322165Y-35939032D01*
X640322167Y-35939033D01*
X640322170Y-35939035D01*
X640536337Y-36038903D01*
X640764592Y-36100063D01*
X640952918Y-36116539D01*
X640999999Y-36120659D01*
X641000000Y-36120659D01*
X641000001Y-36120659D01*
X641039234Y-36117226D01*
X641235408Y-36100063D01*
X641463663Y-36038903D01*
X641677830Y-35939035D01*
X641871401Y-35803495D01*
X642038495Y-35636401D01*
X642174035Y-35442830D01*
X642273903Y-35228663D01*
X642335063Y-35000408D01*
X642355659Y-34765000D01*
X642335063Y-34529592D01*
X642273903Y-34301337D01*
X642174035Y-34087171D01*
X642100142Y-33981641D01*
X642038496Y-33893600D01*
X642001561Y-33856665D01*
X641916567Y-33771671D01*
X641883084Y-33710351D01*
X641888068Y-33640659D01*
X641929939Y-33584725D01*
X641960915Y-33567810D01*
X642092331Y-33518796D01*
X642207546Y-33432546D01*
X642293796Y-33317331D01*
X642344091Y-33182483D01*
X642350500Y-33122873D01*
X642350499Y-31327128D01*
X642344091Y-31267517D01*
X642293796Y-31132669D01*
X642293795Y-31132668D01*
X642293793Y-31132664D01*
X642207547Y-31017455D01*
X642207544Y-31017452D01*
X642092335Y-30931206D01*
X642092328Y-30931202D01*
X641957482Y-30880908D01*
X641957483Y-30880908D01*
X641897883Y-30874501D01*
X641897881Y-30874500D01*
X641897873Y-30874500D01*
X641897864Y-30874500D01*
X640102129Y-30874500D01*
X640102123Y-30874501D01*
X640042516Y-30880908D01*
X639907671Y-30931202D01*
X639907664Y-30931206D01*
X639792455Y-31017452D01*
X639792452Y-31017455D01*
X639706206Y-31132664D01*
X639706202Y-31132671D01*
X639655908Y-31267517D01*
X639649501Y-31327116D01*
X639649501Y-31327123D01*
X639649500Y-31327135D01*
X639649500Y-33122870D01*
X639649501Y-33122876D01*
X639655908Y-33182483D01*
X639706202Y-33317328D01*
X639706206Y-33317335D01*
X639792452Y-33432544D01*
X639792455Y-33432547D01*
X639907664Y-33518793D01*
X639907671Y-33518797D01*
X640039081Y-33567810D01*
X640095015Y-33609681D01*
X640119432Y-33675145D01*
X640104580Y-33743418D01*
X640083430Y-33771673D01*
X639961503Y-33893600D01*
X639825965Y-34087169D01*
X639825964Y-34087171D01*
X639726098Y-34301335D01*
X639726094Y-34301344D01*
X639664938Y-34529586D01*
X639664936Y-34529596D01*
X639644341Y-34764999D01*
X637625167Y-34764999D01*
X637715306Y-34583974D01*
X637771121Y-34387807D01*
X637789939Y-34184724D01*
X637781913Y-34098113D01*
X637771121Y-33981641D01*
X637758121Y-33935953D01*
X637715306Y-33785474D01*
X637708434Y-33771674D01*
X637626903Y-33607936D01*
X637624397Y-33602903D01*
X637501488Y-33440145D01*
X637501486Y-33440142D01*
X637350765Y-33302743D01*
X637350763Y-33302741D01*
X637177366Y-33195379D01*
X637177359Y-33195375D01*
X637082270Y-33158538D01*
X636987180Y-33121700D01*
X636786700Y-33084224D01*
X636582748Y-33084224D01*
X636382268Y-33121700D01*
X636382265Y-33121700D01*
X636382265Y-33121701D01*
X636192088Y-33195375D01*
X636192081Y-33195379D01*
X636018684Y-33302741D01*
X636018682Y-33302743D01*
X635867961Y-33440142D01*
X635745051Y-33602902D01*
X635654146Y-33785463D01*
X635654141Y-33785476D01*
X635633886Y-33856665D01*
X635596606Y-33915758D01*
X635533296Y-33945315D01*
X635464057Y-33935953D01*
X635410871Y-33890642D01*
X635396689Y-33861048D01*
X635395265Y-33856665D01*
X635364597Y-33762279D01*
X635285956Y-33607936D01*
X635184138Y-33467796D01*
X635061652Y-33345310D01*
X634921512Y-33243492D01*
X634767169Y-33164851D01*
X634602425Y-33111322D01*
X634602423Y-33111321D01*
X634602422Y-33111321D01*
X634470995Y-33090505D01*
X634431335Y-33084224D01*
X633858113Y-33084224D01*
X633818452Y-33090505D01*
X633687026Y-33111321D01*
X633522276Y-33164852D01*
X633367935Y-33243492D01*
X633287980Y-33301583D01*
X633227796Y-33345310D01*
X633227794Y-33345312D01*
X633227793Y-33345312D01*
X633105312Y-33467793D01*
X633105312Y-33467794D01*
X633105310Y-33467796D01*
X633061583Y-33527980D01*
X633003492Y-33607935D01*
X632924852Y-33762276D01*
X632871321Y-33927026D01*
X632844224Y-34098113D01*
X630551913Y-34098113D01*
X630541121Y-33981641D01*
X630528121Y-33935953D01*
X630485306Y-33785474D01*
X630478434Y-33771674D01*
X630396903Y-33607936D01*
X630394397Y-33602903D01*
X630271488Y-33440145D01*
X630271486Y-33440142D01*
X630120765Y-33302743D01*
X630120763Y-33302741D01*
X629947366Y-33195379D01*
X629947359Y-33195375D01*
X629852270Y-33158538D01*
X629757180Y-33121700D01*
X629556700Y-33084224D01*
X629352748Y-33084224D01*
X629152268Y-33121700D01*
X629152265Y-33121700D01*
X629152265Y-33121701D01*
X628962088Y-33195375D01*
X628962081Y-33195379D01*
X628788684Y-33302741D01*
X628788682Y-33302743D01*
X628637961Y-33440142D01*
X628515051Y-33602902D01*
X628424146Y-33785463D01*
X628424141Y-33785476D01*
X628403886Y-33856665D01*
X628366606Y-33915758D01*
X628303296Y-33945315D01*
X628234057Y-33935953D01*
X628180871Y-33890642D01*
X628166689Y-33861048D01*
X628165265Y-33856665D01*
X628134597Y-33762279D01*
X628055956Y-33607936D01*
X627954138Y-33467796D01*
X627831652Y-33345310D01*
X627691512Y-33243492D01*
X627537169Y-33164851D01*
X627372425Y-33111322D01*
X627372423Y-33111321D01*
X627372422Y-33111321D01*
X627240995Y-33090505D01*
X627201335Y-33084224D01*
X626628113Y-33084224D01*
X626588452Y-33090505D01*
X626457026Y-33111321D01*
X626292276Y-33164852D01*
X626137935Y-33243492D01*
X626057980Y-33301583D01*
X625997796Y-33345310D01*
X625997794Y-33345312D01*
X625997793Y-33345312D01*
X625875312Y-33467793D01*
X625875312Y-33467794D01*
X625875310Y-33467796D01*
X625831583Y-33527980D01*
X625773492Y-33607935D01*
X625694852Y-33762276D01*
X625641321Y-33927026D01*
X625614224Y-34098113D01*
X625614224Y-34271335D01*
X625614223Y-34271335D01*
X625631834Y-34382524D01*
X625622879Y-34451817D01*
X625577883Y-34505269D01*
X625511131Y-34525908D01*
X625443817Y-34507183D01*
X625421680Y-34489602D01*
X625302262Y-34370184D01*
X625149523Y-34274211D01*
X624979254Y-34214631D01*
X624979249Y-34214630D01*
X624800004Y-34194435D01*
X624799996Y-34194435D01*
X624620750Y-34214630D01*
X624620745Y-34214631D01*
X624540983Y-34242542D01*
X624500028Y-34249500D01*
X620499972Y-34249500D01*
X620459017Y-34242542D01*
X620379254Y-34214631D01*
X620379249Y-34214630D01*
X620200004Y-34194435D01*
X620199996Y-34194435D01*
X620020750Y-34214630D01*
X620020745Y-34214631D01*
X619850476Y-34274211D01*
X619697737Y-34370184D01*
X619570184Y-34497737D01*
X619474211Y-34650476D01*
X619414631Y-34820745D01*
X619414630Y-34820750D01*
X619394435Y-34999996D01*
X607500500Y-34999996D01*
X607500500Y-27624500D01*
X607520185Y-27557461D01*
X607572989Y-27511706D01*
X607624500Y-27500500D01*
X648375500Y-27500500D01*
X648442539Y-27520185D01*
G37*
%TD.AperFunction*%
%TD*%
M02*
