%TF.GenerationSoftware,KiCad,Pcbnew,8.0.8*%
%TF.CreationDate,2025-02-06T15:12:19+01:00*%
%TF.ProjectId,mini-laser-driver,6d696e69-2d6c-4617-9365-722d64726976,rev?*%
%TF.SameCoordinates,Original*%
%TF.FileFunction,Drillmap*%
%TF.FilePolarity,Positive*%
%FSLAX45Y45*%
G04 Gerber Fmt 4.5, Leading zero omitted, Abs format (unit mm)*
G04 Created by KiCad (PCBNEW 8.0.8) date 2025-02-06 15:12:19*
%MOMM*%
%LPD*%
G01*
G04 APERTURE LIST*
%ADD10C,0.050000*%
%ADD11C,0.200000*%
%ADD12C,0.100000*%
G04 APERTURE END LIST*
D10*
X60700000Y-2700000D02*
X64900000Y-2700000D01*
X64900000Y-5400000D01*
X60700000Y-5400000D01*
X60700000Y-2700000D01*
D11*
D12*
X60785000Y-2785000D02*
X60815000Y-2815000D01*
X60815000Y-2785000D02*
X60785000Y-2815000D01*
X60785000Y-3085000D02*
X60815000Y-3115000D01*
X60815000Y-3085000D02*
X60785000Y-3115000D01*
X60785000Y-3385000D02*
X60815000Y-3415000D01*
X60815000Y-3385000D02*
X60785000Y-3415000D01*
X60785000Y-3685000D02*
X60815000Y-3715000D01*
X60815000Y-3685000D02*
X60785000Y-3715000D01*
X60785000Y-3985000D02*
X60815000Y-4015000D01*
X60815000Y-3985000D02*
X60785000Y-4015000D01*
X60785000Y-4285000D02*
X60815000Y-4315000D01*
X60815000Y-4285000D02*
X60785000Y-4315000D01*
X60785000Y-4585000D02*
X60815000Y-4615000D01*
X60815000Y-4585000D02*
X60785000Y-4615000D01*
X60785000Y-4885000D02*
X60815000Y-4915000D01*
X60815000Y-4885000D02*
X60785000Y-4915000D01*
X60785000Y-5185000D02*
X60815000Y-5215000D01*
X60815000Y-5185000D02*
X60785000Y-5215000D01*
X60885000Y-5285000D02*
X60915000Y-5315000D01*
X60915000Y-5285000D02*
X60885000Y-5315000D01*
X60985000Y-3085000D02*
X61015000Y-3115000D01*
X61015000Y-3085000D02*
X60985000Y-3115000D01*
X61085000Y-2785000D02*
X61115000Y-2815000D01*
X61115000Y-2785000D02*
X61085000Y-2815000D01*
X61085000Y-3285000D02*
X61115000Y-3315000D01*
X61115000Y-3285000D02*
X61085000Y-3315000D01*
X61185000Y-4985000D02*
X61215000Y-5015000D01*
X61215000Y-4985000D02*
X61185000Y-5015000D01*
X61185000Y-5285000D02*
X61215000Y-5315000D01*
X61215000Y-5285000D02*
X61185000Y-5315000D01*
X61285000Y-3085000D02*
X61315000Y-3115000D01*
X61315000Y-3085000D02*
X61285000Y-3115000D01*
X61360000Y-4185000D02*
X61390000Y-4215000D01*
X61390000Y-4185000D02*
X61360000Y-4215000D01*
X61385000Y-2785000D02*
X61415000Y-2815000D01*
X61415000Y-2785000D02*
X61385000Y-2815000D01*
X61385000Y-3285000D02*
X61415000Y-3315000D01*
X61415000Y-3285000D02*
X61385000Y-3315000D01*
X61485000Y-4985000D02*
X61515000Y-5015000D01*
X61515000Y-4985000D02*
X61485000Y-5015000D01*
X61485000Y-5285000D02*
X61515000Y-5315000D01*
X61515000Y-5285000D02*
X61485000Y-5315000D01*
X61585000Y-3085000D02*
X61615000Y-3115000D01*
X61615000Y-3085000D02*
X61585000Y-3115000D01*
X61585000Y-4185000D02*
X61615000Y-4215000D01*
X61615000Y-4185000D02*
X61585000Y-4215000D01*
X61685000Y-2785000D02*
X61715000Y-2815000D01*
X61715000Y-2785000D02*
X61685000Y-2815000D01*
X61685000Y-3285000D02*
X61715000Y-3315000D01*
X61715000Y-3285000D02*
X61685000Y-3315000D01*
X61785000Y-4185000D02*
X61815000Y-4215000D01*
X61815000Y-4185000D02*
X61785000Y-4215000D01*
X61785000Y-4385000D02*
X61815000Y-4415000D01*
X61815000Y-4385000D02*
X61785000Y-4415000D01*
X61785000Y-4585000D02*
X61815000Y-4615000D01*
X61815000Y-4585000D02*
X61785000Y-4615000D01*
X61785000Y-4835000D02*
X61815000Y-4865000D01*
X61815000Y-4835000D02*
X61785000Y-4865000D01*
X61785000Y-5285000D02*
X61815000Y-5315000D01*
X61815000Y-5285000D02*
X61785000Y-5315000D01*
X61885000Y-3885000D02*
X61915000Y-3915000D01*
X61915000Y-3885000D02*
X61885000Y-3915000D01*
X61885000Y-4085000D02*
X61915000Y-4115000D01*
X61915000Y-4085000D02*
X61885000Y-4115000D01*
X61985000Y-2785000D02*
X62015000Y-2815000D01*
X62015000Y-2785000D02*
X61985000Y-2815000D01*
X62005000Y-3485000D02*
X62035000Y-3515000D01*
X62035000Y-3485000D02*
X62005000Y-3515000D01*
X62085000Y-5285000D02*
X62115000Y-5315000D01*
X62115000Y-5285000D02*
X62085000Y-5315000D01*
X62285000Y-2785000D02*
X62315000Y-2815000D01*
X62315000Y-2785000D02*
X62285000Y-2815000D01*
X62385000Y-5285000D02*
X62415000Y-5315000D01*
X62415000Y-5285000D02*
X62385000Y-5315000D01*
X62465000Y-3485000D02*
X62495000Y-3515000D01*
X62495000Y-3485000D02*
X62465000Y-3515000D01*
X62575500Y-4825500D02*
X62605500Y-4855500D01*
X62605500Y-4825500D02*
X62575500Y-4855500D01*
X62585000Y-2785000D02*
X62615000Y-2815000D01*
X62615000Y-2785000D02*
X62585000Y-2815000D01*
X62585000Y-3785000D02*
X62615000Y-3815000D01*
X62615000Y-3785000D02*
X62585000Y-3815000D01*
X62685000Y-5285000D02*
X62715000Y-5315000D01*
X62715000Y-5285000D02*
X62685000Y-5315000D01*
X62860000Y-3135000D02*
X62890000Y-3165000D01*
X62890000Y-3135000D02*
X62860000Y-3165000D01*
X62885000Y-2785000D02*
X62915000Y-2815000D01*
X62915000Y-2785000D02*
X62885000Y-2815000D01*
X62885000Y-3785000D02*
X62915000Y-3815000D01*
X62915000Y-3785000D02*
X62885000Y-3815000D01*
X62935000Y-3260000D02*
X62965000Y-3290000D01*
X62965000Y-3260000D02*
X62935000Y-3290000D01*
X62985000Y-5285000D02*
X63015000Y-5315000D01*
X63015000Y-5285000D02*
X62985000Y-5315000D01*
X63085000Y-3135000D02*
X63115000Y-3165000D01*
X63115000Y-3135000D02*
X63085000Y-3165000D01*
X63135000Y-3260000D02*
X63165000Y-3290000D01*
X63165000Y-3260000D02*
X63135000Y-3290000D01*
X63185000Y-2785000D02*
X63215000Y-2815000D01*
X63215000Y-2785000D02*
X63185000Y-2815000D01*
X63185000Y-3785000D02*
X63215000Y-3815000D01*
X63215000Y-3785000D02*
X63185000Y-3815000D01*
X63285000Y-5285000D02*
X63315000Y-5315000D01*
X63315000Y-5285000D02*
X63285000Y-5315000D01*
X63310000Y-3135000D02*
X63340000Y-3165000D01*
X63340000Y-3135000D02*
X63310000Y-3165000D01*
X63385000Y-3260000D02*
X63415000Y-3290000D01*
X63415000Y-3260000D02*
X63385000Y-3290000D01*
X63485000Y-2785000D02*
X63515000Y-2815000D01*
X63515000Y-2785000D02*
X63485000Y-2815000D01*
X63485000Y-3785000D02*
X63515000Y-3815000D01*
X63515000Y-3785000D02*
X63485000Y-3815000D01*
X63525000Y-4176250D02*
X63555000Y-4206250D01*
X63555000Y-4176250D02*
X63525000Y-4206250D01*
X63535000Y-3135000D02*
X63565000Y-3165000D01*
X63565000Y-3135000D02*
X63535000Y-3165000D01*
X63585000Y-5285000D02*
X63615000Y-5315000D01*
X63615000Y-5285000D02*
X63585000Y-5315000D01*
X63610000Y-3260000D02*
X63640000Y-3290000D01*
X63640000Y-3260000D02*
X63610000Y-3290000D01*
X63675000Y-5025000D02*
X63705000Y-5055000D01*
X63705000Y-5025000D02*
X63675000Y-5055000D01*
X63685000Y-3610000D02*
X63715000Y-3640000D01*
X63715000Y-3610000D02*
X63685000Y-3640000D01*
X63685000Y-4545000D02*
X63715000Y-4575000D01*
X63715000Y-4545000D02*
X63685000Y-4575000D01*
X63760000Y-3135000D02*
X63790000Y-3165000D01*
X63790000Y-3135000D02*
X63760000Y-3165000D01*
X63785000Y-2785000D02*
X63815000Y-2815000D01*
X63815000Y-2785000D02*
X63785000Y-2815000D01*
X63785000Y-3785000D02*
X63815000Y-3815000D01*
X63815000Y-3785000D02*
X63785000Y-3815000D01*
X63885000Y-5285000D02*
X63915000Y-5315000D01*
X63915000Y-5285000D02*
X63885000Y-5315000D01*
X63895000Y-5025000D02*
X63925000Y-5055000D01*
X63925000Y-5025000D02*
X63895000Y-5055000D01*
X63960000Y-3610000D02*
X63990000Y-3640000D01*
X63990000Y-3610000D02*
X63960000Y-3640000D01*
X64064633Y-4232500D02*
X64094633Y-4262500D01*
X64094633Y-4232500D02*
X64064633Y-4262500D01*
X64085000Y-2785000D02*
X64115000Y-2815000D01*
X64115000Y-2785000D02*
X64085000Y-2815000D01*
X64185000Y-5285000D02*
X64215000Y-5315000D01*
X64215000Y-5285000D02*
X64185000Y-5315000D01*
X64385000Y-2785000D02*
X64415000Y-2815000D01*
X64415000Y-2785000D02*
X64385000Y-2815000D01*
X64385000Y-3285000D02*
X64415000Y-3315000D01*
X64415000Y-3285000D02*
X64385000Y-3315000D01*
X64385000Y-3585000D02*
X64415000Y-3615000D01*
X64415000Y-3585000D02*
X64385000Y-3615000D01*
X64385000Y-3885000D02*
X64415000Y-3915000D01*
X64415000Y-3885000D02*
X64385000Y-3915000D01*
X64455000Y-4048750D02*
X64485000Y-4078750D01*
X64485000Y-4048750D02*
X64455000Y-4078750D01*
X64485000Y-5285000D02*
X64515000Y-5315000D01*
X64515000Y-5285000D02*
X64485000Y-5315000D01*
X64585000Y-4585000D02*
X64615000Y-4615000D01*
X64615000Y-4585000D02*
X64585000Y-4615000D01*
X64585000Y-4885000D02*
X64615000Y-4915000D01*
X64615000Y-4885000D02*
X64585000Y-4915000D01*
X64685000Y-2785000D02*
X64715000Y-2815000D01*
X64715000Y-2785000D02*
X64685000Y-2815000D01*
X64785000Y-2885000D02*
X64815000Y-2915000D01*
X64815000Y-2885000D02*
X64785000Y-2915000D01*
X64785000Y-3185000D02*
X64815000Y-3215000D01*
X64815000Y-3185000D02*
X64785000Y-3215000D01*
X64785000Y-3485000D02*
X64815000Y-3515000D01*
X64815000Y-3485000D02*
X64785000Y-3515000D01*
X64785000Y-3785000D02*
X64815000Y-3815000D01*
X64815000Y-3785000D02*
X64785000Y-3815000D01*
X64785000Y-4085000D02*
X64815000Y-4115000D01*
X64815000Y-4085000D02*
X64785000Y-4115000D01*
X64785000Y-4385000D02*
X64815000Y-4415000D01*
X64815000Y-4385000D02*
X64785000Y-4415000D01*
X64785000Y-4685000D02*
X64815000Y-4715000D01*
X64815000Y-4685000D02*
X64785000Y-4715000D01*
X64785000Y-4985000D02*
X64815000Y-5015000D01*
X64815000Y-4985000D02*
X64785000Y-5015000D01*
X64785000Y-5285000D02*
X64815000Y-5315000D01*
X64815000Y-5285000D02*
X64785000Y-5315000D01*
X61655000Y-3650000D02*
G75*
G02*
X61595000Y-3650000I-30000J0D01*
G01*
X61595000Y-3650000D02*
G75*
G02*
X61655000Y-3650000I30000J0D01*
G01*
X61655000Y-3850000D02*
G75*
G02*
X61595000Y-3850000I-30000J0D01*
G01*
X61595000Y-3850000D02*
G75*
G02*
X61655000Y-3850000I30000J0D01*
G01*
X62691472Y-3383472D02*
X62691472Y-3453472D01*
X62656472Y-3418472D02*
X62726472Y-3418472D01*
X62818472Y-3510472D02*
X62818472Y-3580472D01*
X62783472Y-3545472D02*
X62853472Y-3545472D01*
X62945472Y-3383472D02*
X62945472Y-3453472D01*
X62910472Y-3418472D02*
X62980472Y-3418472D01*
X63414472Y-3383472D02*
X63414472Y-3453472D01*
X63379472Y-3418472D02*
X63449472Y-3418472D01*
X63541472Y-3510472D02*
X63541472Y-3580472D01*
X63506472Y-3545472D02*
X63576472Y-3545472D01*
X63668472Y-3383472D02*
X63668472Y-3453472D01*
X63633472Y-3418472D02*
X63703472Y-3418472D01*
X62278284Y-4378285D02*
X62278284Y-4321716D01*
X62221715Y-4321716D01*
X62221715Y-4378285D01*
X62278284Y-4378285D01*
X62278284Y-4632285D02*
X62278284Y-4575716D01*
X62221715Y-4575716D01*
X62221715Y-4632285D01*
X62278284Y-4632285D01*
X62278284Y-4886285D02*
X62278284Y-4829716D01*
X62221715Y-4829716D01*
X62221715Y-4886285D01*
X62278284Y-4886285D01*
X61100000Y-3717500D02*
X61150000Y-3667500D01*
X61100000Y-3617500D01*
X61050000Y-3667500D01*
X61100000Y-3717500D01*
X61100000Y-3971500D02*
X61150000Y-3921500D01*
X61100000Y-3871500D01*
X61050000Y-3921500D01*
X61100000Y-3971500D01*
X61100000Y-4225500D02*
X61150000Y-4175500D01*
X61100000Y-4125500D01*
X61050000Y-4175500D01*
X61100000Y-4225500D01*
X61100000Y-4479500D02*
X61150000Y-4429500D01*
X61100000Y-4379500D01*
X61050000Y-4429500D01*
X61100000Y-4479500D01*
X61100000Y-4733500D02*
X61150000Y-4683500D01*
X61100000Y-4633500D01*
X61050000Y-4683500D01*
X61100000Y-4733500D01*
X64100000Y-3272500D02*
X64150000Y-3222500D01*
X64100000Y-3172500D01*
X64050000Y-3222500D01*
X64100000Y-3272500D01*
X64100000Y-3526500D02*
X64150000Y-3476500D01*
X64100000Y-3426500D01*
X64050000Y-3476500D01*
X64100000Y-3526500D01*
X64260000Y-4702500D02*
X64310000Y-4652500D01*
X64260000Y-4602500D01*
X64210000Y-4652500D01*
X64260000Y-4702500D01*
X64260000Y-4956500D02*
X64310000Y-4906500D01*
X64260000Y-4856500D01*
X64210000Y-4906500D01*
X64260000Y-4956500D01*
D11*
X60958277Y-5713984D02*
X60958277Y-5513984D01*
X60958277Y-5513984D02*
X61005896Y-5513984D01*
X61005896Y-5513984D02*
X61034467Y-5523508D01*
X61034467Y-5523508D02*
X61053515Y-5542555D01*
X61053515Y-5542555D02*
X61063039Y-5561603D01*
X61063039Y-5561603D02*
X61072562Y-5599698D01*
X61072562Y-5599698D02*
X61072562Y-5628269D01*
X61072562Y-5628269D02*
X61063039Y-5666365D01*
X61063039Y-5666365D02*
X61053515Y-5685412D01*
X61053515Y-5685412D02*
X61034467Y-5704460D01*
X61034467Y-5704460D02*
X61005896Y-5713984D01*
X61005896Y-5713984D02*
X60958277Y-5713984D01*
X61158277Y-5713984D02*
X61158277Y-5580650D01*
X61158277Y-5618746D02*
X61167801Y-5599698D01*
X61167801Y-5599698D02*
X61177324Y-5590174D01*
X61177324Y-5590174D02*
X61196372Y-5580650D01*
X61196372Y-5580650D02*
X61215420Y-5580650D01*
X61282086Y-5713984D02*
X61282086Y-5580650D01*
X61282086Y-5513984D02*
X61272562Y-5523508D01*
X61272562Y-5523508D02*
X61282086Y-5533031D01*
X61282086Y-5533031D02*
X61291610Y-5523508D01*
X61291610Y-5523508D02*
X61282086Y-5513984D01*
X61282086Y-5513984D02*
X61282086Y-5533031D01*
X61405896Y-5713984D02*
X61386848Y-5704460D01*
X61386848Y-5704460D02*
X61377324Y-5685412D01*
X61377324Y-5685412D02*
X61377324Y-5513984D01*
X61510658Y-5713984D02*
X61491610Y-5704460D01*
X61491610Y-5704460D02*
X61482086Y-5685412D01*
X61482086Y-5685412D02*
X61482086Y-5513984D01*
X61739229Y-5713984D02*
X61739229Y-5513984D01*
X61739229Y-5513984D02*
X61805896Y-5656841D01*
X61805896Y-5656841D02*
X61872562Y-5513984D01*
X61872562Y-5513984D02*
X61872562Y-5713984D01*
X62053515Y-5713984D02*
X62053515Y-5609222D01*
X62053515Y-5609222D02*
X62043991Y-5590174D01*
X62043991Y-5590174D02*
X62024943Y-5580650D01*
X62024943Y-5580650D02*
X61986848Y-5580650D01*
X61986848Y-5580650D02*
X61967801Y-5590174D01*
X62053515Y-5704460D02*
X62034467Y-5713984D01*
X62034467Y-5713984D02*
X61986848Y-5713984D01*
X61986848Y-5713984D02*
X61967801Y-5704460D01*
X61967801Y-5704460D02*
X61958277Y-5685412D01*
X61958277Y-5685412D02*
X61958277Y-5666365D01*
X61958277Y-5666365D02*
X61967801Y-5647317D01*
X61967801Y-5647317D02*
X61986848Y-5637793D01*
X61986848Y-5637793D02*
X62034467Y-5637793D01*
X62034467Y-5637793D02*
X62053515Y-5628269D01*
X62148753Y-5580650D02*
X62148753Y-5780650D01*
X62148753Y-5590174D02*
X62167801Y-5580650D01*
X62167801Y-5580650D02*
X62205896Y-5580650D01*
X62205896Y-5580650D02*
X62224943Y-5590174D01*
X62224943Y-5590174D02*
X62234467Y-5599698D01*
X62234467Y-5599698D02*
X62243991Y-5618746D01*
X62243991Y-5618746D02*
X62243991Y-5675888D01*
X62243991Y-5675888D02*
X62234467Y-5694936D01*
X62234467Y-5694936D02*
X62224943Y-5704460D01*
X62224943Y-5704460D02*
X62205896Y-5713984D01*
X62205896Y-5713984D02*
X62167801Y-5713984D01*
X62167801Y-5713984D02*
X62148753Y-5704460D01*
X62329705Y-5694936D02*
X62339229Y-5704460D01*
X62339229Y-5704460D02*
X62329705Y-5713984D01*
X62329705Y-5713984D02*
X62320182Y-5704460D01*
X62320182Y-5704460D02*
X62329705Y-5694936D01*
X62329705Y-5694936D02*
X62329705Y-5713984D01*
X62329705Y-5590174D02*
X62339229Y-5599698D01*
X62339229Y-5599698D02*
X62329705Y-5609222D01*
X62329705Y-5609222D02*
X62320182Y-5599698D01*
X62320182Y-5599698D02*
X62329705Y-5590174D01*
X62329705Y-5590174D02*
X62329705Y-5609222D01*
D12*
X60667500Y-6027500D02*
X60697500Y-6057500D01*
X60697500Y-6027500D02*
X60667500Y-6057500D01*
D11*
X60996372Y-5933984D02*
X61015420Y-5933984D01*
X61015420Y-5933984D02*
X61034467Y-5943508D01*
X61034467Y-5943508D02*
X61043991Y-5953031D01*
X61043991Y-5953031D02*
X61053515Y-5972079D01*
X61053515Y-5972079D02*
X61063039Y-6010174D01*
X61063039Y-6010174D02*
X61063039Y-6057793D01*
X61063039Y-6057793D02*
X61053515Y-6095888D01*
X61053515Y-6095888D02*
X61043991Y-6114936D01*
X61043991Y-6114936D02*
X61034467Y-6124460D01*
X61034467Y-6124460D02*
X61015420Y-6133984D01*
X61015420Y-6133984D02*
X60996372Y-6133984D01*
X60996372Y-6133984D02*
X60977324Y-6124460D01*
X60977324Y-6124460D02*
X60967801Y-6114936D01*
X60967801Y-6114936D02*
X60958277Y-6095888D01*
X60958277Y-6095888D02*
X60948753Y-6057793D01*
X60948753Y-6057793D02*
X60948753Y-6010174D01*
X60948753Y-6010174D02*
X60958277Y-5972079D01*
X60958277Y-5972079D02*
X60967801Y-5953031D01*
X60967801Y-5953031D02*
X60977324Y-5943508D01*
X60977324Y-5943508D02*
X60996372Y-5933984D01*
X61148753Y-6114936D02*
X61158277Y-6124460D01*
X61158277Y-6124460D02*
X61148753Y-6133984D01*
X61148753Y-6133984D02*
X61139229Y-6124460D01*
X61139229Y-6124460D02*
X61148753Y-6114936D01*
X61148753Y-6114936D02*
X61148753Y-6133984D01*
X61224943Y-5933984D02*
X61348753Y-5933984D01*
X61348753Y-5933984D02*
X61282086Y-6010174D01*
X61282086Y-6010174D02*
X61310658Y-6010174D01*
X61310658Y-6010174D02*
X61329705Y-6019698D01*
X61329705Y-6019698D02*
X61339229Y-6029222D01*
X61339229Y-6029222D02*
X61348753Y-6048269D01*
X61348753Y-6048269D02*
X61348753Y-6095888D01*
X61348753Y-6095888D02*
X61339229Y-6114936D01*
X61339229Y-6114936D02*
X61329705Y-6124460D01*
X61329705Y-6124460D02*
X61310658Y-6133984D01*
X61310658Y-6133984D02*
X61253515Y-6133984D01*
X61253515Y-6133984D02*
X61234467Y-6124460D01*
X61234467Y-6124460D02*
X61224943Y-6114936D01*
X61472562Y-5933984D02*
X61491610Y-5933984D01*
X61491610Y-5933984D02*
X61510658Y-5943508D01*
X61510658Y-5943508D02*
X61520182Y-5953031D01*
X61520182Y-5953031D02*
X61529705Y-5972079D01*
X61529705Y-5972079D02*
X61539229Y-6010174D01*
X61539229Y-6010174D02*
X61539229Y-6057793D01*
X61539229Y-6057793D02*
X61529705Y-6095888D01*
X61529705Y-6095888D02*
X61520182Y-6114936D01*
X61520182Y-6114936D02*
X61510658Y-6124460D01*
X61510658Y-6124460D02*
X61491610Y-6133984D01*
X61491610Y-6133984D02*
X61472562Y-6133984D01*
X61472562Y-6133984D02*
X61453515Y-6124460D01*
X61453515Y-6124460D02*
X61443991Y-6114936D01*
X61443991Y-6114936D02*
X61434467Y-6095888D01*
X61434467Y-6095888D02*
X61424943Y-6057793D01*
X61424943Y-6057793D02*
X61424943Y-6010174D01*
X61424943Y-6010174D02*
X61434467Y-5972079D01*
X61434467Y-5972079D02*
X61443991Y-5953031D01*
X61443991Y-5953031D02*
X61453515Y-5943508D01*
X61453515Y-5943508D02*
X61472562Y-5933984D01*
X61663039Y-5933984D02*
X61682086Y-5933984D01*
X61682086Y-5933984D02*
X61701134Y-5943508D01*
X61701134Y-5943508D02*
X61710658Y-5953031D01*
X61710658Y-5953031D02*
X61720182Y-5972079D01*
X61720182Y-5972079D02*
X61729705Y-6010174D01*
X61729705Y-6010174D02*
X61729705Y-6057793D01*
X61729705Y-6057793D02*
X61720182Y-6095888D01*
X61720182Y-6095888D02*
X61710658Y-6114936D01*
X61710658Y-6114936D02*
X61701134Y-6124460D01*
X61701134Y-6124460D02*
X61682086Y-6133984D01*
X61682086Y-6133984D02*
X61663039Y-6133984D01*
X61663039Y-6133984D02*
X61643991Y-6124460D01*
X61643991Y-6124460D02*
X61634467Y-6114936D01*
X61634467Y-6114936D02*
X61624943Y-6095888D01*
X61624943Y-6095888D02*
X61615420Y-6057793D01*
X61615420Y-6057793D02*
X61615420Y-6010174D01*
X61615420Y-6010174D02*
X61624943Y-5972079D01*
X61624943Y-5972079D02*
X61634467Y-5953031D01*
X61634467Y-5953031D02*
X61643991Y-5943508D01*
X61643991Y-5943508D02*
X61663039Y-5933984D01*
X61815420Y-6133984D02*
X61815420Y-6000650D01*
X61815420Y-6019698D02*
X61824943Y-6010174D01*
X61824943Y-6010174D02*
X61843991Y-6000650D01*
X61843991Y-6000650D02*
X61872563Y-6000650D01*
X61872563Y-6000650D02*
X61891610Y-6010174D01*
X61891610Y-6010174D02*
X61901134Y-6029222D01*
X61901134Y-6029222D02*
X61901134Y-6133984D01*
X61901134Y-6029222D02*
X61910658Y-6010174D01*
X61910658Y-6010174D02*
X61929705Y-6000650D01*
X61929705Y-6000650D02*
X61958277Y-6000650D01*
X61958277Y-6000650D02*
X61977324Y-6010174D01*
X61977324Y-6010174D02*
X61986848Y-6029222D01*
X61986848Y-6029222D02*
X61986848Y-6133984D01*
X62082086Y-6133984D02*
X62082086Y-6000650D01*
X62082086Y-6019698D02*
X62091610Y-6010174D01*
X62091610Y-6010174D02*
X62110658Y-6000650D01*
X62110658Y-6000650D02*
X62139229Y-6000650D01*
X62139229Y-6000650D02*
X62158277Y-6010174D01*
X62158277Y-6010174D02*
X62167801Y-6029222D01*
X62167801Y-6029222D02*
X62167801Y-6133984D01*
X62167801Y-6029222D02*
X62177324Y-6010174D01*
X62177324Y-6010174D02*
X62196372Y-6000650D01*
X62196372Y-6000650D02*
X62224943Y-6000650D01*
X62224943Y-6000650D02*
X62243991Y-6010174D01*
X62243991Y-6010174D02*
X62253515Y-6029222D01*
X62253515Y-6029222D02*
X62253515Y-6133984D01*
X62643991Y-5924460D02*
X62472563Y-6181603D01*
X62901134Y-5933984D02*
X62920182Y-5933984D01*
X62920182Y-5933984D02*
X62939229Y-5943508D01*
X62939229Y-5943508D02*
X62948753Y-5953031D01*
X62948753Y-5953031D02*
X62958277Y-5972079D01*
X62958277Y-5972079D02*
X62967801Y-6010174D01*
X62967801Y-6010174D02*
X62967801Y-6057793D01*
X62967801Y-6057793D02*
X62958277Y-6095888D01*
X62958277Y-6095888D02*
X62948753Y-6114936D01*
X62948753Y-6114936D02*
X62939229Y-6124460D01*
X62939229Y-6124460D02*
X62920182Y-6133984D01*
X62920182Y-6133984D02*
X62901134Y-6133984D01*
X62901134Y-6133984D02*
X62882086Y-6124460D01*
X62882086Y-6124460D02*
X62872563Y-6114936D01*
X62872563Y-6114936D02*
X62863039Y-6095888D01*
X62863039Y-6095888D02*
X62853515Y-6057793D01*
X62853515Y-6057793D02*
X62853515Y-6010174D01*
X62853515Y-6010174D02*
X62863039Y-5972079D01*
X62863039Y-5972079D02*
X62872563Y-5953031D01*
X62872563Y-5953031D02*
X62882086Y-5943508D01*
X62882086Y-5943508D02*
X62901134Y-5933984D01*
X63053515Y-6114936D02*
X63063039Y-6124460D01*
X63063039Y-6124460D02*
X63053515Y-6133984D01*
X63053515Y-6133984D02*
X63043991Y-6124460D01*
X63043991Y-6124460D02*
X63053515Y-6114936D01*
X63053515Y-6114936D02*
X63053515Y-6133984D01*
X63186848Y-5933984D02*
X63205896Y-5933984D01*
X63205896Y-5933984D02*
X63224944Y-5943508D01*
X63224944Y-5943508D02*
X63234467Y-5953031D01*
X63234467Y-5953031D02*
X63243991Y-5972079D01*
X63243991Y-5972079D02*
X63253515Y-6010174D01*
X63253515Y-6010174D02*
X63253515Y-6057793D01*
X63253515Y-6057793D02*
X63243991Y-6095888D01*
X63243991Y-6095888D02*
X63234467Y-6114936D01*
X63234467Y-6114936D02*
X63224944Y-6124460D01*
X63224944Y-6124460D02*
X63205896Y-6133984D01*
X63205896Y-6133984D02*
X63186848Y-6133984D01*
X63186848Y-6133984D02*
X63167801Y-6124460D01*
X63167801Y-6124460D02*
X63158277Y-6114936D01*
X63158277Y-6114936D02*
X63148753Y-6095888D01*
X63148753Y-6095888D02*
X63139229Y-6057793D01*
X63139229Y-6057793D02*
X63139229Y-6010174D01*
X63139229Y-6010174D02*
X63148753Y-5972079D01*
X63148753Y-5972079D02*
X63158277Y-5953031D01*
X63158277Y-5953031D02*
X63167801Y-5943508D01*
X63167801Y-5943508D02*
X63186848Y-5933984D01*
X63443991Y-6133984D02*
X63329706Y-6133984D01*
X63386848Y-6133984D02*
X63386848Y-5933984D01*
X63386848Y-5933984D02*
X63367801Y-5962555D01*
X63367801Y-5962555D02*
X63348753Y-5981603D01*
X63348753Y-5981603D02*
X63329706Y-5991127D01*
X63634467Y-6133984D02*
X63520182Y-6133984D01*
X63577325Y-6133984D02*
X63577325Y-5933984D01*
X63577325Y-5933984D02*
X63558277Y-5962555D01*
X63558277Y-5962555D02*
X63539229Y-5981603D01*
X63539229Y-5981603D02*
X63520182Y-5991127D01*
X63748753Y-6019698D02*
X63729706Y-6010174D01*
X63729706Y-6010174D02*
X63720182Y-6000650D01*
X63720182Y-6000650D02*
X63710658Y-5981603D01*
X63710658Y-5981603D02*
X63710658Y-5972079D01*
X63710658Y-5972079D02*
X63720182Y-5953031D01*
X63720182Y-5953031D02*
X63729706Y-5943508D01*
X63729706Y-5943508D02*
X63748753Y-5933984D01*
X63748753Y-5933984D02*
X63786848Y-5933984D01*
X63786848Y-5933984D02*
X63805896Y-5943508D01*
X63805896Y-5943508D02*
X63815420Y-5953031D01*
X63815420Y-5953031D02*
X63824944Y-5972079D01*
X63824944Y-5972079D02*
X63824944Y-5981603D01*
X63824944Y-5981603D02*
X63815420Y-6000650D01*
X63815420Y-6000650D02*
X63805896Y-6010174D01*
X63805896Y-6010174D02*
X63786848Y-6019698D01*
X63786848Y-6019698D02*
X63748753Y-6019698D01*
X63748753Y-6019698D02*
X63729706Y-6029222D01*
X63729706Y-6029222D02*
X63720182Y-6038746D01*
X63720182Y-6038746D02*
X63710658Y-6057793D01*
X63710658Y-6057793D02*
X63710658Y-6095888D01*
X63710658Y-6095888D02*
X63720182Y-6114936D01*
X63720182Y-6114936D02*
X63729706Y-6124460D01*
X63729706Y-6124460D02*
X63748753Y-6133984D01*
X63748753Y-6133984D02*
X63786848Y-6133984D01*
X63786848Y-6133984D02*
X63805896Y-6124460D01*
X63805896Y-6124460D02*
X63815420Y-6114936D01*
X63815420Y-6114936D02*
X63824944Y-6095888D01*
X63824944Y-6095888D02*
X63824944Y-6057793D01*
X63824944Y-6057793D02*
X63815420Y-6038746D01*
X63815420Y-6038746D02*
X63805896Y-6029222D01*
X63805896Y-6029222D02*
X63786848Y-6019698D01*
X63901134Y-5933984D02*
X63901134Y-5972079D01*
X63977325Y-5933984D02*
X63977325Y-5972079D01*
X64272563Y-6210174D02*
X64263039Y-6200650D01*
X64263039Y-6200650D02*
X64243991Y-6172079D01*
X64243991Y-6172079D02*
X64234468Y-6153031D01*
X64234468Y-6153031D02*
X64224944Y-6124460D01*
X64224944Y-6124460D02*
X64215420Y-6076841D01*
X64215420Y-6076841D02*
X64215420Y-6038746D01*
X64215420Y-6038746D02*
X64224944Y-5991127D01*
X64224944Y-5991127D02*
X64234468Y-5962555D01*
X64234468Y-5962555D02*
X64243991Y-5943508D01*
X64243991Y-5943508D02*
X64263039Y-5914936D01*
X64263039Y-5914936D02*
X64272563Y-5905412D01*
X64358277Y-6133984D02*
X64396372Y-6133984D01*
X64396372Y-6133984D02*
X64415420Y-6124460D01*
X64415420Y-6124460D02*
X64424944Y-6114936D01*
X64424944Y-6114936D02*
X64443991Y-6086365D01*
X64443991Y-6086365D02*
X64453515Y-6048269D01*
X64453515Y-6048269D02*
X64453515Y-5972079D01*
X64453515Y-5972079D02*
X64443991Y-5953031D01*
X64443991Y-5953031D02*
X64434468Y-5943508D01*
X64434468Y-5943508D02*
X64415420Y-5933984D01*
X64415420Y-5933984D02*
X64377325Y-5933984D01*
X64377325Y-5933984D02*
X64358277Y-5943508D01*
X64358277Y-5943508D02*
X64348753Y-5953031D01*
X64348753Y-5953031D02*
X64339229Y-5972079D01*
X64339229Y-5972079D02*
X64339229Y-6019698D01*
X64339229Y-6019698D02*
X64348753Y-6038746D01*
X64348753Y-6038746D02*
X64358277Y-6048269D01*
X64358277Y-6048269D02*
X64377325Y-6057793D01*
X64377325Y-6057793D02*
X64415420Y-6057793D01*
X64415420Y-6057793D02*
X64434468Y-6048269D01*
X64434468Y-6048269D02*
X64443991Y-6038746D01*
X64443991Y-6038746D02*
X64453515Y-6019698D01*
X64577325Y-5933984D02*
X64596372Y-5933984D01*
X64596372Y-5933984D02*
X64615420Y-5943508D01*
X64615420Y-5943508D02*
X64624944Y-5953031D01*
X64624944Y-5953031D02*
X64634468Y-5972079D01*
X64634468Y-5972079D02*
X64643991Y-6010174D01*
X64643991Y-6010174D02*
X64643991Y-6057793D01*
X64643991Y-6057793D02*
X64634468Y-6095888D01*
X64634468Y-6095888D02*
X64624944Y-6114936D01*
X64624944Y-6114936D02*
X64615420Y-6124460D01*
X64615420Y-6124460D02*
X64596372Y-6133984D01*
X64596372Y-6133984D02*
X64577325Y-6133984D01*
X64577325Y-6133984D02*
X64558277Y-6124460D01*
X64558277Y-6124460D02*
X64548753Y-6114936D01*
X64548753Y-6114936D02*
X64539229Y-6095888D01*
X64539229Y-6095888D02*
X64529706Y-6057793D01*
X64529706Y-6057793D02*
X64529706Y-6010174D01*
X64529706Y-6010174D02*
X64539229Y-5972079D01*
X64539229Y-5972079D02*
X64548753Y-5953031D01*
X64548753Y-5953031D02*
X64558277Y-5943508D01*
X64558277Y-5943508D02*
X64577325Y-5933984D01*
X64882087Y-6133984D02*
X64882087Y-5933984D01*
X64967801Y-6133984D02*
X64967801Y-6029222D01*
X64967801Y-6029222D02*
X64958277Y-6010174D01*
X64958277Y-6010174D02*
X64939230Y-6000650D01*
X64939230Y-6000650D02*
X64910658Y-6000650D01*
X64910658Y-6000650D02*
X64891610Y-6010174D01*
X64891610Y-6010174D02*
X64882087Y-6019698D01*
X65091610Y-6133984D02*
X65072563Y-6124460D01*
X65072563Y-6124460D02*
X65063039Y-6114936D01*
X65063039Y-6114936D02*
X65053515Y-6095888D01*
X65053515Y-6095888D02*
X65053515Y-6038746D01*
X65053515Y-6038746D02*
X65063039Y-6019698D01*
X65063039Y-6019698D02*
X65072563Y-6010174D01*
X65072563Y-6010174D02*
X65091610Y-6000650D01*
X65091610Y-6000650D02*
X65120182Y-6000650D01*
X65120182Y-6000650D02*
X65139230Y-6010174D01*
X65139230Y-6010174D02*
X65148753Y-6019698D01*
X65148753Y-6019698D02*
X65158277Y-6038746D01*
X65158277Y-6038746D02*
X65158277Y-6095888D01*
X65158277Y-6095888D02*
X65148753Y-6114936D01*
X65148753Y-6114936D02*
X65139230Y-6124460D01*
X65139230Y-6124460D02*
X65120182Y-6133984D01*
X65120182Y-6133984D02*
X65091610Y-6133984D01*
X65272563Y-6133984D02*
X65253515Y-6124460D01*
X65253515Y-6124460D02*
X65243991Y-6105412D01*
X65243991Y-6105412D02*
X65243991Y-5933984D01*
X65424944Y-6124460D02*
X65405896Y-6133984D01*
X65405896Y-6133984D02*
X65367801Y-6133984D01*
X65367801Y-6133984D02*
X65348753Y-6124460D01*
X65348753Y-6124460D02*
X65339230Y-6105412D01*
X65339230Y-6105412D02*
X65339230Y-6029222D01*
X65339230Y-6029222D02*
X65348753Y-6010174D01*
X65348753Y-6010174D02*
X65367801Y-6000650D01*
X65367801Y-6000650D02*
X65405896Y-6000650D01*
X65405896Y-6000650D02*
X65424944Y-6010174D01*
X65424944Y-6010174D02*
X65434468Y-6029222D01*
X65434468Y-6029222D02*
X65434468Y-6048269D01*
X65434468Y-6048269D02*
X65339230Y-6067317D01*
X65510658Y-6124460D02*
X65529706Y-6133984D01*
X65529706Y-6133984D02*
X65567801Y-6133984D01*
X65567801Y-6133984D02*
X65586849Y-6124460D01*
X65586849Y-6124460D02*
X65596372Y-6105412D01*
X65596372Y-6105412D02*
X65596372Y-6095888D01*
X65596372Y-6095888D02*
X65586849Y-6076841D01*
X65586849Y-6076841D02*
X65567801Y-6067317D01*
X65567801Y-6067317D02*
X65539230Y-6067317D01*
X65539230Y-6067317D02*
X65520182Y-6057793D01*
X65520182Y-6057793D02*
X65510658Y-6038746D01*
X65510658Y-6038746D02*
X65510658Y-6029222D01*
X65510658Y-6029222D02*
X65520182Y-6010174D01*
X65520182Y-6010174D02*
X65539230Y-6000650D01*
X65539230Y-6000650D02*
X65567801Y-6000650D01*
X65567801Y-6000650D02*
X65586849Y-6010174D01*
X65663039Y-6210174D02*
X65672563Y-6200650D01*
X65672563Y-6200650D02*
X65691611Y-6172079D01*
X65691611Y-6172079D02*
X65701134Y-6153031D01*
X65701134Y-6153031D02*
X65710658Y-6124460D01*
X65710658Y-6124460D02*
X65720182Y-6076841D01*
X65720182Y-6076841D02*
X65720182Y-6038746D01*
X65720182Y-6038746D02*
X65710658Y-5991127D01*
X65710658Y-5991127D02*
X65701134Y-5962555D01*
X65701134Y-5962555D02*
X65691611Y-5943508D01*
X65691611Y-5943508D02*
X65672563Y-5914936D01*
X65672563Y-5914936D02*
X65663039Y-5905412D01*
D12*
X60697500Y-6306500D02*
G75*
G02*
X60637500Y-6306500I-30000J0D01*
G01*
X60637500Y-6306500D02*
G75*
G02*
X60697500Y-6306500I30000J0D01*
G01*
D11*
X60996372Y-6197984D02*
X61015420Y-6197984D01*
X61015420Y-6197984D02*
X61034467Y-6207508D01*
X61034467Y-6207508D02*
X61043991Y-6217031D01*
X61043991Y-6217031D02*
X61053515Y-6236079D01*
X61053515Y-6236079D02*
X61063039Y-6274174D01*
X61063039Y-6274174D02*
X61063039Y-6321793D01*
X61063039Y-6321793D02*
X61053515Y-6359888D01*
X61053515Y-6359888D02*
X61043991Y-6378936D01*
X61043991Y-6378936D02*
X61034467Y-6388460D01*
X61034467Y-6388460D02*
X61015420Y-6397984D01*
X61015420Y-6397984D02*
X60996372Y-6397984D01*
X60996372Y-6397984D02*
X60977324Y-6388460D01*
X60977324Y-6388460D02*
X60967801Y-6378936D01*
X60967801Y-6378936D02*
X60958277Y-6359888D01*
X60958277Y-6359888D02*
X60948753Y-6321793D01*
X60948753Y-6321793D02*
X60948753Y-6274174D01*
X60948753Y-6274174D02*
X60958277Y-6236079D01*
X60958277Y-6236079D02*
X60967801Y-6217031D01*
X60967801Y-6217031D02*
X60977324Y-6207508D01*
X60977324Y-6207508D02*
X60996372Y-6197984D01*
X61148753Y-6378936D02*
X61158277Y-6388460D01*
X61158277Y-6388460D02*
X61148753Y-6397984D01*
X61148753Y-6397984D02*
X61139229Y-6388460D01*
X61139229Y-6388460D02*
X61148753Y-6378936D01*
X61148753Y-6378936D02*
X61148753Y-6397984D01*
X61329705Y-6197984D02*
X61291610Y-6197984D01*
X61291610Y-6197984D02*
X61272562Y-6207508D01*
X61272562Y-6207508D02*
X61263039Y-6217031D01*
X61263039Y-6217031D02*
X61243991Y-6245603D01*
X61243991Y-6245603D02*
X61234467Y-6283698D01*
X61234467Y-6283698D02*
X61234467Y-6359888D01*
X61234467Y-6359888D02*
X61243991Y-6378936D01*
X61243991Y-6378936D02*
X61253515Y-6388460D01*
X61253515Y-6388460D02*
X61272562Y-6397984D01*
X61272562Y-6397984D02*
X61310658Y-6397984D01*
X61310658Y-6397984D02*
X61329705Y-6388460D01*
X61329705Y-6388460D02*
X61339229Y-6378936D01*
X61339229Y-6378936D02*
X61348753Y-6359888D01*
X61348753Y-6359888D02*
X61348753Y-6312269D01*
X61348753Y-6312269D02*
X61339229Y-6293222D01*
X61339229Y-6293222D02*
X61329705Y-6283698D01*
X61329705Y-6283698D02*
X61310658Y-6274174D01*
X61310658Y-6274174D02*
X61272562Y-6274174D01*
X61272562Y-6274174D02*
X61253515Y-6283698D01*
X61253515Y-6283698D02*
X61243991Y-6293222D01*
X61243991Y-6293222D02*
X61234467Y-6312269D01*
X61472562Y-6197984D02*
X61491610Y-6197984D01*
X61491610Y-6197984D02*
X61510658Y-6207508D01*
X61510658Y-6207508D02*
X61520182Y-6217031D01*
X61520182Y-6217031D02*
X61529705Y-6236079D01*
X61529705Y-6236079D02*
X61539229Y-6274174D01*
X61539229Y-6274174D02*
X61539229Y-6321793D01*
X61539229Y-6321793D02*
X61529705Y-6359888D01*
X61529705Y-6359888D02*
X61520182Y-6378936D01*
X61520182Y-6378936D02*
X61510658Y-6388460D01*
X61510658Y-6388460D02*
X61491610Y-6397984D01*
X61491610Y-6397984D02*
X61472562Y-6397984D01*
X61472562Y-6397984D02*
X61453515Y-6388460D01*
X61453515Y-6388460D02*
X61443991Y-6378936D01*
X61443991Y-6378936D02*
X61434467Y-6359888D01*
X61434467Y-6359888D02*
X61424943Y-6321793D01*
X61424943Y-6321793D02*
X61424943Y-6274174D01*
X61424943Y-6274174D02*
X61434467Y-6236079D01*
X61434467Y-6236079D02*
X61443991Y-6217031D01*
X61443991Y-6217031D02*
X61453515Y-6207508D01*
X61453515Y-6207508D02*
X61472562Y-6197984D01*
X61663039Y-6197984D02*
X61682086Y-6197984D01*
X61682086Y-6197984D02*
X61701134Y-6207508D01*
X61701134Y-6207508D02*
X61710658Y-6217031D01*
X61710658Y-6217031D02*
X61720182Y-6236079D01*
X61720182Y-6236079D02*
X61729705Y-6274174D01*
X61729705Y-6274174D02*
X61729705Y-6321793D01*
X61729705Y-6321793D02*
X61720182Y-6359888D01*
X61720182Y-6359888D02*
X61710658Y-6378936D01*
X61710658Y-6378936D02*
X61701134Y-6388460D01*
X61701134Y-6388460D02*
X61682086Y-6397984D01*
X61682086Y-6397984D02*
X61663039Y-6397984D01*
X61663039Y-6397984D02*
X61643991Y-6388460D01*
X61643991Y-6388460D02*
X61634467Y-6378936D01*
X61634467Y-6378936D02*
X61624943Y-6359888D01*
X61624943Y-6359888D02*
X61615420Y-6321793D01*
X61615420Y-6321793D02*
X61615420Y-6274174D01*
X61615420Y-6274174D02*
X61624943Y-6236079D01*
X61624943Y-6236079D02*
X61634467Y-6217031D01*
X61634467Y-6217031D02*
X61643991Y-6207508D01*
X61643991Y-6207508D02*
X61663039Y-6197984D01*
X61815420Y-6397984D02*
X61815420Y-6264650D01*
X61815420Y-6283698D02*
X61824943Y-6274174D01*
X61824943Y-6274174D02*
X61843991Y-6264650D01*
X61843991Y-6264650D02*
X61872563Y-6264650D01*
X61872563Y-6264650D02*
X61891610Y-6274174D01*
X61891610Y-6274174D02*
X61901134Y-6293222D01*
X61901134Y-6293222D02*
X61901134Y-6397984D01*
X61901134Y-6293222D02*
X61910658Y-6274174D01*
X61910658Y-6274174D02*
X61929705Y-6264650D01*
X61929705Y-6264650D02*
X61958277Y-6264650D01*
X61958277Y-6264650D02*
X61977324Y-6274174D01*
X61977324Y-6274174D02*
X61986848Y-6293222D01*
X61986848Y-6293222D02*
X61986848Y-6397984D01*
X62082086Y-6397984D02*
X62082086Y-6264650D01*
X62082086Y-6283698D02*
X62091610Y-6274174D01*
X62091610Y-6274174D02*
X62110658Y-6264650D01*
X62110658Y-6264650D02*
X62139229Y-6264650D01*
X62139229Y-6264650D02*
X62158277Y-6274174D01*
X62158277Y-6274174D02*
X62167801Y-6293222D01*
X62167801Y-6293222D02*
X62167801Y-6397984D01*
X62167801Y-6293222D02*
X62177324Y-6274174D01*
X62177324Y-6274174D02*
X62196372Y-6264650D01*
X62196372Y-6264650D02*
X62224943Y-6264650D01*
X62224943Y-6264650D02*
X62243991Y-6274174D01*
X62243991Y-6274174D02*
X62253515Y-6293222D01*
X62253515Y-6293222D02*
X62253515Y-6397984D01*
X62643991Y-6188460D02*
X62472563Y-6445603D01*
X62901134Y-6197984D02*
X62920182Y-6197984D01*
X62920182Y-6197984D02*
X62939229Y-6207508D01*
X62939229Y-6207508D02*
X62948753Y-6217031D01*
X62948753Y-6217031D02*
X62958277Y-6236079D01*
X62958277Y-6236079D02*
X62967801Y-6274174D01*
X62967801Y-6274174D02*
X62967801Y-6321793D01*
X62967801Y-6321793D02*
X62958277Y-6359888D01*
X62958277Y-6359888D02*
X62948753Y-6378936D01*
X62948753Y-6378936D02*
X62939229Y-6388460D01*
X62939229Y-6388460D02*
X62920182Y-6397984D01*
X62920182Y-6397984D02*
X62901134Y-6397984D01*
X62901134Y-6397984D02*
X62882086Y-6388460D01*
X62882086Y-6388460D02*
X62872563Y-6378936D01*
X62872563Y-6378936D02*
X62863039Y-6359888D01*
X62863039Y-6359888D02*
X62853515Y-6321793D01*
X62853515Y-6321793D02*
X62853515Y-6274174D01*
X62853515Y-6274174D02*
X62863039Y-6236079D01*
X62863039Y-6236079D02*
X62872563Y-6217031D01*
X62872563Y-6217031D02*
X62882086Y-6207508D01*
X62882086Y-6207508D02*
X62901134Y-6197984D01*
X63053515Y-6378936D02*
X63063039Y-6388460D01*
X63063039Y-6388460D02*
X63053515Y-6397984D01*
X63053515Y-6397984D02*
X63043991Y-6388460D01*
X63043991Y-6388460D02*
X63053515Y-6378936D01*
X63053515Y-6378936D02*
X63053515Y-6397984D01*
X63186848Y-6197984D02*
X63205896Y-6197984D01*
X63205896Y-6197984D02*
X63224944Y-6207508D01*
X63224944Y-6207508D02*
X63234467Y-6217031D01*
X63234467Y-6217031D02*
X63243991Y-6236079D01*
X63243991Y-6236079D02*
X63253515Y-6274174D01*
X63253515Y-6274174D02*
X63253515Y-6321793D01*
X63253515Y-6321793D02*
X63243991Y-6359888D01*
X63243991Y-6359888D02*
X63234467Y-6378936D01*
X63234467Y-6378936D02*
X63224944Y-6388460D01*
X63224944Y-6388460D02*
X63205896Y-6397984D01*
X63205896Y-6397984D02*
X63186848Y-6397984D01*
X63186848Y-6397984D02*
X63167801Y-6388460D01*
X63167801Y-6388460D02*
X63158277Y-6378936D01*
X63158277Y-6378936D02*
X63148753Y-6359888D01*
X63148753Y-6359888D02*
X63139229Y-6321793D01*
X63139229Y-6321793D02*
X63139229Y-6274174D01*
X63139229Y-6274174D02*
X63148753Y-6236079D01*
X63148753Y-6236079D02*
X63158277Y-6217031D01*
X63158277Y-6217031D02*
X63167801Y-6207508D01*
X63167801Y-6207508D02*
X63186848Y-6197984D01*
X63329706Y-6217031D02*
X63339229Y-6207508D01*
X63339229Y-6207508D02*
X63358277Y-6197984D01*
X63358277Y-6197984D02*
X63405896Y-6197984D01*
X63405896Y-6197984D02*
X63424944Y-6207508D01*
X63424944Y-6207508D02*
X63434467Y-6217031D01*
X63434467Y-6217031D02*
X63443991Y-6236079D01*
X63443991Y-6236079D02*
X63443991Y-6255127D01*
X63443991Y-6255127D02*
X63434467Y-6283698D01*
X63434467Y-6283698D02*
X63320182Y-6397984D01*
X63320182Y-6397984D02*
X63443991Y-6397984D01*
X63510658Y-6197984D02*
X63634467Y-6197984D01*
X63634467Y-6197984D02*
X63567801Y-6274174D01*
X63567801Y-6274174D02*
X63596372Y-6274174D01*
X63596372Y-6274174D02*
X63615420Y-6283698D01*
X63615420Y-6283698D02*
X63624944Y-6293222D01*
X63624944Y-6293222D02*
X63634467Y-6312269D01*
X63634467Y-6312269D02*
X63634467Y-6359888D01*
X63634467Y-6359888D02*
X63624944Y-6378936D01*
X63624944Y-6378936D02*
X63615420Y-6388460D01*
X63615420Y-6388460D02*
X63596372Y-6397984D01*
X63596372Y-6397984D02*
X63539229Y-6397984D01*
X63539229Y-6397984D02*
X63520182Y-6388460D01*
X63520182Y-6388460D02*
X63510658Y-6378936D01*
X63805896Y-6197984D02*
X63767801Y-6197984D01*
X63767801Y-6197984D02*
X63748753Y-6207508D01*
X63748753Y-6207508D02*
X63739229Y-6217031D01*
X63739229Y-6217031D02*
X63720182Y-6245603D01*
X63720182Y-6245603D02*
X63710658Y-6283698D01*
X63710658Y-6283698D02*
X63710658Y-6359888D01*
X63710658Y-6359888D02*
X63720182Y-6378936D01*
X63720182Y-6378936D02*
X63729706Y-6388460D01*
X63729706Y-6388460D02*
X63748753Y-6397984D01*
X63748753Y-6397984D02*
X63786848Y-6397984D01*
X63786848Y-6397984D02*
X63805896Y-6388460D01*
X63805896Y-6388460D02*
X63815420Y-6378936D01*
X63815420Y-6378936D02*
X63824944Y-6359888D01*
X63824944Y-6359888D02*
X63824944Y-6312269D01*
X63824944Y-6312269D02*
X63815420Y-6293222D01*
X63815420Y-6293222D02*
X63805896Y-6283698D01*
X63805896Y-6283698D02*
X63786848Y-6274174D01*
X63786848Y-6274174D02*
X63748753Y-6274174D01*
X63748753Y-6274174D02*
X63729706Y-6283698D01*
X63729706Y-6283698D02*
X63720182Y-6293222D01*
X63720182Y-6293222D02*
X63710658Y-6312269D01*
X63901134Y-6197984D02*
X63901134Y-6236079D01*
X63977325Y-6197984D02*
X63977325Y-6236079D01*
X64272563Y-6474174D02*
X64263039Y-6464650D01*
X64263039Y-6464650D02*
X64243991Y-6436079D01*
X64243991Y-6436079D02*
X64234468Y-6417031D01*
X64234468Y-6417031D02*
X64224944Y-6388460D01*
X64224944Y-6388460D02*
X64215420Y-6340841D01*
X64215420Y-6340841D02*
X64215420Y-6302746D01*
X64215420Y-6302746D02*
X64224944Y-6255127D01*
X64224944Y-6255127D02*
X64234468Y-6226555D01*
X64234468Y-6226555D02*
X64243991Y-6207508D01*
X64243991Y-6207508D02*
X64263039Y-6178936D01*
X64263039Y-6178936D02*
X64272563Y-6169412D01*
X64339229Y-6217031D02*
X64348753Y-6207508D01*
X64348753Y-6207508D02*
X64367801Y-6197984D01*
X64367801Y-6197984D02*
X64415420Y-6197984D01*
X64415420Y-6197984D02*
X64434468Y-6207508D01*
X64434468Y-6207508D02*
X64443991Y-6217031D01*
X64443991Y-6217031D02*
X64453515Y-6236079D01*
X64453515Y-6236079D02*
X64453515Y-6255127D01*
X64453515Y-6255127D02*
X64443991Y-6283698D01*
X64443991Y-6283698D02*
X64329706Y-6397984D01*
X64329706Y-6397984D02*
X64453515Y-6397984D01*
X64691610Y-6397984D02*
X64691610Y-6197984D01*
X64777325Y-6397984D02*
X64777325Y-6293222D01*
X64777325Y-6293222D02*
X64767801Y-6274174D01*
X64767801Y-6274174D02*
X64748753Y-6264650D01*
X64748753Y-6264650D02*
X64720182Y-6264650D01*
X64720182Y-6264650D02*
X64701134Y-6274174D01*
X64701134Y-6274174D02*
X64691610Y-6283698D01*
X64901134Y-6397984D02*
X64882087Y-6388460D01*
X64882087Y-6388460D02*
X64872563Y-6378936D01*
X64872563Y-6378936D02*
X64863039Y-6359888D01*
X64863039Y-6359888D02*
X64863039Y-6302746D01*
X64863039Y-6302746D02*
X64872563Y-6283698D01*
X64872563Y-6283698D02*
X64882087Y-6274174D01*
X64882087Y-6274174D02*
X64901134Y-6264650D01*
X64901134Y-6264650D02*
X64929706Y-6264650D01*
X64929706Y-6264650D02*
X64948753Y-6274174D01*
X64948753Y-6274174D02*
X64958277Y-6283698D01*
X64958277Y-6283698D02*
X64967801Y-6302746D01*
X64967801Y-6302746D02*
X64967801Y-6359888D01*
X64967801Y-6359888D02*
X64958277Y-6378936D01*
X64958277Y-6378936D02*
X64948753Y-6388460D01*
X64948753Y-6388460D02*
X64929706Y-6397984D01*
X64929706Y-6397984D02*
X64901134Y-6397984D01*
X65082087Y-6397984D02*
X65063039Y-6388460D01*
X65063039Y-6388460D02*
X65053515Y-6369412D01*
X65053515Y-6369412D02*
X65053515Y-6197984D01*
X65234468Y-6388460D02*
X65215420Y-6397984D01*
X65215420Y-6397984D02*
X65177325Y-6397984D01*
X65177325Y-6397984D02*
X65158277Y-6388460D01*
X65158277Y-6388460D02*
X65148753Y-6369412D01*
X65148753Y-6369412D02*
X65148753Y-6293222D01*
X65148753Y-6293222D02*
X65158277Y-6274174D01*
X65158277Y-6274174D02*
X65177325Y-6264650D01*
X65177325Y-6264650D02*
X65215420Y-6264650D01*
X65215420Y-6264650D02*
X65234468Y-6274174D01*
X65234468Y-6274174D02*
X65243991Y-6293222D01*
X65243991Y-6293222D02*
X65243991Y-6312269D01*
X65243991Y-6312269D02*
X65148753Y-6331317D01*
X65320182Y-6388460D02*
X65339230Y-6397984D01*
X65339230Y-6397984D02*
X65377325Y-6397984D01*
X65377325Y-6397984D02*
X65396372Y-6388460D01*
X65396372Y-6388460D02*
X65405896Y-6369412D01*
X65405896Y-6369412D02*
X65405896Y-6359888D01*
X65405896Y-6359888D02*
X65396372Y-6340841D01*
X65396372Y-6340841D02*
X65377325Y-6331317D01*
X65377325Y-6331317D02*
X65348753Y-6331317D01*
X65348753Y-6331317D02*
X65329706Y-6321793D01*
X65329706Y-6321793D02*
X65320182Y-6302746D01*
X65320182Y-6302746D02*
X65320182Y-6293222D01*
X65320182Y-6293222D02*
X65329706Y-6274174D01*
X65329706Y-6274174D02*
X65348753Y-6264650D01*
X65348753Y-6264650D02*
X65377325Y-6264650D01*
X65377325Y-6264650D02*
X65396372Y-6274174D01*
X65472563Y-6474174D02*
X65482087Y-6464650D01*
X65482087Y-6464650D02*
X65501134Y-6436079D01*
X65501134Y-6436079D02*
X65510658Y-6417031D01*
X65510658Y-6417031D02*
X65520182Y-6388460D01*
X65520182Y-6388460D02*
X65529706Y-6340841D01*
X65529706Y-6340841D02*
X65529706Y-6302746D01*
X65529706Y-6302746D02*
X65520182Y-6255127D01*
X65520182Y-6255127D02*
X65510658Y-6226555D01*
X65510658Y-6226555D02*
X65501134Y-6207508D01*
X65501134Y-6207508D02*
X65482087Y-6178936D01*
X65482087Y-6178936D02*
X65472563Y-6169412D01*
D12*
X60662500Y-6535500D02*
X60662500Y-6605500D01*
X60627500Y-6570500D02*
X60697500Y-6570500D01*
D11*
X60996372Y-6461984D02*
X61015420Y-6461984D01*
X61015420Y-6461984D02*
X61034467Y-6471508D01*
X61034467Y-6471508D02*
X61043991Y-6481031D01*
X61043991Y-6481031D02*
X61053515Y-6500079D01*
X61053515Y-6500079D02*
X61063039Y-6538174D01*
X61063039Y-6538174D02*
X61063039Y-6585793D01*
X61063039Y-6585793D02*
X61053515Y-6623888D01*
X61053515Y-6623888D02*
X61043991Y-6642936D01*
X61043991Y-6642936D02*
X61034467Y-6652460D01*
X61034467Y-6652460D02*
X61015420Y-6661984D01*
X61015420Y-6661984D02*
X60996372Y-6661984D01*
X60996372Y-6661984D02*
X60977324Y-6652460D01*
X60977324Y-6652460D02*
X60967801Y-6642936D01*
X60967801Y-6642936D02*
X60958277Y-6623888D01*
X60958277Y-6623888D02*
X60948753Y-6585793D01*
X60948753Y-6585793D02*
X60948753Y-6538174D01*
X60948753Y-6538174D02*
X60958277Y-6500079D01*
X60958277Y-6500079D02*
X60967801Y-6481031D01*
X60967801Y-6481031D02*
X60977324Y-6471508D01*
X60977324Y-6471508D02*
X60996372Y-6461984D01*
X61148753Y-6642936D02*
X61158277Y-6652460D01*
X61158277Y-6652460D02*
X61148753Y-6661984D01*
X61148753Y-6661984D02*
X61139229Y-6652460D01*
X61139229Y-6652460D02*
X61148753Y-6642936D01*
X61148753Y-6642936D02*
X61148753Y-6661984D01*
X61224943Y-6461984D02*
X61358277Y-6461984D01*
X61358277Y-6461984D02*
X61272562Y-6661984D01*
X61472562Y-6461984D02*
X61491610Y-6461984D01*
X61491610Y-6461984D02*
X61510658Y-6471508D01*
X61510658Y-6471508D02*
X61520182Y-6481031D01*
X61520182Y-6481031D02*
X61529705Y-6500079D01*
X61529705Y-6500079D02*
X61539229Y-6538174D01*
X61539229Y-6538174D02*
X61539229Y-6585793D01*
X61539229Y-6585793D02*
X61529705Y-6623888D01*
X61529705Y-6623888D02*
X61520182Y-6642936D01*
X61520182Y-6642936D02*
X61510658Y-6652460D01*
X61510658Y-6652460D02*
X61491610Y-6661984D01*
X61491610Y-6661984D02*
X61472562Y-6661984D01*
X61472562Y-6661984D02*
X61453515Y-6652460D01*
X61453515Y-6652460D02*
X61443991Y-6642936D01*
X61443991Y-6642936D02*
X61434467Y-6623888D01*
X61434467Y-6623888D02*
X61424943Y-6585793D01*
X61424943Y-6585793D02*
X61424943Y-6538174D01*
X61424943Y-6538174D02*
X61434467Y-6500079D01*
X61434467Y-6500079D02*
X61443991Y-6481031D01*
X61443991Y-6481031D02*
X61453515Y-6471508D01*
X61453515Y-6471508D02*
X61472562Y-6461984D01*
X61663039Y-6461984D02*
X61682086Y-6461984D01*
X61682086Y-6461984D02*
X61701134Y-6471508D01*
X61701134Y-6471508D02*
X61710658Y-6481031D01*
X61710658Y-6481031D02*
X61720182Y-6500079D01*
X61720182Y-6500079D02*
X61729705Y-6538174D01*
X61729705Y-6538174D02*
X61729705Y-6585793D01*
X61729705Y-6585793D02*
X61720182Y-6623888D01*
X61720182Y-6623888D02*
X61710658Y-6642936D01*
X61710658Y-6642936D02*
X61701134Y-6652460D01*
X61701134Y-6652460D02*
X61682086Y-6661984D01*
X61682086Y-6661984D02*
X61663039Y-6661984D01*
X61663039Y-6661984D02*
X61643991Y-6652460D01*
X61643991Y-6652460D02*
X61634467Y-6642936D01*
X61634467Y-6642936D02*
X61624943Y-6623888D01*
X61624943Y-6623888D02*
X61615420Y-6585793D01*
X61615420Y-6585793D02*
X61615420Y-6538174D01*
X61615420Y-6538174D02*
X61624943Y-6500079D01*
X61624943Y-6500079D02*
X61634467Y-6481031D01*
X61634467Y-6481031D02*
X61643991Y-6471508D01*
X61643991Y-6471508D02*
X61663039Y-6461984D01*
X61815420Y-6661984D02*
X61815420Y-6528650D01*
X61815420Y-6547698D02*
X61824943Y-6538174D01*
X61824943Y-6538174D02*
X61843991Y-6528650D01*
X61843991Y-6528650D02*
X61872563Y-6528650D01*
X61872563Y-6528650D02*
X61891610Y-6538174D01*
X61891610Y-6538174D02*
X61901134Y-6557222D01*
X61901134Y-6557222D02*
X61901134Y-6661984D01*
X61901134Y-6557222D02*
X61910658Y-6538174D01*
X61910658Y-6538174D02*
X61929705Y-6528650D01*
X61929705Y-6528650D02*
X61958277Y-6528650D01*
X61958277Y-6528650D02*
X61977324Y-6538174D01*
X61977324Y-6538174D02*
X61986848Y-6557222D01*
X61986848Y-6557222D02*
X61986848Y-6661984D01*
X62082086Y-6661984D02*
X62082086Y-6528650D01*
X62082086Y-6547698D02*
X62091610Y-6538174D01*
X62091610Y-6538174D02*
X62110658Y-6528650D01*
X62110658Y-6528650D02*
X62139229Y-6528650D01*
X62139229Y-6528650D02*
X62158277Y-6538174D01*
X62158277Y-6538174D02*
X62167801Y-6557222D01*
X62167801Y-6557222D02*
X62167801Y-6661984D01*
X62167801Y-6557222D02*
X62177324Y-6538174D01*
X62177324Y-6538174D02*
X62196372Y-6528650D01*
X62196372Y-6528650D02*
X62224943Y-6528650D01*
X62224943Y-6528650D02*
X62243991Y-6538174D01*
X62243991Y-6538174D02*
X62253515Y-6557222D01*
X62253515Y-6557222D02*
X62253515Y-6661984D01*
X62643991Y-6452460D02*
X62472563Y-6709603D01*
X62901134Y-6461984D02*
X62920182Y-6461984D01*
X62920182Y-6461984D02*
X62939229Y-6471508D01*
X62939229Y-6471508D02*
X62948753Y-6481031D01*
X62948753Y-6481031D02*
X62958277Y-6500079D01*
X62958277Y-6500079D02*
X62967801Y-6538174D01*
X62967801Y-6538174D02*
X62967801Y-6585793D01*
X62967801Y-6585793D02*
X62958277Y-6623888D01*
X62958277Y-6623888D02*
X62948753Y-6642936D01*
X62948753Y-6642936D02*
X62939229Y-6652460D01*
X62939229Y-6652460D02*
X62920182Y-6661984D01*
X62920182Y-6661984D02*
X62901134Y-6661984D01*
X62901134Y-6661984D02*
X62882086Y-6652460D01*
X62882086Y-6652460D02*
X62872563Y-6642936D01*
X62872563Y-6642936D02*
X62863039Y-6623888D01*
X62863039Y-6623888D02*
X62853515Y-6585793D01*
X62853515Y-6585793D02*
X62853515Y-6538174D01*
X62853515Y-6538174D02*
X62863039Y-6500079D01*
X62863039Y-6500079D02*
X62872563Y-6481031D01*
X62872563Y-6481031D02*
X62882086Y-6471508D01*
X62882086Y-6471508D02*
X62901134Y-6461984D01*
X63053515Y-6642936D02*
X63063039Y-6652460D01*
X63063039Y-6652460D02*
X63053515Y-6661984D01*
X63053515Y-6661984D02*
X63043991Y-6652460D01*
X63043991Y-6652460D02*
X63053515Y-6642936D01*
X63053515Y-6642936D02*
X63053515Y-6661984D01*
X63186848Y-6461984D02*
X63205896Y-6461984D01*
X63205896Y-6461984D02*
X63224944Y-6471508D01*
X63224944Y-6471508D02*
X63234467Y-6481031D01*
X63234467Y-6481031D02*
X63243991Y-6500079D01*
X63243991Y-6500079D02*
X63253515Y-6538174D01*
X63253515Y-6538174D02*
X63253515Y-6585793D01*
X63253515Y-6585793D02*
X63243991Y-6623888D01*
X63243991Y-6623888D02*
X63234467Y-6642936D01*
X63234467Y-6642936D02*
X63224944Y-6652460D01*
X63224944Y-6652460D02*
X63205896Y-6661984D01*
X63205896Y-6661984D02*
X63186848Y-6661984D01*
X63186848Y-6661984D02*
X63167801Y-6652460D01*
X63167801Y-6652460D02*
X63158277Y-6642936D01*
X63158277Y-6642936D02*
X63148753Y-6623888D01*
X63148753Y-6623888D02*
X63139229Y-6585793D01*
X63139229Y-6585793D02*
X63139229Y-6538174D01*
X63139229Y-6538174D02*
X63148753Y-6500079D01*
X63148753Y-6500079D02*
X63158277Y-6481031D01*
X63158277Y-6481031D02*
X63167801Y-6471508D01*
X63167801Y-6471508D02*
X63186848Y-6461984D01*
X63329706Y-6481031D02*
X63339229Y-6471508D01*
X63339229Y-6471508D02*
X63358277Y-6461984D01*
X63358277Y-6461984D02*
X63405896Y-6461984D01*
X63405896Y-6461984D02*
X63424944Y-6471508D01*
X63424944Y-6471508D02*
X63434467Y-6481031D01*
X63434467Y-6481031D02*
X63443991Y-6500079D01*
X63443991Y-6500079D02*
X63443991Y-6519127D01*
X63443991Y-6519127D02*
X63434467Y-6547698D01*
X63434467Y-6547698D02*
X63320182Y-6661984D01*
X63320182Y-6661984D02*
X63443991Y-6661984D01*
X63510658Y-6461984D02*
X63643991Y-6461984D01*
X63643991Y-6461984D02*
X63558277Y-6661984D01*
X63805896Y-6461984D02*
X63767801Y-6461984D01*
X63767801Y-6461984D02*
X63748753Y-6471508D01*
X63748753Y-6471508D02*
X63739229Y-6481031D01*
X63739229Y-6481031D02*
X63720182Y-6509603D01*
X63720182Y-6509603D02*
X63710658Y-6547698D01*
X63710658Y-6547698D02*
X63710658Y-6623888D01*
X63710658Y-6623888D02*
X63720182Y-6642936D01*
X63720182Y-6642936D02*
X63729706Y-6652460D01*
X63729706Y-6652460D02*
X63748753Y-6661984D01*
X63748753Y-6661984D02*
X63786848Y-6661984D01*
X63786848Y-6661984D02*
X63805896Y-6652460D01*
X63805896Y-6652460D02*
X63815420Y-6642936D01*
X63815420Y-6642936D02*
X63824944Y-6623888D01*
X63824944Y-6623888D02*
X63824944Y-6576269D01*
X63824944Y-6576269D02*
X63815420Y-6557222D01*
X63815420Y-6557222D02*
X63805896Y-6547698D01*
X63805896Y-6547698D02*
X63786848Y-6538174D01*
X63786848Y-6538174D02*
X63748753Y-6538174D01*
X63748753Y-6538174D02*
X63729706Y-6547698D01*
X63729706Y-6547698D02*
X63720182Y-6557222D01*
X63720182Y-6557222D02*
X63710658Y-6576269D01*
X63901134Y-6461984D02*
X63901134Y-6500079D01*
X63977325Y-6461984D02*
X63977325Y-6500079D01*
X64272563Y-6738174D02*
X64263039Y-6728650D01*
X64263039Y-6728650D02*
X64243991Y-6700079D01*
X64243991Y-6700079D02*
X64234468Y-6681031D01*
X64234468Y-6681031D02*
X64224944Y-6652460D01*
X64224944Y-6652460D02*
X64215420Y-6604841D01*
X64215420Y-6604841D02*
X64215420Y-6566746D01*
X64215420Y-6566746D02*
X64224944Y-6519127D01*
X64224944Y-6519127D02*
X64234468Y-6490555D01*
X64234468Y-6490555D02*
X64243991Y-6471508D01*
X64243991Y-6471508D02*
X64263039Y-6442936D01*
X64263039Y-6442936D02*
X64272563Y-6433412D01*
X64434468Y-6461984D02*
X64396372Y-6461984D01*
X64396372Y-6461984D02*
X64377325Y-6471508D01*
X64377325Y-6471508D02*
X64367801Y-6481031D01*
X64367801Y-6481031D02*
X64348753Y-6509603D01*
X64348753Y-6509603D02*
X64339229Y-6547698D01*
X64339229Y-6547698D02*
X64339229Y-6623888D01*
X64339229Y-6623888D02*
X64348753Y-6642936D01*
X64348753Y-6642936D02*
X64358277Y-6652460D01*
X64358277Y-6652460D02*
X64377325Y-6661984D01*
X64377325Y-6661984D02*
X64415420Y-6661984D01*
X64415420Y-6661984D02*
X64434468Y-6652460D01*
X64434468Y-6652460D02*
X64443991Y-6642936D01*
X64443991Y-6642936D02*
X64453515Y-6623888D01*
X64453515Y-6623888D02*
X64453515Y-6576269D01*
X64453515Y-6576269D02*
X64443991Y-6557222D01*
X64443991Y-6557222D02*
X64434468Y-6547698D01*
X64434468Y-6547698D02*
X64415420Y-6538174D01*
X64415420Y-6538174D02*
X64377325Y-6538174D01*
X64377325Y-6538174D02*
X64358277Y-6547698D01*
X64358277Y-6547698D02*
X64348753Y-6557222D01*
X64348753Y-6557222D02*
X64339229Y-6576269D01*
X64691610Y-6661984D02*
X64691610Y-6461984D01*
X64777325Y-6661984D02*
X64777325Y-6557222D01*
X64777325Y-6557222D02*
X64767801Y-6538174D01*
X64767801Y-6538174D02*
X64748753Y-6528650D01*
X64748753Y-6528650D02*
X64720182Y-6528650D01*
X64720182Y-6528650D02*
X64701134Y-6538174D01*
X64701134Y-6538174D02*
X64691610Y-6547698D01*
X64901134Y-6661984D02*
X64882087Y-6652460D01*
X64882087Y-6652460D02*
X64872563Y-6642936D01*
X64872563Y-6642936D02*
X64863039Y-6623888D01*
X64863039Y-6623888D02*
X64863039Y-6566746D01*
X64863039Y-6566746D02*
X64872563Y-6547698D01*
X64872563Y-6547698D02*
X64882087Y-6538174D01*
X64882087Y-6538174D02*
X64901134Y-6528650D01*
X64901134Y-6528650D02*
X64929706Y-6528650D01*
X64929706Y-6528650D02*
X64948753Y-6538174D01*
X64948753Y-6538174D02*
X64958277Y-6547698D01*
X64958277Y-6547698D02*
X64967801Y-6566746D01*
X64967801Y-6566746D02*
X64967801Y-6623888D01*
X64967801Y-6623888D02*
X64958277Y-6642936D01*
X64958277Y-6642936D02*
X64948753Y-6652460D01*
X64948753Y-6652460D02*
X64929706Y-6661984D01*
X64929706Y-6661984D02*
X64901134Y-6661984D01*
X65082087Y-6661984D02*
X65063039Y-6652460D01*
X65063039Y-6652460D02*
X65053515Y-6633412D01*
X65053515Y-6633412D02*
X65053515Y-6461984D01*
X65234468Y-6652460D02*
X65215420Y-6661984D01*
X65215420Y-6661984D02*
X65177325Y-6661984D01*
X65177325Y-6661984D02*
X65158277Y-6652460D01*
X65158277Y-6652460D02*
X65148753Y-6633412D01*
X65148753Y-6633412D02*
X65148753Y-6557222D01*
X65148753Y-6557222D02*
X65158277Y-6538174D01*
X65158277Y-6538174D02*
X65177325Y-6528650D01*
X65177325Y-6528650D02*
X65215420Y-6528650D01*
X65215420Y-6528650D02*
X65234468Y-6538174D01*
X65234468Y-6538174D02*
X65243991Y-6557222D01*
X65243991Y-6557222D02*
X65243991Y-6576269D01*
X65243991Y-6576269D02*
X65148753Y-6595317D01*
X65320182Y-6652460D02*
X65339230Y-6661984D01*
X65339230Y-6661984D02*
X65377325Y-6661984D01*
X65377325Y-6661984D02*
X65396372Y-6652460D01*
X65396372Y-6652460D02*
X65405896Y-6633412D01*
X65405896Y-6633412D02*
X65405896Y-6623888D01*
X65405896Y-6623888D02*
X65396372Y-6604841D01*
X65396372Y-6604841D02*
X65377325Y-6595317D01*
X65377325Y-6595317D02*
X65348753Y-6595317D01*
X65348753Y-6595317D02*
X65329706Y-6585793D01*
X65329706Y-6585793D02*
X65320182Y-6566746D01*
X65320182Y-6566746D02*
X65320182Y-6557222D01*
X65320182Y-6557222D02*
X65329706Y-6538174D01*
X65329706Y-6538174D02*
X65348753Y-6528650D01*
X65348753Y-6528650D02*
X65377325Y-6528650D01*
X65377325Y-6528650D02*
X65396372Y-6538174D01*
X65472563Y-6738174D02*
X65482087Y-6728650D01*
X65482087Y-6728650D02*
X65501134Y-6700079D01*
X65501134Y-6700079D02*
X65510658Y-6681031D01*
X65510658Y-6681031D02*
X65520182Y-6652460D01*
X65520182Y-6652460D02*
X65529706Y-6604841D01*
X65529706Y-6604841D02*
X65529706Y-6566746D01*
X65529706Y-6566746D02*
X65520182Y-6519127D01*
X65520182Y-6519127D02*
X65510658Y-6490555D01*
X65510658Y-6490555D02*
X65501134Y-6471508D01*
X65501134Y-6471508D02*
X65482087Y-6442936D01*
X65482087Y-6442936D02*
X65472563Y-6433412D01*
D12*
X60685784Y-6862784D02*
X60685784Y-6806215D01*
X60629215Y-6806215D01*
X60629215Y-6862784D01*
X60685784Y-6862784D01*
D11*
X60996372Y-6725984D02*
X61015420Y-6725984D01*
X61015420Y-6725984D02*
X61034467Y-6735508D01*
X61034467Y-6735508D02*
X61043991Y-6745031D01*
X61043991Y-6745031D02*
X61053515Y-6764079D01*
X61053515Y-6764079D02*
X61063039Y-6802174D01*
X61063039Y-6802174D02*
X61063039Y-6849793D01*
X61063039Y-6849793D02*
X61053515Y-6887888D01*
X61053515Y-6887888D02*
X61043991Y-6906936D01*
X61043991Y-6906936D02*
X61034467Y-6916460D01*
X61034467Y-6916460D02*
X61015420Y-6925984D01*
X61015420Y-6925984D02*
X60996372Y-6925984D01*
X60996372Y-6925984D02*
X60977324Y-6916460D01*
X60977324Y-6916460D02*
X60967801Y-6906936D01*
X60967801Y-6906936D02*
X60958277Y-6887888D01*
X60958277Y-6887888D02*
X60948753Y-6849793D01*
X60948753Y-6849793D02*
X60948753Y-6802174D01*
X60948753Y-6802174D02*
X60958277Y-6764079D01*
X60958277Y-6764079D02*
X60967801Y-6745031D01*
X60967801Y-6745031D02*
X60977324Y-6735508D01*
X60977324Y-6735508D02*
X60996372Y-6725984D01*
X61148753Y-6906936D02*
X61158277Y-6916460D01*
X61158277Y-6916460D02*
X61148753Y-6925984D01*
X61148753Y-6925984D02*
X61139229Y-6916460D01*
X61139229Y-6916460D02*
X61148753Y-6906936D01*
X61148753Y-6906936D02*
X61148753Y-6925984D01*
X61272562Y-6811698D02*
X61253515Y-6802174D01*
X61253515Y-6802174D02*
X61243991Y-6792650D01*
X61243991Y-6792650D02*
X61234467Y-6773603D01*
X61234467Y-6773603D02*
X61234467Y-6764079D01*
X61234467Y-6764079D02*
X61243991Y-6745031D01*
X61243991Y-6745031D02*
X61253515Y-6735508D01*
X61253515Y-6735508D02*
X61272562Y-6725984D01*
X61272562Y-6725984D02*
X61310658Y-6725984D01*
X61310658Y-6725984D02*
X61329705Y-6735508D01*
X61329705Y-6735508D02*
X61339229Y-6745031D01*
X61339229Y-6745031D02*
X61348753Y-6764079D01*
X61348753Y-6764079D02*
X61348753Y-6773603D01*
X61348753Y-6773603D02*
X61339229Y-6792650D01*
X61339229Y-6792650D02*
X61329705Y-6802174D01*
X61329705Y-6802174D02*
X61310658Y-6811698D01*
X61310658Y-6811698D02*
X61272562Y-6811698D01*
X61272562Y-6811698D02*
X61253515Y-6821222D01*
X61253515Y-6821222D02*
X61243991Y-6830746D01*
X61243991Y-6830746D02*
X61234467Y-6849793D01*
X61234467Y-6849793D02*
X61234467Y-6887888D01*
X61234467Y-6887888D02*
X61243991Y-6906936D01*
X61243991Y-6906936D02*
X61253515Y-6916460D01*
X61253515Y-6916460D02*
X61272562Y-6925984D01*
X61272562Y-6925984D02*
X61310658Y-6925984D01*
X61310658Y-6925984D02*
X61329705Y-6916460D01*
X61329705Y-6916460D02*
X61339229Y-6906936D01*
X61339229Y-6906936D02*
X61348753Y-6887888D01*
X61348753Y-6887888D02*
X61348753Y-6849793D01*
X61348753Y-6849793D02*
X61339229Y-6830746D01*
X61339229Y-6830746D02*
X61329705Y-6821222D01*
X61329705Y-6821222D02*
X61310658Y-6811698D01*
X61472562Y-6725984D02*
X61491610Y-6725984D01*
X61491610Y-6725984D02*
X61510658Y-6735508D01*
X61510658Y-6735508D02*
X61520182Y-6745031D01*
X61520182Y-6745031D02*
X61529705Y-6764079D01*
X61529705Y-6764079D02*
X61539229Y-6802174D01*
X61539229Y-6802174D02*
X61539229Y-6849793D01*
X61539229Y-6849793D02*
X61529705Y-6887888D01*
X61529705Y-6887888D02*
X61520182Y-6906936D01*
X61520182Y-6906936D02*
X61510658Y-6916460D01*
X61510658Y-6916460D02*
X61491610Y-6925984D01*
X61491610Y-6925984D02*
X61472562Y-6925984D01*
X61472562Y-6925984D02*
X61453515Y-6916460D01*
X61453515Y-6916460D02*
X61443991Y-6906936D01*
X61443991Y-6906936D02*
X61434467Y-6887888D01*
X61434467Y-6887888D02*
X61424943Y-6849793D01*
X61424943Y-6849793D02*
X61424943Y-6802174D01*
X61424943Y-6802174D02*
X61434467Y-6764079D01*
X61434467Y-6764079D02*
X61443991Y-6745031D01*
X61443991Y-6745031D02*
X61453515Y-6735508D01*
X61453515Y-6735508D02*
X61472562Y-6725984D01*
X61663039Y-6725984D02*
X61682086Y-6725984D01*
X61682086Y-6725984D02*
X61701134Y-6735508D01*
X61701134Y-6735508D02*
X61710658Y-6745031D01*
X61710658Y-6745031D02*
X61720182Y-6764079D01*
X61720182Y-6764079D02*
X61729705Y-6802174D01*
X61729705Y-6802174D02*
X61729705Y-6849793D01*
X61729705Y-6849793D02*
X61720182Y-6887888D01*
X61720182Y-6887888D02*
X61710658Y-6906936D01*
X61710658Y-6906936D02*
X61701134Y-6916460D01*
X61701134Y-6916460D02*
X61682086Y-6925984D01*
X61682086Y-6925984D02*
X61663039Y-6925984D01*
X61663039Y-6925984D02*
X61643991Y-6916460D01*
X61643991Y-6916460D02*
X61634467Y-6906936D01*
X61634467Y-6906936D02*
X61624943Y-6887888D01*
X61624943Y-6887888D02*
X61615420Y-6849793D01*
X61615420Y-6849793D02*
X61615420Y-6802174D01*
X61615420Y-6802174D02*
X61624943Y-6764079D01*
X61624943Y-6764079D02*
X61634467Y-6745031D01*
X61634467Y-6745031D02*
X61643991Y-6735508D01*
X61643991Y-6735508D02*
X61663039Y-6725984D01*
X61815420Y-6925984D02*
X61815420Y-6792650D01*
X61815420Y-6811698D02*
X61824943Y-6802174D01*
X61824943Y-6802174D02*
X61843991Y-6792650D01*
X61843991Y-6792650D02*
X61872563Y-6792650D01*
X61872563Y-6792650D02*
X61891610Y-6802174D01*
X61891610Y-6802174D02*
X61901134Y-6821222D01*
X61901134Y-6821222D02*
X61901134Y-6925984D01*
X61901134Y-6821222D02*
X61910658Y-6802174D01*
X61910658Y-6802174D02*
X61929705Y-6792650D01*
X61929705Y-6792650D02*
X61958277Y-6792650D01*
X61958277Y-6792650D02*
X61977324Y-6802174D01*
X61977324Y-6802174D02*
X61986848Y-6821222D01*
X61986848Y-6821222D02*
X61986848Y-6925984D01*
X62082086Y-6925984D02*
X62082086Y-6792650D01*
X62082086Y-6811698D02*
X62091610Y-6802174D01*
X62091610Y-6802174D02*
X62110658Y-6792650D01*
X62110658Y-6792650D02*
X62139229Y-6792650D01*
X62139229Y-6792650D02*
X62158277Y-6802174D01*
X62158277Y-6802174D02*
X62167801Y-6821222D01*
X62167801Y-6821222D02*
X62167801Y-6925984D01*
X62167801Y-6821222D02*
X62177324Y-6802174D01*
X62177324Y-6802174D02*
X62196372Y-6792650D01*
X62196372Y-6792650D02*
X62224943Y-6792650D01*
X62224943Y-6792650D02*
X62243991Y-6802174D01*
X62243991Y-6802174D02*
X62253515Y-6821222D01*
X62253515Y-6821222D02*
X62253515Y-6925984D01*
X62643991Y-6716460D02*
X62472563Y-6973603D01*
X62901134Y-6725984D02*
X62920182Y-6725984D01*
X62920182Y-6725984D02*
X62939229Y-6735508D01*
X62939229Y-6735508D02*
X62948753Y-6745031D01*
X62948753Y-6745031D02*
X62958277Y-6764079D01*
X62958277Y-6764079D02*
X62967801Y-6802174D01*
X62967801Y-6802174D02*
X62967801Y-6849793D01*
X62967801Y-6849793D02*
X62958277Y-6887888D01*
X62958277Y-6887888D02*
X62948753Y-6906936D01*
X62948753Y-6906936D02*
X62939229Y-6916460D01*
X62939229Y-6916460D02*
X62920182Y-6925984D01*
X62920182Y-6925984D02*
X62901134Y-6925984D01*
X62901134Y-6925984D02*
X62882086Y-6916460D01*
X62882086Y-6916460D02*
X62872563Y-6906936D01*
X62872563Y-6906936D02*
X62863039Y-6887888D01*
X62863039Y-6887888D02*
X62853515Y-6849793D01*
X62853515Y-6849793D02*
X62853515Y-6802174D01*
X62853515Y-6802174D02*
X62863039Y-6764079D01*
X62863039Y-6764079D02*
X62872563Y-6745031D01*
X62872563Y-6745031D02*
X62882086Y-6735508D01*
X62882086Y-6735508D02*
X62901134Y-6725984D01*
X63053515Y-6906936D02*
X63063039Y-6916460D01*
X63063039Y-6916460D02*
X63053515Y-6925984D01*
X63053515Y-6925984D02*
X63043991Y-6916460D01*
X63043991Y-6916460D02*
X63053515Y-6906936D01*
X63053515Y-6906936D02*
X63053515Y-6925984D01*
X63186848Y-6725984D02*
X63205896Y-6725984D01*
X63205896Y-6725984D02*
X63224944Y-6735508D01*
X63224944Y-6735508D02*
X63234467Y-6745031D01*
X63234467Y-6745031D02*
X63243991Y-6764079D01*
X63243991Y-6764079D02*
X63253515Y-6802174D01*
X63253515Y-6802174D02*
X63253515Y-6849793D01*
X63253515Y-6849793D02*
X63243991Y-6887888D01*
X63243991Y-6887888D02*
X63234467Y-6906936D01*
X63234467Y-6906936D02*
X63224944Y-6916460D01*
X63224944Y-6916460D02*
X63205896Y-6925984D01*
X63205896Y-6925984D02*
X63186848Y-6925984D01*
X63186848Y-6925984D02*
X63167801Y-6916460D01*
X63167801Y-6916460D02*
X63158277Y-6906936D01*
X63158277Y-6906936D02*
X63148753Y-6887888D01*
X63148753Y-6887888D02*
X63139229Y-6849793D01*
X63139229Y-6849793D02*
X63139229Y-6802174D01*
X63139229Y-6802174D02*
X63148753Y-6764079D01*
X63148753Y-6764079D02*
X63158277Y-6745031D01*
X63158277Y-6745031D02*
X63167801Y-6735508D01*
X63167801Y-6735508D02*
X63186848Y-6725984D01*
X63320182Y-6725984D02*
X63443991Y-6725984D01*
X63443991Y-6725984D02*
X63377325Y-6802174D01*
X63377325Y-6802174D02*
X63405896Y-6802174D01*
X63405896Y-6802174D02*
X63424944Y-6811698D01*
X63424944Y-6811698D02*
X63434467Y-6821222D01*
X63434467Y-6821222D02*
X63443991Y-6840269D01*
X63443991Y-6840269D02*
X63443991Y-6887888D01*
X63443991Y-6887888D02*
X63434467Y-6906936D01*
X63434467Y-6906936D02*
X63424944Y-6916460D01*
X63424944Y-6916460D02*
X63405896Y-6925984D01*
X63405896Y-6925984D02*
X63348753Y-6925984D01*
X63348753Y-6925984D02*
X63329706Y-6916460D01*
X63329706Y-6916460D02*
X63320182Y-6906936D01*
X63634467Y-6925984D02*
X63520182Y-6925984D01*
X63577325Y-6925984D02*
X63577325Y-6725984D01*
X63577325Y-6725984D02*
X63558277Y-6754555D01*
X63558277Y-6754555D02*
X63539229Y-6773603D01*
X63539229Y-6773603D02*
X63520182Y-6783127D01*
X63815420Y-6725984D02*
X63720182Y-6725984D01*
X63720182Y-6725984D02*
X63710658Y-6821222D01*
X63710658Y-6821222D02*
X63720182Y-6811698D01*
X63720182Y-6811698D02*
X63739229Y-6802174D01*
X63739229Y-6802174D02*
X63786848Y-6802174D01*
X63786848Y-6802174D02*
X63805896Y-6811698D01*
X63805896Y-6811698D02*
X63815420Y-6821222D01*
X63815420Y-6821222D02*
X63824944Y-6840269D01*
X63824944Y-6840269D02*
X63824944Y-6887888D01*
X63824944Y-6887888D02*
X63815420Y-6906936D01*
X63815420Y-6906936D02*
X63805896Y-6916460D01*
X63805896Y-6916460D02*
X63786848Y-6925984D01*
X63786848Y-6925984D02*
X63739229Y-6925984D01*
X63739229Y-6925984D02*
X63720182Y-6916460D01*
X63720182Y-6916460D02*
X63710658Y-6906936D01*
X63901134Y-6725984D02*
X63901134Y-6764079D01*
X63977325Y-6725984D02*
X63977325Y-6764079D01*
X64272563Y-7002174D02*
X64263039Y-6992650D01*
X64263039Y-6992650D02*
X64243991Y-6964079D01*
X64243991Y-6964079D02*
X64234468Y-6945031D01*
X64234468Y-6945031D02*
X64224944Y-6916460D01*
X64224944Y-6916460D02*
X64215420Y-6868841D01*
X64215420Y-6868841D02*
X64215420Y-6830746D01*
X64215420Y-6830746D02*
X64224944Y-6783127D01*
X64224944Y-6783127D02*
X64234468Y-6754555D01*
X64234468Y-6754555D02*
X64243991Y-6735508D01*
X64243991Y-6735508D02*
X64263039Y-6706936D01*
X64263039Y-6706936D02*
X64272563Y-6697412D01*
X64329706Y-6725984D02*
X64453515Y-6725984D01*
X64453515Y-6725984D02*
X64386848Y-6802174D01*
X64386848Y-6802174D02*
X64415420Y-6802174D01*
X64415420Y-6802174D02*
X64434468Y-6811698D01*
X64434468Y-6811698D02*
X64443991Y-6821222D01*
X64443991Y-6821222D02*
X64453515Y-6840269D01*
X64453515Y-6840269D02*
X64453515Y-6887888D01*
X64453515Y-6887888D02*
X64443991Y-6906936D01*
X64443991Y-6906936D02*
X64434468Y-6916460D01*
X64434468Y-6916460D02*
X64415420Y-6925984D01*
X64415420Y-6925984D02*
X64358277Y-6925984D01*
X64358277Y-6925984D02*
X64339229Y-6916460D01*
X64339229Y-6916460D02*
X64329706Y-6906936D01*
X64691610Y-6925984D02*
X64691610Y-6725984D01*
X64777325Y-6925984D02*
X64777325Y-6821222D01*
X64777325Y-6821222D02*
X64767801Y-6802174D01*
X64767801Y-6802174D02*
X64748753Y-6792650D01*
X64748753Y-6792650D02*
X64720182Y-6792650D01*
X64720182Y-6792650D02*
X64701134Y-6802174D01*
X64701134Y-6802174D02*
X64691610Y-6811698D01*
X64901134Y-6925984D02*
X64882087Y-6916460D01*
X64882087Y-6916460D02*
X64872563Y-6906936D01*
X64872563Y-6906936D02*
X64863039Y-6887888D01*
X64863039Y-6887888D02*
X64863039Y-6830746D01*
X64863039Y-6830746D02*
X64872563Y-6811698D01*
X64872563Y-6811698D02*
X64882087Y-6802174D01*
X64882087Y-6802174D02*
X64901134Y-6792650D01*
X64901134Y-6792650D02*
X64929706Y-6792650D01*
X64929706Y-6792650D02*
X64948753Y-6802174D01*
X64948753Y-6802174D02*
X64958277Y-6811698D01*
X64958277Y-6811698D02*
X64967801Y-6830746D01*
X64967801Y-6830746D02*
X64967801Y-6887888D01*
X64967801Y-6887888D02*
X64958277Y-6906936D01*
X64958277Y-6906936D02*
X64948753Y-6916460D01*
X64948753Y-6916460D02*
X64929706Y-6925984D01*
X64929706Y-6925984D02*
X64901134Y-6925984D01*
X65082087Y-6925984D02*
X65063039Y-6916460D01*
X65063039Y-6916460D02*
X65053515Y-6897412D01*
X65053515Y-6897412D02*
X65053515Y-6725984D01*
X65234468Y-6916460D02*
X65215420Y-6925984D01*
X65215420Y-6925984D02*
X65177325Y-6925984D01*
X65177325Y-6925984D02*
X65158277Y-6916460D01*
X65158277Y-6916460D02*
X65148753Y-6897412D01*
X65148753Y-6897412D02*
X65148753Y-6821222D01*
X65148753Y-6821222D02*
X65158277Y-6802174D01*
X65158277Y-6802174D02*
X65177325Y-6792650D01*
X65177325Y-6792650D02*
X65215420Y-6792650D01*
X65215420Y-6792650D02*
X65234468Y-6802174D01*
X65234468Y-6802174D02*
X65243991Y-6821222D01*
X65243991Y-6821222D02*
X65243991Y-6840269D01*
X65243991Y-6840269D02*
X65148753Y-6859317D01*
X65320182Y-6916460D02*
X65339230Y-6925984D01*
X65339230Y-6925984D02*
X65377325Y-6925984D01*
X65377325Y-6925984D02*
X65396372Y-6916460D01*
X65396372Y-6916460D02*
X65405896Y-6897412D01*
X65405896Y-6897412D02*
X65405896Y-6887888D01*
X65405896Y-6887888D02*
X65396372Y-6868841D01*
X65396372Y-6868841D02*
X65377325Y-6859317D01*
X65377325Y-6859317D02*
X65348753Y-6859317D01*
X65348753Y-6859317D02*
X65329706Y-6849793D01*
X65329706Y-6849793D02*
X65320182Y-6830746D01*
X65320182Y-6830746D02*
X65320182Y-6821222D01*
X65320182Y-6821222D02*
X65329706Y-6802174D01*
X65329706Y-6802174D02*
X65348753Y-6792650D01*
X65348753Y-6792650D02*
X65377325Y-6792650D01*
X65377325Y-6792650D02*
X65396372Y-6802174D01*
X65472563Y-7002174D02*
X65482087Y-6992650D01*
X65482087Y-6992650D02*
X65501134Y-6964079D01*
X65501134Y-6964079D02*
X65510658Y-6945031D01*
X65510658Y-6945031D02*
X65520182Y-6916460D01*
X65520182Y-6916460D02*
X65529706Y-6868841D01*
X65529706Y-6868841D02*
X65529706Y-6830746D01*
X65529706Y-6830746D02*
X65520182Y-6783127D01*
X65520182Y-6783127D02*
X65510658Y-6754555D01*
X65510658Y-6754555D02*
X65501134Y-6735508D01*
X65501134Y-6735508D02*
X65482087Y-6706936D01*
X65482087Y-6706936D02*
X65472563Y-6697412D01*
D12*
X60647500Y-7148500D02*
X60697500Y-7098500D01*
X60647500Y-7048500D01*
X60597500Y-7098500D01*
X60647500Y-7148500D01*
D11*
X61063039Y-7189984D02*
X60948753Y-7189984D01*
X61005896Y-7189984D02*
X61005896Y-6989984D01*
X61005896Y-6989984D02*
X60986848Y-7018555D01*
X60986848Y-7018555D02*
X60967801Y-7037603D01*
X60967801Y-7037603D02*
X60948753Y-7047127D01*
X61148753Y-7170936D02*
X61158277Y-7180460D01*
X61158277Y-7180460D02*
X61148753Y-7189984D01*
X61148753Y-7189984D02*
X61139229Y-7180460D01*
X61139229Y-7180460D02*
X61148753Y-7170936D01*
X61148753Y-7170936D02*
X61148753Y-7189984D01*
X61282086Y-6989984D02*
X61301134Y-6989984D01*
X61301134Y-6989984D02*
X61320182Y-6999508D01*
X61320182Y-6999508D02*
X61329705Y-7009031D01*
X61329705Y-7009031D02*
X61339229Y-7028079D01*
X61339229Y-7028079D02*
X61348753Y-7066174D01*
X61348753Y-7066174D02*
X61348753Y-7113793D01*
X61348753Y-7113793D02*
X61339229Y-7151888D01*
X61339229Y-7151888D02*
X61329705Y-7170936D01*
X61329705Y-7170936D02*
X61320182Y-7180460D01*
X61320182Y-7180460D02*
X61301134Y-7189984D01*
X61301134Y-7189984D02*
X61282086Y-7189984D01*
X61282086Y-7189984D02*
X61263039Y-7180460D01*
X61263039Y-7180460D02*
X61253515Y-7170936D01*
X61253515Y-7170936D02*
X61243991Y-7151888D01*
X61243991Y-7151888D02*
X61234467Y-7113793D01*
X61234467Y-7113793D02*
X61234467Y-7066174D01*
X61234467Y-7066174D02*
X61243991Y-7028079D01*
X61243991Y-7028079D02*
X61253515Y-7009031D01*
X61253515Y-7009031D02*
X61263039Y-6999508D01*
X61263039Y-6999508D02*
X61282086Y-6989984D01*
X61472562Y-6989984D02*
X61491610Y-6989984D01*
X61491610Y-6989984D02*
X61510658Y-6999508D01*
X61510658Y-6999508D02*
X61520182Y-7009031D01*
X61520182Y-7009031D02*
X61529705Y-7028079D01*
X61529705Y-7028079D02*
X61539229Y-7066174D01*
X61539229Y-7066174D02*
X61539229Y-7113793D01*
X61539229Y-7113793D02*
X61529705Y-7151888D01*
X61529705Y-7151888D02*
X61520182Y-7170936D01*
X61520182Y-7170936D02*
X61510658Y-7180460D01*
X61510658Y-7180460D02*
X61491610Y-7189984D01*
X61491610Y-7189984D02*
X61472562Y-7189984D01*
X61472562Y-7189984D02*
X61453515Y-7180460D01*
X61453515Y-7180460D02*
X61443991Y-7170936D01*
X61443991Y-7170936D02*
X61434467Y-7151888D01*
X61434467Y-7151888D02*
X61424943Y-7113793D01*
X61424943Y-7113793D02*
X61424943Y-7066174D01*
X61424943Y-7066174D02*
X61434467Y-7028079D01*
X61434467Y-7028079D02*
X61443991Y-7009031D01*
X61443991Y-7009031D02*
X61453515Y-6999508D01*
X61453515Y-6999508D02*
X61472562Y-6989984D01*
X61663039Y-6989984D02*
X61682086Y-6989984D01*
X61682086Y-6989984D02*
X61701134Y-6999508D01*
X61701134Y-6999508D02*
X61710658Y-7009031D01*
X61710658Y-7009031D02*
X61720182Y-7028079D01*
X61720182Y-7028079D02*
X61729705Y-7066174D01*
X61729705Y-7066174D02*
X61729705Y-7113793D01*
X61729705Y-7113793D02*
X61720182Y-7151888D01*
X61720182Y-7151888D02*
X61710658Y-7170936D01*
X61710658Y-7170936D02*
X61701134Y-7180460D01*
X61701134Y-7180460D02*
X61682086Y-7189984D01*
X61682086Y-7189984D02*
X61663039Y-7189984D01*
X61663039Y-7189984D02*
X61643991Y-7180460D01*
X61643991Y-7180460D02*
X61634467Y-7170936D01*
X61634467Y-7170936D02*
X61624943Y-7151888D01*
X61624943Y-7151888D02*
X61615420Y-7113793D01*
X61615420Y-7113793D02*
X61615420Y-7066174D01*
X61615420Y-7066174D02*
X61624943Y-7028079D01*
X61624943Y-7028079D02*
X61634467Y-7009031D01*
X61634467Y-7009031D02*
X61643991Y-6999508D01*
X61643991Y-6999508D02*
X61663039Y-6989984D01*
X61815420Y-7189984D02*
X61815420Y-7056650D01*
X61815420Y-7075698D02*
X61824943Y-7066174D01*
X61824943Y-7066174D02*
X61843991Y-7056650D01*
X61843991Y-7056650D02*
X61872563Y-7056650D01*
X61872563Y-7056650D02*
X61891610Y-7066174D01*
X61891610Y-7066174D02*
X61901134Y-7085222D01*
X61901134Y-7085222D02*
X61901134Y-7189984D01*
X61901134Y-7085222D02*
X61910658Y-7066174D01*
X61910658Y-7066174D02*
X61929705Y-7056650D01*
X61929705Y-7056650D02*
X61958277Y-7056650D01*
X61958277Y-7056650D02*
X61977324Y-7066174D01*
X61977324Y-7066174D02*
X61986848Y-7085222D01*
X61986848Y-7085222D02*
X61986848Y-7189984D01*
X62082086Y-7189984D02*
X62082086Y-7056650D01*
X62082086Y-7075698D02*
X62091610Y-7066174D01*
X62091610Y-7066174D02*
X62110658Y-7056650D01*
X62110658Y-7056650D02*
X62139229Y-7056650D01*
X62139229Y-7056650D02*
X62158277Y-7066174D01*
X62158277Y-7066174D02*
X62167801Y-7085222D01*
X62167801Y-7085222D02*
X62167801Y-7189984D01*
X62167801Y-7085222D02*
X62177324Y-7066174D01*
X62177324Y-7066174D02*
X62196372Y-7056650D01*
X62196372Y-7056650D02*
X62224943Y-7056650D01*
X62224943Y-7056650D02*
X62243991Y-7066174D01*
X62243991Y-7066174D02*
X62253515Y-7085222D01*
X62253515Y-7085222D02*
X62253515Y-7189984D01*
X62643991Y-6980460D02*
X62472563Y-7237603D01*
X62901134Y-6989984D02*
X62920182Y-6989984D01*
X62920182Y-6989984D02*
X62939229Y-6999508D01*
X62939229Y-6999508D02*
X62948753Y-7009031D01*
X62948753Y-7009031D02*
X62958277Y-7028079D01*
X62958277Y-7028079D02*
X62967801Y-7066174D01*
X62967801Y-7066174D02*
X62967801Y-7113793D01*
X62967801Y-7113793D02*
X62958277Y-7151888D01*
X62958277Y-7151888D02*
X62948753Y-7170936D01*
X62948753Y-7170936D02*
X62939229Y-7180460D01*
X62939229Y-7180460D02*
X62920182Y-7189984D01*
X62920182Y-7189984D02*
X62901134Y-7189984D01*
X62901134Y-7189984D02*
X62882086Y-7180460D01*
X62882086Y-7180460D02*
X62872563Y-7170936D01*
X62872563Y-7170936D02*
X62863039Y-7151888D01*
X62863039Y-7151888D02*
X62853515Y-7113793D01*
X62853515Y-7113793D02*
X62853515Y-7066174D01*
X62853515Y-7066174D02*
X62863039Y-7028079D01*
X62863039Y-7028079D02*
X62872563Y-7009031D01*
X62872563Y-7009031D02*
X62882086Y-6999508D01*
X62882086Y-6999508D02*
X62901134Y-6989984D01*
X63053515Y-7170936D02*
X63063039Y-7180460D01*
X63063039Y-7180460D02*
X63053515Y-7189984D01*
X63053515Y-7189984D02*
X63043991Y-7180460D01*
X63043991Y-7180460D02*
X63053515Y-7170936D01*
X63053515Y-7170936D02*
X63053515Y-7189984D01*
X63186848Y-6989984D02*
X63205896Y-6989984D01*
X63205896Y-6989984D02*
X63224944Y-6999508D01*
X63224944Y-6999508D02*
X63234467Y-7009031D01*
X63234467Y-7009031D02*
X63243991Y-7028079D01*
X63243991Y-7028079D02*
X63253515Y-7066174D01*
X63253515Y-7066174D02*
X63253515Y-7113793D01*
X63253515Y-7113793D02*
X63243991Y-7151888D01*
X63243991Y-7151888D02*
X63234467Y-7170936D01*
X63234467Y-7170936D02*
X63224944Y-7180460D01*
X63224944Y-7180460D02*
X63205896Y-7189984D01*
X63205896Y-7189984D02*
X63186848Y-7189984D01*
X63186848Y-7189984D02*
X63167801Y-7180460D01*
X63167801Y-7180460D02*
X63158277Y-7170936D01*
X63158277Y-7170936D02*
X63148753Y-7151888D01*
X63148753Y-7151888D02*
X63139229Y-7113793D01*
X63139229Y-7113793D02*
X63139229Y-7066174D01*
X63139229Y-7066174D02*
X63148753Y-7028079D01*
X63148753Y-7028079D02*
X63158277Y-7009031D01*
X63158277Y-7009031D02*
X63167801Y-6999508D01*
X63167801Y-6999508D02*
X63186848Y-6989984D01*
X63320182Y-6989984D02*
X63443991Y-6989984D01*
X63443991Y-6989984D02*
X63377325Y-7066174D01*
X63377325Y-7066174D02*
X63405896Y-7066174D01*
X63405896Y-7066174D02*
X63424944Y-7075698D01*
X63424944Y-7075698D02*
X63434467Y-7085222D01*
X63434467Y-7085222D02*
X63443991Y-7104269D01*
X63443991Y-7104269D02*
X63443991Y-7151888D01*
X63443991Y-7151888D02*
X63434467Y-7170936D01*
X63434467Y-7170936D02*
X63424944Y-7180460D01*
X63424944Y-7180460D02*
X63405896Y-7189984D01*
X63405896Y-7189984D02*
X63348753Y-7189984D01*
X63348753Y-7189984D02*
X63329706Y-7180460D01*
X63329706Y-7180460D02*
X63320182Y-7170936D01*
X63539229Y-7189984D02*
X63577325Y-7189984D01*
X63577325Y-7189984D02*
X63596372Y-7180460D01*
X63596372Y-7180460D02*
X63605896Y-7170936D01*
X63605896Y-7170936D02*
X63624944Y-7142365D01*
X63624944Y-7142365D02*
X63634467Y-7104269D01*
X63634467Y-7104269D02*
X63634467Y-7028079D01*
X63634467Y-7028079D02*
X63624944Y-7009031D01*
X63624944Y-7009031D02*
X63615420Y-6999508D01*
X63615420Y-6999508D02*
X63596372Y-6989984D01*
X63596372Y-6989984D02*
X63558277Y-6989984D01*
X63558277Y-6989984D02*
X63539229Y-6999508D01*
X63539229Y-6999508D02*
X63529706Y-7009031D01*
X63529706Y-7009031D02*
X63520182Y-7028079D01*
X63520182Y-7028079D02*
X63520182Y-7075698D01*
X63520182Y-7075698D02*
X63529706Y-7094746D01*
X63529706Y-7094746D02*
X63539229Y-7104269D01*
X63539229Y-7104269D02*
X63558277Y-7113793D01*
X63558277Y-7113793D02*
X63596372Y-7113793D01*
X63596372Y-7113793D02*
X63615420Y-7104269D01*
X63615420Y-7104269D02*
X63624944Y-7094746D01*
X63624944Y-7094746D02*
X63634467Y-7075698D01*
X63805896Y-7056650D02*
X63805896Y-7189984D01*
X63758277Y-6980460D02*
X63710658Y-7123317D01*
X63710658Y-7123317D02*
X63834467Y-7123317D01*
X63901134Y-6989984D02*
X63901134Y-7028079D01*
X63977325Y-6989984D02*
X63977325Y-7028079D01*
X64272563Y-7266174D02*
X64263039Y-7256650D01*
X64263039Y-7256650D02*
X64243991Y-7228079D01*
X64243991Y-7228079D02*
X64234468Y-7209031D01*
X64234468Y-7209031D02*
X64224944Y-7180460D01*
X64224944Y-7180460D02*
X64215420Y-7132841D01*
X64215420Y-7132841D02*
X64215420Y-7094746D01*
X64215420Y-7094746D02*
X64224944Y-7047127D01*
X64224944Y-7047127D02*
X64234468Y-7018555D01*
X64234468Y-7018555D02*
X64243991Y-6999508D01*
X64243991Y-6999508D02*
X64263039Y-6970936D01*
X64263039Y-6970936D02*
X64272563Y-6961412D01*
X64358277Y-7189984D02*
X64396372Y-7189984D01*
X64396372Y-7189984D02*
X64415420Y-7180460D01*
X64415420Y-7180460D02*
X64424944Y-7170936D01*
X64424944Y-7170936D02*
X64443991Y-7142365D01*
X64443991Y-7142365D02*
X64453515Y-7104269D01*
X64453515Y-7104269D02*
X64453515Y-7028079D01*
X64453515Y-7028079D02*
X64443991Y-7009031D01*
X64443991Y-7009031D02*
X64434468Y-6999508D01*
X64434468Y-6999508D02*
X64415420Y-6989984D01*
X64415420Y-6989984D02*
X64377325Y-6989984D01*
X64377325Y-6989984D02*
X64358277Y-6999508D01*
X64358277Y-6999508D02*
X64348753Y-7009031D01*
X64348753Y-7009031D02*
X64339229Y-7028079D01*
X64339229Y-7028079D02*
X64339229Y-7075698D01*
X64339229Y-7075698D02*
X64348753Y-7094746D01*
X64348753Y-7094746D02*
X64358277Y-7104269D01*
X64358277Y-7104269D02*
X64377325Y-7113793D01*
X64377325Y-7113793D02*
X64415420Y-7113793D01*
X64415420Y-7113793D02*
X64434468Y-7104269D01*
X64434468Y-7104269D02*
X64443991Y-7094746D01*
X64443991Y-7094746D02*
X64453515Y-7075698D01*
X64691610Y-7189984D02*
X64691610Y-6989984D01*
X64777325Y-7189984D02*
X64777325Y-7085222D01*
X64777325Y-7085222D02*
X64767801Y-7066174D01*
X64767801Y-7066174D02*
X64748753Y-7056650D01*
X64748753Y-7056650D02*
X64720182Y-7056650D01*
X64720182Y-7056650D02*
X64701134Y-7066174D01*
X64701134Y-7066174D02*
X64691610Y-7075698D01*
X64901134Y-7189984D02*
X64882087Y-7180460D01*
X64882087Y-7180460D02*
X64872563Y-7170936D01*
X64872563Y-7170936D02*
X64863039Y-7151888D01*
X64863039Y-7151888D02*
X64863039Y-7094746D01*
X64863039Y-7094746D02*
X64872563Y-7075698D01*
X64872563Y-7075698D02*
X64882087Y-7066174D01*
X64882087Y-7066174D02*
X64901134Y-7056650D01*
X64901134Y-7056650D02*
X64929706Y-7056650D01*
X64929706Y-7056650D02*
X64948753Y-7066174D01*
X64948753Y-7066174D02*
X64958277Y-7075698D01*
X64958277Y-7075698D02*
X64967801Y-7094746D01*
X64967801Y-7094746D02*
X64967801Y-7151888D01*
X64967801Y-7151888D02*
X64958277Y-7170936D01*
X64958277Y-7170936D02*
X64948753Y-7180460D01*
X64948753Y-7180460D02*
X64929706Y-7189984D01*
X64929706Y-7189984D02*
X64901134Y-7189984D01*
X65082087Y-7189984D02*
X65063039Y-7180460D01*
X65063039Y-7180460D02*
X65053515Y-7161412D01*
X65053515Y-7161412D02*
X65053515Y-6989984D01*
X65234468Y-7180460D02*
X65215420Y-7189984D01*
X65215420Y-7189984D02*
X65177325Y-7189984D01*
X65177325Y-7189984D02*
X65158277Y-7180460D01*
X65158277Y-7180460D02*
X65148753Y-7161412D01*
X65148753Y-7161412D02*
X65148753Y-7085222D01*
X65148753Y-7085222D02*
X65158277Y-7066174D01*
X65158277Y-7066174D02*
X65177325Y-7056650D01*
X65177325Y-7056650D02*
X65215420Y-7056650D01*
X65215420Y-7056650D02*
X65234468Y-7066174D01*
X65234468Y-7066174D02*
X65243991Y-7085222D01*
X65243991Y-7085222D02*
X65243991Y-7104269D01*
X65243991Y-7104269D02*
X65148753Y-7123317D01*
X65320182Y-7180460D02*
X65339230Y-7189984D01*
X65339230Y-7189984D02*
X65377325Y-7189984D01*
X65377325Y-7189984D02*
X65396372Y-7180460D01*
X65396372Y-7180460D02*
X65405896Y-7161412D01*
X65405896Y-7161412D02*
X65405896Y-7151888D01*
X65405896Y-7151888D02*
X65396372Y-7132841D01*
X65396372Y-7132841D02*
X65377325Y-7123317D01*
X65377325Y-7123317D02*
X65348753Y-7123317D01*
X65348753Y-7123317D02*
X65329706Y-7113793D01*
X65329706Y-7113793D02*
X65320182Y-7094746D01*
X65320182Y-7094746D02*
X65320182Y-7085222D01*
X65320182Y-7085222D02*
X65329706Y-7066174D01*
X65329706Y-7066174D02*
X65348753Y-7056650D01*
X65348753Y-7056650D02*
X65377325Y-7056650D01*
X65377325Y-7056650D02*
X65396372Y-7066174D01*
X65472563Y-7266174D02*
X65482087Y-7256650D01*
X65482087Y-7256650D02*
X65501134Y-7228079D01*
X65501134Y-7228079D02*
X65510658Y-7209031D01*
X65510658Y-7209031D02*
X65520182Y-7180460D01*
X65520182Y-7180460D02*
X65529706Y-7132841D01*
X65529706Y-7132841D02*
X65529706Y-7094746D01*
X65529706Y-7094746D02*
X65520182Y-7047127D01*
X65520182Y-7047127D02*
X65510658Y-7018555D01*
X65510658Y-7018555D02*
X65501134Y-6999508D01*
X65501134Y-6999508D02*
X65482087Y-6970936D01*
X65482087Y-6970936D02*
X65472563Y-6961412D01*
M02*
