M48
; DRILL file {KiCad 8.0.8} date 2025-02-06T15:12:18+0100
; FORMAT={-:-/ absolute / inch / decimal}
; #@! TF.CreationDate,2025-02-06T15:12:18+01:00
; #@! TF.GenerationSoftware,Kicad,Pcbnew,8.0.8
; #@! TF.FileFunction,Plated,1,2,PTH
FMAT,2
INCH
; #@! TA.AperFunction,Plated,PTH,ViaDrill
T1C0.0118
; #@! TA.AperFunction,Plated,PTH,ComponentDrill
T2C0.0236
; #@! TA.AperFunction,Plated,PTH,ComponentDrill
T3C0.0276
; #@! TA.AperFunction,Plated,PTH,ComponentDrill
T4C0.0315
; #@! TA.AperFunction,Plated,PTH,ComponentDrill
T5C0.0394
%
G90
G05
T1
X23.937Y-1.1024
X23.937Y-1.2205
X23.937Y-1.3386
X23.937Y-1.4567
X23.937Y-1.5748
X23.937Y-1.6929
X23.937Y-1.811
X23.937Y-1.9291
X23.937Y-2.0472
X23.9764Y-2.0866
X24.0157Y-1.2205
X24.0551Y-1.1024
X24.0551Y-1.2992
X24.0945Y-1.9685
X24.0945Y-2.0866
X24.1339Y-1.2205
X24.1634Y-1.6535
X24.1732Y-1.1024
X24.1732Y-1.2992
X24.2126Y-1.9685
X24.2126Y-2.0866
X24.252Y-1.2205
X24.252Y-1.6535
X24.2913Y-1.1024
X24.2913Y-1.2992
X24.3307Y-1.6535
X24.3307Y-1.7323
X24.3307Y-1.811
X24.3307Y-1.9094
X24.3307Y-2.0866
X24.3701Y-1.5354
X24.3701Y-1.6142
X24.4094Y-1.1024
X24.4173Y-1.378
X24.4488Y-2.0866
X24.5276Y-1.1024
X24.5669Y-2.0866
X24.5984Y-1.378
X24.6419Y-1.9057
X24.6457Y-1.1024
X24.6457Y-1.4961
X24.685Y-2.0866
X24.7539Y-1.2402
X24.7638Y-1.1024
X24.7638Y-1.4961
X24.7835Y-1.2894
X24.8031Y-2.0866
X24.8425Y-1.2402
X24.8622Y-1.2894
X24.8819Y-1.1024
X24.8819Y-1.4961
X24.9213Y-2.0866
X24.9311Y-1.2402
X24.9606Y-1.2894
X25.0Y-1.1024
X25.0Y-1.4961
X25.0157Y-1.6501
X25.0197Y-1.2402
X25.0394Y-2.0866
X25.0492Y-1.2894
X25.0748Y-1.9843
X25.0787Y-1.4272
X25.0787Y-1.7953
X25.1083Y-1.2402
X25.1181Y-1.1024
X25.1181Y-1.4961
X25.1575Y-2.0866
X25.1614Y-1.9843
X25.187Y-1.4272
X25.2282Y-1.6722
X25.2362Y-1.1024
X25.2756Y-2.0866
X25.3543Y-1.1024
X25.3543Y-1.2992
X25.3543Y-1.4173
X25.3543Y-1.5354
X25.3819Y-1.5999
X25.3937Y-2.0866
X25.4331Y-1.811
X25.4331Y-1.9291
X25.4724Y-1.1024
X25.5118Y-1.1417
X25.5118Y-1.2598
X25.5118Y-1.378
X25.5118Y-1.4961
X25.5118Y-1.6142
X25.5118Y-1.7323
X25.5118Y-1.8504
X25.5118Y-1.9685
X25.5118Y-2.0866
T2
X24.2618Y-1.437
X24.2618Y-1.5157
T3
X24.6817Y-1.3459
X24.7317Y-1.3959
X24.7817Y-1.3459
X24.9663Y-1.3459
X25.0163Y-1.3959
X25.0663Y-1.3459
T4
X24.5079Y-1.7126
X24.5079Y-1.8126
X24.5079Y-1.9126
T5
X24.0551Y-1.4439
X24.0551Y-1.5439
X24.0551Y-1.6439
X24.0551Y-1.7439
X24.0551Y-1.8439
X25.2362Y-1.2687
X25.2362Y-1.3687
X25.2992Y-1.8317
X25.2992Y-1.9317
M30
