%TF.GenerationSoftware,KiCad,Pcbnew,8.0.8*%
%TF.CreationDate,2025-02-06T15:12:14+01:00*%
%TF.ProjectId,mini-laser-driver,6d696e69-2d6c-4617-9365-722d64726976,rev?*%
%TF.SameCoordinates,Original*%
%TF.FileFunction,Legend,Bot*%
%TF.FilePolarity,Positive*%
%FSLAX46Y46*%
G04 Gerber Fmt 4.6, Leading zero omitted, Abs format (unit mm)*
G04 Created by KiCad (PCBNEW 8.0.8) date 2025-02-06 15:12:14*
%MOMM*%
%LPD*%
G01*
G04 APERTURE LIST*
%ADD10C,0.100000*%
%ADD11C,0.200000*%
G04 APERTURE END LIST*
D10*
X613000000Y-40250000D02*
X618500000Y-40250000D01*
X618500000Y-48750000D01*
X613000000Y-48750000D01*
X613000000Y-40250000D01*
D11*
G36*
X617640718Y-41610000D02*
G01*
X618000732Y-40593949D01*
X617780181Y-40593949D01*
X617525436Y-41344263D01*
X617278750Y-40593949D01*
X617063084Y-40593949D01*
X617423586Y-41610000D01*
X617640718Y-41610000D01*
G37*
G36*
X616329867Y-41078527D02*
G01*
X616520132Y-41109790D01*
X616535825Y-41062102D01*
X616563852Y-41027969D01*
X616608459Y-41005652D01*
X616652023Y-41000369D01*
X616701975Y-41007857D01*
X616746864Y-41032867D01*
X616767062Y-41053614D01*
X616791536Y-41098676D01*
X616804003Y-41148125D01*
X616809377Y-41201583D01*
X616810048Y-41231667D01*
X616808520Y-41280832D01*
X616802873Y-41330962D01*
X616791325Y-41378723D01*
X616769248Y-41424128D01*
X616766573Y-41427794D01*
X616729593Y-41462622D01*
X616684233Y-41481375D01*
X616649337Y-41484947D01*
X616599389Y-41477070D01*
X616559455Y-41453440D01*
X616531044Y-41413637D01*
X616514884Y-41367344D01*
X616509874Y-41344263D01*
X616320341Y-41375526D01*
X616335866Y-41426804D01*
X616356579Y-41472285D01*
X616386606Y-41517164D01*
X616423410Y-41554472D01*
X616433670Y-41562616D01*
X616479130Y-41590185D01*
X616524767Y-41607847D01*
X616575875Y-41619477D01*
X616632452Y-41625077D01*
X616658374Y-41625631D01*
X616716090Y-41622068D01*
X616769256Y-41611377D01*
X616817871Y-41593560D01*
X616861935Y-41568616D01*
X616901448Y-41536544D01*
X616913607Y-41524270D01*
X616945896Y-41483438D01*
X616971504Y-41437144D01*
X616990432Y-41385390D01*
X617002680Y-41328174D01*
X617007783Y-41276322D01*
X617008618Y-41243391D01*
X617006286Y-41188643D01*
X616999292Y-41137818D01*
X616984743Y-41082008D01*
X616963480Y-41031847D01*
X616935501Y-40987337D01*
X616913119Y-40960802D01*
X616874937Y-40926438D01*
X616832015Y-40899184D01*
X616784353Y-40879040D01*
X616731952Y-40866005D01*
X616674810Y-40860080D01*
X616654710Y-40859685D01*
X616599080Y-40862280D01*
X616548662Y-40870064D01*
X616497424Y-40885314D01*
X616452995Y-40907341D01*
X616442951Y-40913907D01*
X616402210Y-40948752D01*
X616371866Y-40987251D01*
X616347049Y-41032833D01*
X616329867Y-41078527D01*
G37*
G36*
X615551221Y-41078527D02*
G01*
X615741486Y-41109790D01*
X615757178Y-41062102D01*
X615785205Y-41027969D01*
X615829813Y-41005652D01*
X615873377Y-41000369D01*
X615923329Y-41007857D01*
X615968218Y-41032867D01*
X615988415Y-41053614D01*
X616012889Y-41098676D01*
X616025357Y-41148125D01*
X616030730Y-41201583D01*
X616031402Y-41231667D01*
X616029874Y-41280832D01*
X616024227Y-41330962D01*
X616012679Y-41378723D01*
X615990602Y-41424128D01*
X615987927Y-41427794D01*
X615950947Y-41462622D01*
X615905587Y-41481375D01*
X615870690Y-41484947D01*
X615820743Y-41477070D01*
X615780809Y-41453440D01*
X615752398Y-41413637D01*
X615736238Y-41367344D01*
X615731228Y-41344263D01*
X615541695Y-41375526D01*
X615557219Y-41426804D01*
X615577933Y-41472285D01*
X615607959Y-41517164D01*
X615644764Y-41554472D01*
X615655024Y-41562616D01*
X615700484Y-41590185D01*
X615746121Y-41607847D01*
X615797229Y-41619477D01*
X615853806Y-41625077D01*
X615879727Y-41625631D01*
X615937444Y-41622068D01*
X615990610Y-41611377D01*
X616039225Y-41593560D01*
X616083288Y-41568616D01*
X616122801Y-41536544D01*
X616134961Y-41524270D01*
X616167250Y-41483438D01*
X616192858Y-41437144D01*
X616211786Y-41385390D01*
X616224033Y-41328174D01*
X616229137Y-41276322D01*
X616229972Y-41243391D01*
X616227640Y-41188643D01*
X616220646Y-41137818D01*
X616206097Y-41082008D01*
X616184833Y-41031847D01*
X616156855Y-40987337D01*
X616134473Y-40960802D01*
X616096291Y-40926438D01*
X616053369Y-40899184D01*
X616005707Y-40879040D01*
X615953306Y-40866005D01*
X615896164Y-40860080D01*
X615876064Y-40859685D01*
X615820433Y-40862280D01*
X615770016Y-40870064D01*
X615718778Y-40885314D01*
X615674349Y-40907341D01*
X615664305Y-40913907D01*
X615623564Y-40948752D01*
X615593220Y-40987251D01*
X615568403Y-41032833D01*
X615551221Y-41078527D01*
G37*
G36*
X615058339Y-41319351D02*
G01*
X614866120Y-41297369D01*
X614855358Y-41347217D01*
X614833466Y-41391762D01*
X614817271Y-41411674D01*
X614776577Y-41441828D01*
X614727256Y-41453643D01*
X614723970Y-41453684D01*
X614674569Y-41445269D01*
X614632368Y-41420024D01*
X614621632Y-41409720D01*
X614594433Y-41366425D01*
X614582248Y-41318267D01*
X614579623Y-41276608D01*
X614584529Y-41224144D01*
X614602978Y-41174942D01*
X614621144Y-41151556D01*
X614662290Y-41123005D01*
X614713067Y-41110443D01*
X614729344Y-41109790D01*
X614779576Y-41117423D01*
X614826468Y-41140321D01*
X614865817Y-41173980D01*
X614878332Y-41187948D01*
X615034891Y-41163768D01*
X614935973Y-40609581D01*
X614425750Y-40609581D01*
X614425750Y-40797159D01*
X614789672Y-40797159D01*
X614819958Y-40973503D01*
X614775281Y-40953200D01*
X614725753Y-40940664D01*
X614688066Y-40937843D01*
X614633742Y-40942296D01*
X614583180Y-40955655D01*
X614536382Y-40977919D01*
X614493348Y-41009090D01*
X614470446Y-41030900D01*
X614435614Y-41074170D01*
X614409338Y-41122769D01*
X614391616Y-41176698D01*
X614383236Y-41227165D01*
X614381053Y-41272212D01*
X614384501Y-41325019D01*
X614394844Y-41375301D01*
X614412083Y-41423059D01*
X614436218Y-41468293D01*
X614453105Y-41493007D01*
X614485654Y-41531214D01*
X614529641Y-41568515D01*
X614579003Y-41596490D01*
X614633740Y-41615140D01*
X614683460Y-41623559D01*
X614725924Y-41625631D01*
X614776411Y-41622712D01*
X614830732Y-41611926D01*
X614880122Y-41593193D01*
X614924579Y-41566512D01*
X614953314Y-41542588D01*
X614988393Y-41503522D01*
X615016693Y-41458987D01*
X615038215Y-41408981D01*
X615051267Y-41361766D01*
X615058339Y-41319351D01*
G37*
G36*
X613982937Y-41610000D02*
G01*
X614342951Y-40593949D01*
X614122400Y-40593949D01*
X613867655Y-41344263D01*
X613620969Y-40593949D01*
X613405303Y-40593949D01*
X613765806Y-41610000D01*
X613982937Y-41610000D01*
G37*
G36*
X617897662Y-43290000D02*
G01*
X617897662Y-42273949D01*
X617151011Y-42273949D01*
X617151011Y-42445896D01*
X617694207Y-42445896D01*
X617694207Y-42664738D01*
X617188625Y-42664738D01*
X617188625Y-42836685D01*
X617694207Y-42836685D01*
X617694207Y-43118053D01*
X617131716Y-43118053D01*
X617131716Y-43290000D01*
X617897662Y-43290000D01*
G37*
G36*
X616962456Y-43290000D02*
G01*
X616962456Y-42273949D01*
X616764619Y-42273949D01*
X616352581Y-42960516D01*
X616352581Y-42273949D01*
X616163782Y-42273949D01*
X616163782Y-43290000D01*
X616367725Y-43290000D01*
X616773656Y-42613691D01*
X616773656Y-43290000D01*
X616962456Y-43290000D01*
G37*
G36*
X617429204Y-44594842D02*
G01*
X617429204Y-44422896D01*
X616990788Y-44422896D01*
X616990788Y-44831270D01*
X617031304Y-44864594D01*
X617074909Y-44892270D01*
X617118924Y-44914984D01*
X617168408Y-44936295D01*
X617175924Y-44939225D01*
X617229077Y-44957307D01*
X617282533Y-44970948D01*
X617336294Y-44980148D01*
X617390358Y-44984906D01*
X617421388Y-44985631D01*
X617479222Y-44983287D01*
X617534205Y-44976254D01*
X617586338Y-44964534D01*
X617635620Y-44948125D01*
X617682051Y-44927027D01*
X617696894Y-44918953D01*
X617738897Y-44891939D01*
X617776796Y-44860907D01*
X617815823Y-44819624D01*
X617844829Y-44779885D01*
X617869731Y-44736127D01*
X617873482Y-44728443D01*
X617893569Y-44681151D01*
X617909500Y-44632330D01*
X617921275Y-44581981D01*
X617928894Y-44530103D01*
X617932358Y-44476697D01*
X617932588Y-44458555D01*
X617930270Y-44400449D01*
X617923315Y-44344833D01*
X617911723Y-44291708D01*
X617895494Y-44241072D01*
X617874629Y-44192927D01*
X617866643Y-44177431D01*
X617839767Y-44133287D01*
X617808597Y-44093179D01*
X617773134Y-44057107D01*
X617733378Y-44025070D01*
X617689328Y-43997069D01*
X617673691Y-43988632D01*
X617622263Y-43966619D01*
X617572429Y-43952518D01*
X617518085Y-43943231D01*
X617467913Y-43939104D01*
X617432623Y-43938318D01*
X617376015Y-43940345D01*
X617323425Y-43946427D01*
X617274854Y-43956564D01*
X617221874Y-43974081D01*
X617174682Y-43997437D01*
X617139776Y-44021360D01*
X617102854Y-44054734D01*
X617071220Y-44092572D01*
X617044876Y-44134876D01*
X617023822Y-44181645D01*
X617008057Y-44232878D01*
X617003977Y-44250949D01*
X617205966Y-44282212D01*
X617222920Y-44235715D01*
X617250054Y-44192117D01*
X617286078Y-44156427D01*
X617329841Y-44130145D01*
X617380531Y-44114773D01*
X617432623Y-44110265D01*
X617488349Y-44114367D01*
X617538838Y-44126674D01*
X617584092Y-44147185D01*
X617624110Y-44175901D01*
X617644626Y-44195994D01*
X617675271Y-44237379D01*
X617698388Y-44286735D01*
X617712213Y-44335384D01*
X617720507Y-44389889D01*
X617723196Y-44439784D01*
X617723272Y-44450251D01*
X617721328Y-44504819D01*
X617715497Y-44554951D01*
X617703367Y-44609253D01*
X617685638Y-44657166D01*
X617657879Y-44704991D01*
X617643649Y-44722826D01*
X617606346Y-44758229D01*
X617564322Y-44784936D01*
X617517576Y-44802948D01*
X617466108Y-44812264D01*
X617434577Y-44813684D01*
X617382702Y-44809452D01*
X617334674Y-44798031D01*
X617306594Y-44788039D01*
X617260959Y-44767259D01*
X617217257Y-44741259D01*
X617196196Y-44725757D01*
X617196196Y-44594842D01*
X617429204Y-44594842D01*
G37*
G36*
X616807117Y-44970000D02*
G01*
X616807117Y-43953949D01*
X616609281Y-43953949D01*
X616197243Y-44640516D01*
X616197243Y-43953949D01*
X616008443Y-43953949D01*
X616008443Y-44970000D01*
X616212386Y-44970000D01*
X616618318Y-44293691D01*
X616618318Y-44970000D01*
X616807117Y-44970000D01*
G37*
G36*
X615799860Y-44970000D02*
G01*
X615417131Y-44970000D01*
X615389688Y-44969664D01*
X615339039Y-44966977D01*
X615288809Y-44960743D01*
X615237124Y-44948506D01*
X615226033Y-44944783D01*
X615179689Y-44925811D01*
X615135038Y-44900471D01*
X615094242Y-44867418D01*
X615089893Y-44863087D01*
X615057382Y-44825470D01*
X615028931Y-44782571D01*
X615004542Y-44734390D01*
X614986531Y-44687899D01*
X614982775Y-44676407D01*
X614970174Y-44627749D01*
X614961450Y-44574787D01*
X614956997Y-44524913D01*
X614955512Y-44471744D01*
X614955652Y-44462219D01*
X615165806Y-44462219D01*
X615166130Y-44490879D01*
X615168725Y-44543574D01*
X615174746Y-44595485D01*
X615186566Y-44648332D01*
X615190520Y-44660772D01*
X615210136Y-44706889D01*
X615239811Y-44746273D01*
X615273968Y-44770223D01*
X615321632Y-44788283D01*
X615340463Y-44792090D01*
X615391727Y-44796898D01*
X615444731Y-44798053D01*
X615596406Y-44798053D01*
X615596406Y-44125896D01*
X615505059Y-44125896D01*
X615497369Y-44125906D01*
X615441601Y-44126669D01*
X615391088Y-44128987D01*
X615338241Y-44135666D01*
X615334689Y-44136467D01*
X615286156Y-44153862D01*
X615244207Y-44183538D01*
X615235186Y-44192765D01*
X615205977Y-44235119D01*
X615186566Y-44281723D01*
X615180585Y-44302745D01*
X615171665Y-44352767D01*
X615167103Y-44406882D01*
X615165806Y-44462219D01*
X614955652Y-44462219D01*
X614956028Y-44436737D01*
X614958732Y-44386903D01*
X614964818Y-44332822D01*
X614974060Y-44283112D01*
X614988485Y-44231653D01*
X614999529Y-44201939D01*
X615023133Y-44152179D01*
X615051529Y-44107211D01*
X615084717Y-44067034D01*
X615105099Y-44046970D01*
X615144884Y-44015903D01*
X615188648Y-43991328D01*
X615236392Y-43973244D01*
X615273104Y-43964803D01*
X615323347Y-43958189D01*
X615375955Y-43954873D01*
X615428122Y-43953949D01*
X615799860Y-43953949D01*
X615799860Y-44970000D01*
G37*
G36*
X617671004Y-46650000D02*
G01*
X617671004Y-45805896D01*
X617969713Y-45805896D01*
X617969713Y-45633949D01*
X617169574Y-45633949D01*
X617169574Y-45805896D01*
X617467550Y-45805896D01*
X617467550Y-46650000D01*
X617671004Y-46650000D01*
G37*
G36*
X617048918Y-46650000D02*
G01*
X617048918Y-45633949D01*
X616845708Y-45633949D01*
X616845708Y-46650000D01*
X617048918Y-46650000D01*
G37*
G36*
X616656664Y-46650000D02*
G01*
X616656664Y-45633949D01*
X616352337Y-45633949D01*
X616169644Y-46327110D01*
X615988904Y-45633949D01*
X615684089Y-45633949D01*
X615684089Y-46650000D01*
X615872889Y-46650000D01*
X615872889Y-45850104D01*
X616072923Y-46650000D01*
X616268562Y-46650000D01*
X616467864Y-45850104D01*
X616467864Y-46650000D01*
X616656664Y-46650000D01*
G37*
G36*
X615488450Y-46650000D02*
G01*
X615284996Y-46650000D01*
X615284996Y-46259211D01*
X615152372Y-46259211D01*
X615095119Y-46258521D01*
X615044107Y-46256453D01*
X614993449Y-46252400D01*
X614941591Y-46244801D01*
X614924847Y-46240547D01*
X614878471Y-46222354D01*
X614836078Y-46197173D01*
X614814289Y-46180168D01*
X614778413Y-46141703D01*
X614750593Y-46098255D01*
X614746511Y-46090264D01*
X614728770Y-46042218D01*
X614719553Y-45992530D01*
X614717044Y-45945847D01*
X614926448Y-45945847D01*
X614929676Y-45977309D01*
X614949406Y-46023028D01*
X614969098Y-46045468D01*
X615012909Y-46071877D01*
X615018289Y-46073740D01*
X615068415Y-46082921D01*
X615118514Y-46086302D01*
X615173621Y-46087264D01*
X615284996Y-46087264D01*
X615284996Y-45805896D01*
X615186810Y-45805896D01*
X615142243Y-45806223D01*
X615090780Y-45807826D01*
X615040509Y-45812735D01*
X614997837Y-45826774D01*
X614958688Y-45856699D01*
X614934508Y-45896571D01*
X614926448Y-45945847D01*
X614717044Y-45945847D01*
X614716887Y-45942916D01*
X614719680Y-45892565D01*
X614729713Y-45840202D01*
X614747043Y-45793365D01*
X614775261Y-45747278D01*
X614794195Y-45724917D01*
X614831761Y-45691218D01*
X614873810Y-45665944D01*
X614920341Y-45649092D01*
X614941057Y-45644730D01*
X614994273Y-45638741D01*
X615049821Y-45635739D01*
X615107295Y-45634319D01*
X615162142Y-45633949D01*
X615488450Y-45633949D01*
X615488450Y-46650000D01*
G37*
G36*
X617640718Y-48330000D02*
G01*
X618000732Y-47313949D01*
X617780181Y-47313949D01*
X617525436Y-48064263D01*
X617278750Y-47313949D01*
X617063084Y-47313949D01*
X617423586Y-48330000D01*
X617640718Y-48330000D01*
G37*
G36*
X616534156Y-47298474D02*
G01*
X616585756Y-47301486D01*
X616634621Y-47308332D01*
X616687118Y-47320849D01*
X616736043Y-47338374D01*
X616740444Y-47340267D01*
X616787437Y-47365187D01*
X616827904Y-47394353D01*
X616866224Y-47429720D01*
X616873546Y-47437446D01*
X616907234Y-47477966D01*
X616936057Y-47521634D01*
X616960013Y-47568450D01*
X616977905Y-47616771D01*
X616991402Y-47669837D01*
X616999474Y-47719099D01*
X617004317Y-47771846D01*
X617005931Y-47828080D01*
X617005802Y-47843092D01*
X617002693Y-47901109D01*
X616995440Y-47955882D01*
X616984043Y-48007412D01*
X616968501Y-48055697D01*
X616943246Y-48111493D01*
X616911514Y-48162220D01*
X616873307Y-48207878D01*
X616829614Y-48247563D01*
X616781425Y-48280521D01*
X616728740Y-48306753D01*
X616671559Y-48326260D01*
X616622577Y-48337021D01*
X616570717Y-48343479D01*
X616515980Y-48345631D01*
X616461930Y-48343467D01*
X616410665Y-48336976D01*
X616362187Y-48326156D01*
X616305507Y-48306547D01*
X616253179Y-48280175D01*
X616205205Y-48247041D01*
X616161584Y-48207145D01*
X616145524Y-48189418D01*
X616109907Y-48141450D01*
X616080766Y-48088272D01*
X616062116Y-48041976D01*
X616047610Y-47992345D01*
X616037249Y-47939379D01*
X616031032Y-47883077D01*
X616028960Y-47823440D01*
X616029044Y-47818555D01*
X616239253Y-47818555D01*
X616239329Y-47829566D01*
X616241992Y-47882025D01*
X616250209Y-47939261D01*
X616263905Y-47990262D01*
X616286807Y-48041886D01*
X616317166Y-48085024D01*
X616327076Y-48095760D01*
X616364451Y-48127882D01*
X616412288Y-48154203D01*
X616465590Y-48169442D01*
X616516713Y-48173684D01*
X616531751Y-48173335D01*
X616581770Y-48166613D01*
X616633954Y-48148455D01*
X616680825Y-48119123D01*
X616717480Y-48084291D01*
X616727033Y-48072759D01*
X616755616Y-48027244D01*
X616774106Y-47981849D01*
X616787049Y-47930563D01*
X616794445Y-47873388D01*
X616796371Y-47821242D01*
X616796296Y-47810322D01*
X616793666Y-47758321D01*
X616785552Y-47701635D01*
X616772028Y-47651183D01*
X616749412Y-47600201D01*
X616719434Y-47557704D01*
X616709626Y-47547115D01*
X616666579Y-47511593D01*
X616617425Y-47487001D01*
X616569406Y-47474449D01*
X616516713Y-47470265D01*
X616501214Y-47470602D01*
X616450018Y-47477104D01*
X616397319Y-47494667D01*
X616350817Y-47523037D01*
X616315212Y-47556727D01*
X616310539Y-47562203D01*
X616281980Y-47605423D01*
X616260691Y-47657198D01*
X616248229Y-47708386D01*
X616241107Y-47765859D01*
X616239253Y-47818555D01*
X616029044Y-47818555D01*
X616029482Y-47792937D01*
X616033657Y-47734479D01*
X616042007Y-47679418D01*
X616054532Y-47627753D01*
X616071232Y-47579484D01*
X616092107Y-47534612D01*
X616124072Y-47483299D01*
X616162561Y-47437292D01*
X616206487Y-47397255D01*
X616254767Y-47364005D01*
X616307400Y-47337540D01*
X616364385Y-47317861D01*
X616413108Y-47307004D01*
X616464616Y-47300489D01*
X616518911Y-47298318D01*
X616534156Y-47298474D01*
G37*
G36*
X615877773Y-47313949D02*
G01*
X615674319Y-47313949D01*
X615674319Y-47865450D01*
X615673957Y-47918414D01*
X615672655Y-47968125D01*
X615669321Y-48017634D01*
X615666748Y-48035443D01*
X615650264Y-48082174D01*
X615619169Y-48123394D01*
X615604710Y-48135826D01*
X615558738Y-48160338D01*
X615510646Y-48171318D01*
X615470376Y-48173684D01*
X615420359Y-48170202D01*
X615371358Y-48156829D01*
X615339706Y-48138025D01*
X615306218Y-48100823D01*
X615287534Y-48053333D01*
X615286950Y-48050097D01*
X615281443Y-48001394D01*
X615278981Y-47952153D01*
X615277992Y-47899237D01*
X615277913Y-47877173D01*
X615277913Y-47313949D01*
X615074703Y-47313949D01*
X615074703Y-47846643D01*
X615075108Y-47901117D01*
X615076325Y-47950355D01*
X615078855Y-48002531D01*
X615083283Y-48053874D01*
X615091311Y-48104808D01*
X615105881Y-48153923D01*
X615129345Y-48201184D01*
X615152128Y-48232302D01*
X615189509Y-48268183D01*
X615231197Y-48295884D01*
X615270586Y-48314856D01*
X615321299Y-48331085D01*
X615374569Y-48340552D01*
X615427986Y-48344880D01*
X615464270Y-48345631D01*
X615515870Y-48344455D01*
X615569906Y-48340109D01*
X615623533Y-48331220D01*
X615673499Y-48316222D01*
X615683112Y-48312170D01*
X615726618Y-48289172D01*
X615767421Y-48259411D01*
X615800837Y-48224975D01*
X615829104Y-48183954D01*
X615850347Y-48137886D01*
X615857745Y-48112379D01*
X615866508Y-48063592D01*
X615872121Y-48012387D01*
X615875407Y-47962173D01*
X615877284Y-47906119D01*
X615877773Y-47854947D01*
X615877773Y-47313949D01*
G37*
G36*
X614639462Y-48330000D02*
G01*
X614639462Y-47485896D01*
X614938171Y-47485896D01*
X614938171Y-47313949D01*
X614138032Y-47313949D01*
X614138032Y-47485896D01*
X614436008Y-47485896D01*
X614436008Y-48330000D01*
X614639462Y-48330000D01*
G37*
D10*
X631243734Y-31086704D02*
X630767544Y-31086704D01*
X631338972Y-31372419D02*
X631005639Y-30372419D01*
X631005639Y-30372419D02*
X630672306Y-31372419D01*
X630338972Y-31372419D02*
X630338972Y-30372419D01*
X630338972Y-30372419D02*
X629958020Y-30372419D01*
X629958020Y-30372419D02*
X629862782Y-30420038D01*
X629862782Y-30420038D02*
X629815163Y-30467657D01*
X629815163Y-30467657D02*
X629767544Y-30562895D01*
X629767544Y-30562895D02*
X629767544Y-30705752D01*
X629767544Y-30705752D02*
X629815163Y-30800990D01*
X629815163Y-30800990D02*
X629862782Y-30848609D01*
X629862782Y-30848609D02*
X629958020Y-30896228D01*
X629958020Y-30896228D02*
X630338972Y-30896228D01*
X629386591Y-30467657D02*
X629338972Y-30420038D01*
X629338972Y-30420038D02*
X629243734Y-30372419D01*
X629243734Y-30372419D02*
X629005639Y-30372419D01*
X629005639Y-30372419D02*
X628910401Y-30420038D01*
X628910401Y-30420038D02*
X628862782Y-30467657D01*
X628862782Y-30467657D02*
X628815163Y-30562895D01*
X628815163Y-30562895D02*
X628815163Y-30658133D01*
X628815163Y-30658133D02*
X628862782Y-30800990D01*
X628862782Y-30800990D02*
X629434210Y-31372419D01*
X629434210Y-31372419D02*
X628815163Y-31372419D01*
X628196115Y-30372419D02*
X628100877Y-30372419D01*
X628100877Y-30372419D02*
X628005639Y-30420038D01*
X628005639Y-30420038D02*
X627958020Y-30467657D01*
X627958020Y-30467657D02*
X627910401Y-30562895D01*
X627910401Y-30562895D02*
X627862782Y-30753371D01*
X627862782Y-30753371D02*
X627862782Y-30991466D01*
X627862782Y-30991466D02*
X627910401Y-31181942D01*
X627910401Y-31181942D02*
X627958020Y-31277180D01*
X627958020Y-31277180D02*
X628005639Y-31324800D01*
X628005639Y-31324800D02*
X628100877Y-31372419D01*
X628100877Y-31372419D02*
X628196115Y-31372419D01*
X628196115Y-31372419D02*
X628291353Y-31324800D01*
X628291353Y-31324800D02*
X628338972Y-31277180D01*
X628338972Y-31277180D02*
X628386591Y-31181942D01*
X628386591Y-31181942D02*
X628434210Y-30991466D01*
X628434210Y-30991466D02*
X628434210Y-30753371D01*
X628434210Y-30753371D02*
X628386591Y-30562895D01*
X628386591Y-30562895D02*
X628338972Y-30467657D01*
X628338972Y-30467657D02*
X628291353Y-30420038D01*
X628291353Y-30420038D02*
X628196115Y-30372419D01*
X627481829Y-30467657D02*
X627434210Y-30420038D01*
X627434210Y-30420038D02*
X627338972Y-30372419D01*
X627338972Y-30372419D02*
X627100877Y-30372419D01*
X627100877Y-30372419D02*
X627005639Y-30420038D01*
X627005639Y-30420038D02*
X626958020Y-30467657D01*
X626958020Y-30467657D02*
X626910401Y-30562895D01*
X626910401Y-30562895D02*
X626910401Y-30658133D01*
X626910401Y-30658133D02*
X626958020Y-30800990D01*
X626958020Y-30800990D02*
X627529448Y-31372419D01*
X627529448Y-31372419D02*
X626910401Y-31372419D01*
X626005639Y-30372419D02*
X626481829Y-30372419D01*
X626481829Y-30372419D02*
X626529448Y-30848609D01*
X626529448Y-30848609D02*
X626481829Y-30800990D01*
X626481829Y-30800990D02*
X626386591Y-30753371D01*
X626386591Y-30753371D02*
X626148496Y-30753371D01*
X626148496Y-30753371D02*
X626053258Y-30800990D01*
X626053258Y-30800990D02*
X626005639Y-30848609D01*
X626005639Y-30848609D02*
X625958020Y-30943847D01*
X625958020Y-30943847D02*
X625958020Y-31181942D01*
X625958020Y-31181942D02*
X626005639Y-31277180D01*
X626005639Y-31277180D02*
X626053258Y-31324800D01*
X626053258Y-31324800D02*
X626148496Y-31372419D01*
X626148496Y-31372419D02*
X626386591Y-31372419D01*
X626386591Y-31372419D02*
X626481829Y-31324800D01*
X626481829Y-31324800D02*
X626529448Y-31277180D01*
X624767543Y-30991466D02*
X624005639Y-30991466D01*
X622767543Y-31372419D02*
X622767543Y-30372419D01*
X622767543Y-30372419D02*
X622434210Y-31086704D01*
X622434210Y-31086704D02*
X622100877Y-30372419D01*
X622100877Y-30372419D02*
X622100877Y-31372419D01*
X621624686Y-31372419D02*
X621624686Y-30705752D01*
X621624686Y-30372419D02*
X621672305Y-30420038D01*
X621672305Y-30420038D02*
X621624686Y-30467657D01*
X621624686Y-30467657D02*
X621577067Y-30420038D01*
X621577067Y-30420038D02*
X621624686Y-30372419D01*
X621624686Y-30372419D02*
X621624686Y-30467657D01*
X621148496Y-30705752D02*
X621148496Y-31372419D01*
X621148496Y-30800990D02*
X621100877Y-30753371D01*
X621100877Y-30753371D02*
X621005639Y-30705752D01*
X621005639Y-30705752D02*
X620862782Y-30705752D01*
X620862782Y-30705752D02*
X620767544Y-30753371D01*
X620767544Y-30753371D02*
X620719925Y-30848609D01*
X620719925Y-30848609D02*
X620719925Y-31372419D01*
X620243734Y-31372419D02*
X620243734Y-30705752D01*
X620243734Y-30372419D02*
X620291353Y-30420038D01*
X620291353Y-30420038D02*
X620243734Y-30467657D01*
X620243734Y-30467657D02*
X620196115Y-30420038D01*
X620196115Y-30420038D02*
X620243734Y-30372419D01*
X620243734Y-30372419D02*
X620243734Y-30467657D01*
X618862782Y-31372419D02*
X618958020Y-31324800D01*
X618958020Y-31324800D02*
X619005639Y-31229561D01*
X619005639Y-31229561D02*
X619005639Y-30372419D01*
X618053258Y-31372419D02*
X618053258Y-30848609D01*
X618053258Y-30848609D02*
X618100877Y-30753371D01*
X618100877Y-30753371D02*
X618196115Y-30705752D01*
X618196115Y-30705752D02*
X618386591Y-30705752D01*
X618386591Y-30705752D02*
X618481829Y-30753371D01*
X618053258Y-31324800D02*
X618148496Y-31372419D01*
X618148496Y-31372419D02*
X618386591Y-31372419D01*
X618386591Y-31372419D02*
X618481829Y-31324800D01*
X618481829Y-31324800D02*
X618529448Y-31229561D01*
X618529448Y-31229561D02*
X618529448Y-31134323D01*
X618529448Y-31134323D02*
X618481829Y-31039085D01*
X618481829Y-31039085D02*
X618386591Y-30991466D01*
X618386591Y-30991466D02*
X618148496Y-30991466D01*
X618148496Y-30991466D02*
X618053258Y-30943847D01*
X617624686Y-31324800D02*
X617529448Y-31372419D01*
X617529448Y-31372419D02*
X617338972Y-31372419D01*
X617338972Y-31372419D02*
X617243734Y-31324800D01*
X617243734Y-31324800D02*
X617196115Y-31229561D01*
X617196115Y-31229561D02*
X617196115Y-31181942D01*
X617196115Y-31181942D02*
X617243734Y-31086704D01*
X617243734Y-31086704D02*
X617338972Y-31039085D01*
X617338972Y-31039085D02*
X617481829Y-31039085D01*
X617481829Y-31039085D02*
X617577067Y-30991466D01*
X617577067Y-30991466D02*
X617624686Y-30896228D01*
X617624686Y-30896228D02*
X617624686Y-30848609D01*
X617624686Y-30848609D02*
X617577067Y-30753371D01*
X617577067Y-30753371D02*
X617481829Y-30705752D01*
X617481829Y-30705752D02*
X617338972Y-30705752D01*
X617338972Y-30705752D02*
X617243734Y-30753371D01*
X616386591Y-31324800D02*
X616481829Y-31372419D01*
X616481829Y-31372419D02*
X616672305Y-31372419D01*
X616672305Y-31372419D02*
X616767543Y-31324800D01*
X616767543Y-31324800D02*
X616815162Y-31229561D01*
X616815162Y-31229561D02*
X616815162Y-30848609D01*
X616815162Y-30848609D02*
X616767543Y-30753371D01*
X616767543Y-30753371D02*
X616672305Y-30705752D01*
X616672305Y-30705752D02*
X616481829Y-30705752D01*
X616481829Y-30705752D02*
X616386591Y-30753371D01*
X616386591Y-30753371D02*
X616338972Y-30848609D01*
X616338972Y-30848609D02*
X616338972Y-30943847D01*
X616338972Y-30943847D02*
X616815162Y-31039085D01*
X615910400Y-31372419D02*
X615910400Y-30705752D01*
X615910400Y-30896228D02*
X615862781Y-30800990D01*
X615862781Y-30800990D02*
X615815162Y-30753371D01*
X615815162Y-30753371D02*
X615719924Y-30705752D01*
X615719924Y-30705752D02*
X615624686Y-30705752D01*
X614100876Y-31372419D02*
X614100876Y-30372419D01*
X614100876Y-31324800D02*
X614196114Y-31372419D01*
X614196114Y-31372419D02*
X614386590Y-31372419D01*
X614386590Y-31372419D02*
X614481828Y-31324800D01*
X614481828Y-31324800D02*
X614529447Y-31277180D01*
X614529447Y-31277180D02*
X614577066Y-31181942D01*
X614577066Y-31181942D02*
X614577066Y-30896228D01*
X614577066Y-30896228D02*
X614529447Y-30800990D01*
X614529447Y-30800990D02*
X614481828Y-30753371D01*
X614481828Y-30753371D02*
X614386590Y-30705752D01*
X614386590Y-30705752D02*
X614196114Y-30705752D01*
X614196114Y-30705752D02*
X614100876Y-30753371D01*
X613624685Y-31372419D02*
X613624685Y-30705752D01*
X613624685Y-30896228D02*
X613577066Y-30800990D01*
X613577066Y-30800990D02*
X613529447Y-30753371D01*
X613529447Y-30753371D02*
X613434209Y-30705752D01*
X613434209Y-30705752D02*
X613338971Y-30705752D01*
X613005637Y-31372419D02*
X613005637Y-30705752D01*
X613005637Y-30372419D02*
X613053256Y-30420038D01*
X613053256Y-30420038D02*
X613005637Y-30467657D01*
X613005637Y-30467657D02*
X612958018Y-30420038D01*
X612958018Y-30420038D02*
X613005637Y-30372419D01*
X613005637Y-30372419D02*
X613005637Y-30467657D01*
X612624685Y-30705752D02*
X612386590Y-31372419D01*
X612386590Y-31372419D02*
X612148495Y-30705752D01*
X611386590Y-31324800D02*
X611481828Y-31372419D01*
X611481828Y-31372419D02*
X611672304Y-31372419D01*
X611672304Y-31372419D02*
X611767542Y-31324800D01*
X611767542Y-31324800D02*
X611815161Y-31229561D01*
X611815161Y-31229561D02*
X611815161Y-30848609D01*
X611815161Y-30848609D02*
X611767542Y-30753371D01*
X611767542Y-30753371D02*
X611672304Y-30705752D01*
X611672304Y-30705752D02*
X611481828Y-30705752D01*
X611481828Y-30705752D02*
X611386590Y-30753371D01*
X611386590Y-30753371D02*
X611338971Y-30848609D01*
X611338971Y-30848609D02*
X611338971Y-30943847D01*
X611338971Y-30943847D02*
X611815161Y-31039085D01*
X610910399Y-31372419D02*
X610910399Y-30705752D01*
X610910399Y-30896228D02*
X610862780Y-30800990D01*
X610862780Y-30800990D02*
X610815161Y-30753371D01*
X610815161Y-30753371D02*
X610719923Y-30705752D01*
X610719923Y-30705752D02*
X610624685Y-30705752D01*
M02*
