%TF.GenerationSoftware,KiCad,Pcbnew,8.0.8*%
%TF.CreationDate,2025-02-06T15:12:14+01:00*%
%TF.ProjectId,mini-laser-driver,6d696e69-2d6c-4617-9365-722d64726976,rev?*%
%TF.SameCoordinates,Original*%
%TF.FileFunction,Paste,Top*%
%TF.FilePolarity,Positive*%
%FSLAX46Y46*%
G04 Gerber Fmt 4.6, Leading zero omitted, Abs format (unit mm)*
G04 Created by KiCad (PCBNEW 8.0.8) date 2025-02-06 15:12:14*
%MOMM*%
%LPD*%
G01*
G04 APERTURE LIST*
G04 Aperture macros list*
%AMRoundRect*
0 Rectangle with rounded corners*
0 $1 Rounding radius*
0 $2 $3 $4 $5 $6 $7 $8 $9 X,Y pos of 4 corners*
0 Add a 4 corners polygon primitive as box body*
4,1,4,$2,$3,$4,$5,$6,$7,$8,$9,$2,$3,0*
0 Add four circle primitives for the rounded corners*
1,1,$1+$1,$2,$3*
1,1,$1+$1,$4,$5*
1,1,$1+$1,$6,$7*
1,1,$1+$1,$8,$9*
0 Add four rect primitives between the rounded corners*
20,1,$1+$1,$2,$3,$4,$5,0*
20,1,$1+$1,$4,$5,$6,$7,0*
20,1,$1+$1,$6,$7,$8,$9,0*
20,1,$1+$1,$8,$9,$2,$3,0*%
G04 Aperture macros list end*
%ADD10RoundRect,0.237500X0.250000X0.237500X-0.250000X0.237500X-0.250000X-0.237500X0.250000X-0.237500X0*%
%ADD11RoundRect,0.250000X0.625000X-0.400000X0.625000X0.400000X-0.625000X0.400000X-0.625000X-0.400000X0*%
%ADD12RoundRect,0.237500X-0.250000X-0.237500X0.250000X-0.237500X0.250000X0.237500X-0.250000X0.237500X0*%
%ADD13RoundRect,0.237500X-0.300000X-0.237500X0.300000X-0.237500X0.300000X0.237500X-0.300000X0.237500X0*%
%ADD14RoundRect,0.237500X0.237500X-0.300000X0.237500X0.300000X-0.237500X0.300000X-0.237500X-0.300000X0*%
%ADD15RoundRect,0.150000X-0.150000X0.512500X-0.150000X-0.512500X0.150000X-0.512500X0.150000X0.512500X0*%
%ADD16RoundRect,0.150000X-0.587500X-0.150000X0.587500X-0.150000X0.587500X0.150000X-0.587500X0.150000X0*%
%ADD17RoundRect,0.237500X-0.237500X0.250000X-0.237500X-0.250000X0.237500X-0.250000X0.237500X0.250000X0*%
%ADD18RoundRect,0.150000X0.150000X-0.587500X0.150000X0.587500X-0.150000X0.587500X-0.150000X-0.587500X0*%
%ADD19RoundRect,0.237500X0.237500X-0.250000X0.237500X0.250000X-0.237500X0.250000X-0.237500X-0.250000X0*%
%ADD20RoundRect,0.237500X0.300000X0.237500X-0.300000X0.237500X-0.300000X-0.237500X0.300000X-0.237500X0*%
%ADD21RoundRect,0.150000X-0.825000X-0.150000X0.825000X-0.150000X0.825000X0.150000X-0.825000X0.150000X0*%
%ADD22RoundRect,0.237500X-0.237500X0.300000X-0.237500X-0.300000X0.237500X-0.300000X0.237500X0.300000X0*%
G04 APERTURE END LIST*
D10*
%TO.C,R3*%
X616000000Y-47000000D03*
X614175000Y-47000000D03*
%TD*%
D11*
%TO.C,R6*%
X639100000Y-49300000D03*
X639100000Y-46200000D03*
%TD*%
D12*
%TO.C,R10*%
X621750000Y-37000000D03*
X623575000Y-37000000D03*
%TD*%
D10*
%TO.C,R11*%
X623487500Y-35000000D03*
X621662500Y-35000000D03*
%TD*%
D12*
%TO.C,R5*%
X626450000Y-42000000D03*
X628275000Y-42000000D03*
%TD*%
D13*
%TO.C,C3*%
X635275000Y-44500000D03*
X637000000Y-44500000D03*
%TD*%
D14*
%TO.C,C4*%
X644710000Y-43500000D03*
X644710000Y-41775000D03*
%TD*%
D15*
%TO.C,U2*%
X642710000Y-41362500D03*
X641760000Y-41362500D03*
X640810000Y-41362500D03*
X640810000Y-43637500D03*
X642710000Y-43637500D03*
%TD*%
D12*
%TO.C,R4*%
X626450000Y-40000000D03*
X628275000Y-40000000D03*
%TD*%
D10*
%TO.C,R8*%
X636912500Y-49500000D03*
X635087500Y-49500000D03*
%TD*%
D16*
%TO.C,Q2*%
X636487500Y-40050000D03*
X636487500Y-41950000D03*
X638362500Y-41000000D03*
%TD*%
D17*
%TO.C,R7*%
X642710000Y-37725000D03*
X642710000Y-39550000D03*
%TD*%
D10*
%TO.C,R2*%
X616000000Y-44250000D03*
X614175000Y-44250000D03*
%TD*%
D16*
%TO.C,Q1*%
X630487500Y-40050000D03*
X630487500Y-41950000D03*
X632362500Y-41000000D03*
%TD*%
D18*
%TO.C,Q3*%
X621712500Y-32875000D03*
X623612500Y-32875000D03*
X622662500Y-31000000D03*
%TD*%
D19*
%TO.C,R1*%
X634500000Y-41912500D03*
X634500000Y-40087500D03*
%TD*%
D20*
%TO.C,C1*%
X624225000Y-40000000D03*
X622500000Y-40000000D03*
%TD*%
D21*
%TO.C,U1*%
X627525000Y-44595000D03*
X627525000Y-45865000D03*
X627525000Y-47135000D03*
X627525000Y-48405000D03*
X632475000Y-48405000D03*
X632475000Y-47135000D03*
X632475000Y-45865000D03*
X632475000Y-44595000D03*
%TD*%
D22*
%TO.C,C5*%
X640710000Y-37775000D03*
X640710000Y-39500000D03*
%TD*%
D10*
%TO.C,R9*%
X636912500Y-47500000D03*
X635087500Y-47500000D03*
%TD*%
M02*
